{
.appVersion = "1338";
DisplayStrings = (
AAAAAAAAAA,
"/alef-ar.fina",
"/hamza-ar",
"/meem-ar/noon-ar/meem-ar/meem-ar/space/teh-ar/alef-ar/yeh-ar/beh-ar"
);
classes = (
{
automatic = 1;

glyphs = (
{
glyphname = A;
layers = (
{
anchors = (
{
name = bottom;
position = "{235, 0}";
},
{
name = ogonek;
position = "{313, 52}";
},
{
name = top;
position = "{235, 680}";
}
);
layerId = "C1068CC4-E81B-47E6-9D26-F0E70787A68A";
paths = (
{
closed = 1;
nodes = (
"455 147 LINE",
"422 156 LINE",
"422 447 LINE",
"455 567 LINE",
"65 674 LINE",
"25 528 LINE",
"271 461 LINE",
"271 165 LINE",
"240 49 LINE",
"416 1 LINE"
);
},
{
closed = 1;
nodes = (
"230 147 LINE",
"197 156 LINE",
"197 267 LINE",
"251 252 LINE",
"279 356 LINE",
"197 379 LINE",
"197 500 LINE",
"46 500 LINE",
"46 165 LINE",
"15 49 LINE",
"191 1 LINE"
);
},
{
closed = 1;
nodes = (
"79 98 LINE",
"83 118 LINE",
"112 110 LINE",
"112 453 LINE",
"132 453 LINE",
"132 351 LINE",
"223 326 LINE",
"218 306 LINE",
"132 330 LINE",
"132 105 LINE",
"166 96 LINE",
"161 76 LINE"
);
},
{
closed = 1;
nodes = (
"304 98 LINE",
"308 118 LINE",
"337 110 LINE",
"337 509 LINE",
"89 578 LINE",
"94 597 LINE",
"390 515 LINE",
"385 496 LINE",
"357 503 LINE",
"357 105 LINE",
"390 96 LINE",
"385 76 LINE"
);
}
);
width = 470;
},
{
associatedMasterId = "C1068CC4-E81B-47E6-9D26-F0E70787A68A";
layerId = "F11065D9-4AC2-45B6-BD3C-4151C4ED4BDD";
name = "Jul 30 19, 22:49";
paths = (
{
closed = 1;
nodes = (
"318 489 LINE",
"329 466 LINE",
"12 553 LINE",
"35 566 LINE",
"21 512 LINE",
"13 532 LINE",
"322 447 LINE",
"304 435 LINE"
);
},
{
closed = 1;
nodes = (
"88 50 LINE",
"20 68 LINE",
"15 48 LINE",
"83 30 LINE"
);
},
{
closed = 1;
nodes = (
"66 52 LINE",
"66 519 LINE",
"46 519 LINE",
"46 52 LINE"
);
},
{
closed = 1;
nodes = (
"313 50 LINE",
"245 69 LINE",
"240 49 LINE",
"308 30 LINE"
);
},
{
closed = 1;
nodes = (
"277 283 LINE",
"289 263 LINE",
"52 328 LINE",
"64 335 LINE",
"52 291 LINE",
"50 307 LINE",
"285 243 LINE",
"265 239 LINE"
);
},
{
closed = 1;
nodes = (
"291 51 LINE",
"291 466 LINE",
"271 466 LINE",
"271 51 LINE"
);
}
);
width = 328;
},
{
associatedMasterId = "C1068CC4-E81B-47E6-9D26-F0E70787A68A";
layerId = "65523657-DE38-4EC2-84AB-22EFEC20E824";
name = "Jul 30 19, 22:59";
paths = (
{
closed = 1;
nodes = (
"212 1 LINE",
"251 147 LINE",
"218 156 LINE",
"218 267 LINE",
"272 252 LINE",
"300 356 LINE",
"218 379 LINE",
"218 500 LINE",
"67 500 LINE",
"67 165 LINE",
"36 49 LINE"
);
},
{
closed = 1;
nodes = (
"244 326 LINE",
"239 306 LINE",
"153 330 LINE",
"153 105 LINE",
"179 98 LINE",
"174 78 LINE",
"106 96 LINE",
"111 116 LINE",
"133 110 LINE",
"133 453 LINE",
"153 453 LINE",
"153 351 LINE"
);
},
{
closed = 1;
nodes = (
"46 528 LINE",
"292 461 LINE",
"292 165 LINE",
"261 49 LINE",
"437 1 LINE",
"476 147 LINE",
"443 156 LINE",
"443 447 LINE",
"476 567 LINE",
"86 674 LINE"
);
},
{
closed = 1;
nodes = (
"115 597 LINE",
"398 519 LINE",
"393 500 LINE",
"378 504 LINE",
"378 105 LINE",
"404 98 LINE",
"399 78 LINE",
"331 96 LINE",
"336 116 LINE",
"358 110 LINE",
"358 510 LINE",
"110 578 LINE"
);
}
);
width = 524;
},
{
associatedMasterId = "C1068CC4-E81B-47E6-9D26-F0E70787A68A";
layerId = "EC035F5C-B96D-4F4A-B177-D55FBCAAF2B4";
name = "Jul 30 19, 23:00";
paths = (
{
closed = 1;
nodes = (
"212 1 LINE",
"251 147 LINE",
"218 156 LINE",
"218 267 LINE",
"272 252 LINE",
"300 356 LINE",
"218 379 LINE",
"218 500 LINE",
"67 500 LINE",
"67 165 LINE",
"36 49 LINE"
);
},
{
closed = 1;
nodes = (
"244 326 LINE",
"239 306 LINE",
"153 330 LINE",
"153 105 LINE",
"179 98 LINE",
"174 78 LINE",
"106 96 LINE",
"111 116 LINE",
"133 110 LINE",
"133 453 LINE",
"153 453 LINE",
"153 351 LINE"
);
},
{
closed = 1;
nodes = (
"46 528 LINE",
"292 461 LINE",
"292 165 LINE",
"261 49 LINE",
"437 1 LINE",
"476 147 LINE",
"443 156 LINE",
"443 447 LINE",
"476 567 LINE",
"86 674 LINE"
);
},
{
closed = 1;
nodes = (
"383 523 LINE",
"378 504 LINE",
"378 105 LINE",
"404 98 LINE",
"399 78 LINE",
"331 96 LINE",
"336 116 LINE",
"358 110 LINE",
"358 510 LINE",
"110 578 LINE",
"115 597 LINE"
);
}
);
width = 524;
},
{
anchors = (
{
name = bottom;
position = "{235, 0}";
},
{
name = ogonek;
position = "{313, 52}";
},
{
name = top;
position = "{235, 680}";
}
);
layerId = "8F9EA7C7-FA6E-4084-B685-AEA30DABFFDA";
paths = (
{
closed = 1;
nodes = (
"455 147 LINE",
"422 156 LINE",
"422 447 LINE",
"455 567 LINE",
"65 674 LINE",
"25 528 LINE",
"271 461 LINE",
"271 165 LINE",
"240 49 LINE",
"416 1 LINE"
);
},
{
closed = 1;
nodes = (
"230 147 LINE",
"197 156 LINE",
"197 267 LINE",
"251 252 LINE",
"279 356 LINE",
"197 379 LINE",
"197 500 LINE",
"46 500 LINE",
"46 165 LINE",
"15 49 LINE",
"191 1 LINE"
);
},
{
closed = 1;
nodes = (
"39 63 LINE",
"66 162 LINE",
"66 190 LINE",
"66 480 LINE",
"177 480 LINE",
"177 364 LINE",
"255 342 LINE",
"237 277 LINE",
"177 293 LINE",
"177 141 LINE",
"206 133 LINE",
"177 26 LINE"
);
},
{
closed = 1;
nodes = (
"264 63 LINE",
"291 163 LINE",
"291 180 LINE",
"291 476 LINE",
"50 542 LINE",
"79 649 LINE",
"430 553 LINE",
"402 450 LINE",
"402 439 LINE",
"402 141 LINE",
"431 133 LINE",
"402 26 LINE"
);
}
);
width = 470;
},
{
associatedMasterId = "8F9EA7C7-FA6E-4084-B685-AEA30DABFFDA";
layerId = "F64E6B00-F119-4505-B940-F2B24B501778";
name = "Aug 24 19, 22:30";
paths = (
{
closed = 1;
nodes = (
"65 674 LINE",
"25 528 LINE",
"415 421 LINE",
"455 567 LINE"
);
},
{
closed = 1;
nodes = (
"401 446 LINE",
"50 542 LINE",
"79 649 LINE",
"430 553 LINE"
);
},
{
closed = 1;
nodes = (
"230 147 LINE",
"54 195 LINE",
"15 49 LINE",
"191 1 LINE"
);
},
{
closed = 1;
nodes = (
"197 86 LINE",
"197 500 LINE",
"46 500 LINE",
"46 86 LINE"
);
},
{
closed = 1;
nodes = (
"455 147 LINE",
"279 195 LINE",
"240 49 LINE",
"416 1 LINE"
);
},
{
closed = 1;
nodes = (
"264 63 LINE",
"293 170 LINE",
"431 133 LINE",
"402 26 LINE"
);
},
{
closed = 1;
nodes = (
"303 444 LINE",
"324 344 LINE",
"62 416 LINE",
"117 492 LINE",
"54 260 LINE",
"23 315 LINE",
"285 243 LINE",
"240 212 LINE"
);
},
{
closed = 1;
nodes = (
"422 86 LINE",
"422 526 LINE",
"271 526 LINE",
"271 86 LINE"
);
},
{
closed = 1;
nodes = (
"291 506 LINE",
"402 506 LINE",
"402 106 LINE",
"291 106 LINE"
);
}
);
width = 600;
}
);
unicode = 0041;
},
{
glyphname = AE;
layers = (
{
anchors = (
{
name = bottom;
position = "{235, 0}";
},
{
name = ogonek;
position = "{423, 10}";
},
{
name = top;
position = "{235, 680}";
}
);
layerId = "C1068CC4-E81B-47E6-9D26-F0E70787A68A";
paths = (
{
closed = 1;
nodes = (
"191 1 LINE",
"230 147 LINE",
"197 156 LINE",
"197 267 LINE",
"251 252 LINE",
"279 356 LINE",
"197 379 LINE",
"197 500 LINE",
"46 500 LINE",
"46 165 LINE",
"15 49 LINE"
);
},
{
closed = 1;
nodes = (
"223 326 LINE",
"218 306 LINE",
"132 330 LINE",
"132 105 LINE",
"201 86 LINE",
"178 142 LINE",
"151 34 LINE",
"197 66 LINE",
"42 108 LINE",
"67 52 LINE",
"94 160 LINE",
"47 128 LINE",
"112 110 LINE",
"112 453 LINE",
"132 453 LINE",
"132 351 LINE"
);
},
{
closed = 1;
nodes = (
"230 503 LINE",
"296 521 LINE",
"89 578 LINE",
"94 597 LINE",
"308 538 LINE",
"257 610 LINE"
);
},
{
closed = 1;
nodes = (
"614 543 LINE",
"612 523 LINE",
"307 552 LINE",
"311 592 LINE",
"285 574 LINE"
);
},
{
closed = 1;
nodes = (
"322 119 LINE",
"337 115 LINE",
"337 453 LINE",
"357 453 LINE",
"357 314 LINE",
"498 314 LINE",
"495 294 LINE",
"357 294 LINE",
"357 109 LINE",
"547 58 LINE",
"542 38 LINE",
"317 99 LINE"
);
},
{
closed = 1;
nodes = (
"271 461 LINE",
"271 115 LINE",
"254 51 LINE",
"572 -36 LINE",
"612 110 LINE",
"422 162 LINE",
"422 228 LINE",
"537 228 LINE",
"556 379 LINE",
"422 379 LINE",
"422 497 LINE",
"407 477 LINE",
"655 453 LINE",
"669 604 LINE",
"266 642 LINE",
"264 619 LINE",
"65 674 LINE",
"25 528 LINE"
);
}
);
width = 684;
},
{
layerId = "8F9EA7C7-FA6E-4084-B685-AEA30DABFFDA";
width = 600;
}
);
unicode = 00C6;
},
{
glyphname = B;
layers = (
{
layerId = "C1068CC4-E81B-47E6-9D26-F0E70787A68A";
paths = (
{
closed = 1;
nodes = (
"455 76 LINE",
"455 331 LINE",
"250 388 LINE",
"230 314 LINE",
"230 490 LINE",
"79 490 LINE",
"79 199 LINE",
"55 205 LINE",
"15 59 LINE",
"295 -17 LINE"
);
},
{
closed = 1;
nodes = (
"179 171 LINE",
"230 171 LINE",
"230 236 LINE",
"304 216 LINE",
"304 137 LINE"
);
},
{
closed = 1;
nodes = (
"79 107 LINE",
"84 127 LINE",
"145 110 LINE",
"145 453 LINE",
"165 453 LINE",
"165 105 LINE",
"321 62 LINE",
"297 48 LINE"
);
},
{
closed = 1;
nodes = (
"370 265 LINE",
"272 292 LINE",
"277 311 LINE",
"410 274 LINE",
"405 255 LINE",
"390 259 LINE",
"390 102 LINE",
"370 90 LINE"
);
},
{
closed = 1;
nodes = (
"455 375 LINE",
"455 576 LINE",
"98 674 LINE",
"58 528 LINE",
"304 461 LINE",
"304 333 LINE"
);
},
{
closed = 1;
nodes = (
"370 510 LINE",
"122 578 LINE",
"127 597 LINE",
"410 519 LINE",
"405 500 LINE",
"390 504 LINE",
"390 417 LINE",
"370 411 LINE"
);
}
);
width = 470;
},
{
associatedMasterId = "C1068CC4-E81B-47E6-9D26-F0E70787A68A";
layerId = "97DFD309-421F-4CC7-9552-36E011D19DE8";
name = "Jul 30 19, 23:24";
paths = (
{
closed = 1;
nodes = (
"241 -49 LINE",
"455 76 LINE",
"455 95 LINE",
"12 217 LINE",
"66 247 LINE",
"3 15 LINE",
"-16 68 LINE",
"439 -57 LINE"
);
},
{
closed = 1;
nodes = (
"230 171 LINE",
"230 490 LINE",
"79 490 LINE",
"79 171 LINE"
);
},
{
closed = 1;
nodes = (
"455 76 LINE",
"455 331 LINE",
"304 331 LINE",
"304 76 LINE"
);
},
{
closed = 1;
nodes = (
"455 331 LINE",
"201 401 LINE",
"274 477 LINE",
"202 211 LINE",
"156 256 LINE",
"416 185 LINE"
);
},
{
closed = 1;
nodes = (
"465 613 LINE",
"521 558 LINE",
"55 686 LINE",
"109 716 LINE",
"46 484 LINE",
"27 537 LINE",
"482 412 LINE",
"402 381 LINE"
);
},
{
closed = 1;
nodes = (
"455 375 LINE",
"455 576 LINE",
"304 576 LINE",
"304 333 LINE"
);
},
{
closed = 1;
nodes = (
"165 105 LINE",
"191 98 LINE",
"186 78 LINE",
"118 96 LINE",
"123 116 LINE",
"145 110 LINE",
"145 453 LINE",
"165 453 LINE"
);
}
);
width = 470;
},
{
layerId = "8F9EA7C7-FA6E-4084-B685-AEA30DABFFDA";
paths = (
{
closed = 1;
nodes = (
"455 76 LINE",
"455 331 LINE",
"250 388 LINE",
"230 314 LINE",
"230 490 LINE",
"79 490 LINE",
"79 199 LINE",
"55 205 LINE",
"15 59 LINE",
"295 -17 LINE"
);
}
);
width = 600;
},
{
associatedMasterId = "C1068CC4-E81B-47E6-9D26-F0E70787A68A";
layerId = "0A026D66-00A5-407F-9ED2-96B85B0E9A54";
name = "Aug 30 19, 01:55";
paths = (
{
closed = 1;
nodes = (
"165 105 LINE",
"370 49 LINE",
"352 80 LINE",
"263 28 LINE",
"357 32 LINE",
"75 108 LINE",
"71 75 LINE",
"98 183 LINE",
"80 128 LINE",
"145 110 LINE",
"145 453 LINE",
"165 453 LINE"
);
},
{
closed = 1;
nodes = (
"127 597 LINE",
"410 519 LINE",
"405 500 LINE",
"390 504 LINE",
"390 417 LINE",
"370 411 LINE",
"370 510 LINE",
"122 578 LINE"
);
},
{
closed = 1;
nodes = (
"304 461 LINE",
"304 333 LINE",
"455 375 LINE",
"455 576 LINE",
"98 674 LINE",
"46 484 LINE",
"27 537 LINE"
);
},
{
closed = 1;
nodes = (
"270 284 LINE",
"282 333 LINE",
"263 315 LINE",
"410 274 LINE",
"405 255 LINE",
"390 259 LINE",
"390 102 LINE",
"370 90 LINE",
"370 265 LINE",
"256 296 LINE"
);
},
{
closed = 1;
nodes = (
"295 -17 LINE",
"455 76 LINE",
"455 331 LINE",
"250 388 LINE",
"230 314 LINE",
"230 490 LINE",
"79 490 LINE",
"79 199 LINE",
"55 205 LINE",
"3 15 LINE",
"-16 68 LINE"
);
},
{
closed = 1;
nodes = (
"230 171 LINE",
"230 236 LINE",
"304 216 LINE",
"304 137 LINE",
"179 171 LINE"
);
}
);
width = 470;
},
{
associatedMasterId = "C1068CC4-E81B-47E6-9D26-F0E70787A68A";
layerId = "03F2B760-6C8A-4EF0-98D3-811CD88536B4";
name = "Aug 30 19, 01:58";
paths = (
{
closed = 1;
nodes = (
"455 76 LINE",
"455 331 LINE",
"250 388 LINE",
"230 314 LINE",
"230 490 LINE",
"79 490 LINE",
"79 199 LINE",
"55 205 LINE",
"15 59 LINE",
"295 -17 LINE"
);
},
{
closed = 1;
nodes = (
"370 510 LINE",
"122 578 LINE",
"127 597 LINE",
"410 519 LINE",
"405 500 LINE",
"390 504 LINE",
"390 417 LINE",
"370 411 LINE"
);
}
);
width = 470;
}
);
unicode = 0042;
},
{
glyphname = C;
layers = (
{
anchors = (
{
name = bottom;
position = "{206, 0}";
},
{
name = top;
position = "{246, 700}";
}
);
layerId = "C1068CC4-E81B-47E6-9D26-F0E70787A68A";
paths = (
{
closed = 1;
nodes = (
"476 570 LINE",
"53 686 LINE",
"107 716 LINE",
"44 484 LINE",
"25 537 LINE",
"437 424 LINE"
);
},
{
closed = 1;
nodes = (
"125 597 LINE",
"408 519 LINE",
"403 500 LINE",
"120 578 LINE"
);
},
{
closed = 1;
nodes = (
"306 -19 LINE",
"464 24 LINE",
"424 170 LINE",
"294 134 LINE",
"167 171 LINE",
"228 171 LINE",
"228 490 LINE",
"77 490 LINE",
"77 197 LINE",
"52 204 LINE",
"15 60 LINE"
);
},
{
closed = 1;
nodes = (
"82 127 LINE",
"143 110 LINE",
"143 453 LINE",
"163 453 LINE",
"163 105 LINE",
"339 57 LINE",
"253 58 LINE",
"437 108 LINE",
"382 138 LINE",
"399 77 LINE",
"295 48 LINE",
"77 107 LINE"
);
}
);
width = 491;
},
{
layerId = "8F9EA7C7-FA6E-4084-B685-AEA30DABFFDA";
width = 600;
}
);
unicode = 0043;
},
{
glyphname = D;
layers = (
{
anchors = (
{
name = bottom;
position = "{246, -50}";
},
{
name = center;
position = "{246, 350}";
},
{
name = top;
position = "{246, 700}";
}
);
layerId = "C1068CC4-E81B-47E6-9D26-F0E70787A68A";
paths = (
{
closed = 1;
nodes = (
"325 455 LINE",
"325 86 LINE",
"476 86 LINE",
"476 570 LINE",
"96 674 LINE",
"44 484 LINE",
"25 537 LINE"
);
},
{
closed = 1;
nodes = (
"343 -29 LINE",
"380 114 LINE",
"172 171 LINE",
"228 171 LINE",
"228 490 LINE",
"77 490 LINE",
"77 197 LINE",
"52 204 LINE",
"15 60 LINE"
);
},
{
closed = 1;
nodes = (
"125 597 LINE",
"411 518 LINE",
"411 137 LINE",
"391 137 LINE",
"391 503 LINE",
"120 578 LINE"
);
},
{
closed = 1;
nodes = (
"83 130 LINE",
"143 114 LINE",
"143 453 LINE",
"163 453 LINE",
"163 108 LINE",
"317 66 LINE",
"312 45 LINE",
"77 109 LINE"
);
}
);
width = 491;
},
{
layerId = "8F9EA7C7-FA6E-4084-B685-AEA30DABFFDA";
width = 600;
}
);
unicode = 0044;
},
{
glyphname = Eth;
layers = (
{
anchors = (
{
name = bottom;
position = "{246, -50}";
},
{
name = center;
position = "{246, 350}";
},
{
name = top;
position = "{246, 700}";
}
);
layerId = "C1068CC4-E81B-47E6-9D26-F0E70787A68A";
paths = (
{
closed = 1;
nodes = (
"325 455 LINE",
"325 86 LINE",
"476 86 LINE",
"476 570 LINE",
"96 674 LINE",
"44 484 LINE",
"25 537 LINE"
);
},
{
closed = 1;
nodes = (
"125 597 LINE",
"411 518 LINE",
"411 137 LINE",
"391 137 LINE",
"391 503 LINE",
"120 578 LINE"
);
},
{
closed = 1;
nodes = (
"77 302 LINE",
"77 197 LINE",
"52 204 LINE",
"15 60 LINE",
"343 -29 LINE",
"380 114 LINE",
"172 171 LINE",
"228 171 LINE",
"228 261 LINE",
"259 252 LINE",
"287 356 LINE",
"228 373 LINE",
"228 490 LINE",
"77 490 LINE",
"77 414 LINE",
"55 420 LINE",
"12 260 LINE",
"-13 327 LINE"
);
},
{
closed = 1;
nodes = (
"78 367 LINE",
"143 349 LINE",
"143 453 LINE",
"163 453 LINE",
"163 344 LINE",
"239 323 LINE",
"234 304 LINE",
"163 324 LINE",
"163 108 LINE",
"317 66 LINE",
"312 45 LINE",
"77 109 LINE",
"83 130 LINE",
"143 114 LINE",
"143 329 LINE",
"74 348 LINE"
);
}
);
width = 491;
},
{
layerId = "8F9EA7C7-FA6E-4084-B685-AEA30DABFFDA";
width = 600;
}
);
unicode = 00D0;
},
{
glyphname = E;
layers = (
{
anchors = (
{
name = bottom;
position = "{224, 0}";
},
{
name = ogonek;
position = "{172, 52}";
},
{
name = top;
position = "{224, 700}";
},
{
name = topleft;
position = "{20, 700}";
}
);
layerId = "C1068CC4-E81B-47E6-9D26-F0E70787A68A";
paths = (
{
closed = 1;
nodes = (
"436 652 LINE",
"466 601 LINE",
"-15 646 LINE",
"33 685 LINE",
"11 446 LINE",
"-17 495 LINE",
"453 450 LINE",
"414 412 LINE"
);
},
{
closed = 1;
nodes = (
"377 543 LINE",
"375 523 LINE",
"70 552 LINE",
"74 592 LINE",
"48 574 LINE"
);
},
{
closed = 1;
nodes = (
"335 -36 LINE",
"375 110 LINE",
"185 162 LINE",
"185 228 LINE",
"300 228 LINE",
"319 379 LINE",
"185 379 LINE",
"185 482 LINE",
"34 482 LINE",
"34 115 LINE",
"17 51 LINE"
);
},
{
closed = 1;
nodes = (
"85 119 LINE",
"100 115 LINE",
"100 445 LINE",
"120 445 LINE",
"120 314 LINE",
"261 314 LINE",
"258 294 LINE",
"120 294 LINE",
"120 109 LINE",
"310 58 LINE",
"305 38 LINE",
"80 99 LINE"
);
}
);
width = 447;
},
{
layerId = "8F9EA7C7-FA6E-4084-B685-AEA30DABFFDA";
width = 600;
}
);
unicode = 0045;
},
{
glyphname = F;
layers = (
{
layerId = "C1068CC4-E81B-47E6-9D26-F0E70787A68A";
paths = (
{
closed = 1;
nodes = (
"403 522 LINE",
"51 555 LINE",
"77 508 LINE",
"86 592 LINE",
"60 574 LINE",
"403 542 LINE",
"394 587 LINE",
"384 477 LINE"
);
},
{
closed = 1;
nodes = (
"112 445 LINE",
"132 445 LINE",
"132 306 LINE",
"273 306 LINE",
"270 286 LINE",
"132 286 LINE",
"132 109 LINE",
"201 90 LINE",
"178 146 LINE",
"151 38 LINE",
"196 70 LINE",
"41 112 LINE",
"69 56 LINE",
"96 164 LINE",
"47 132 LINE",
"112 114 LINE"
);
},
{
closed = 1;
nodes = (
"131 482 LINE",
"46 482 LINE",
"46 164 LINE",
"15 48 LINE",
"191 0 LINE",
"230 146 LINE",
"197 155 LINE",
"197 241 LINE",
"312 241 LINE",
"331 350 LINE",
"197 350 LINE",
"197 476 LINE",
"430 453 LINE",
"444 604 LINE",
"41 642 LINE",
"23 446 LINE",
"-5 495 LINE"
);
}
);
width = 459;
},
{
layerId = "8F9EA7C7-FA6E-4084-B685-AEA30DABFFDA";
width = 600;
}
);
unicode = 0046;
},
{
glyphname = G;
layers = (
{
anchors = (
{
name = bottom;
position = "{297, 0}";
},
{
name = top;
position = "{297, 700}";
}
);
layerId = "C1068CC4-E81B-47E6-9D26-F0E70787A68A";
paths = (
{
closed = 1;
nodes = (
"565 188 LINE",
"579 339 LINE",
"256 369 LINE",
"318 408 LINE",
"296 169 LINE",
"254 218 LINE"
);
},
{
closed = 1;
nodes = (
"476 570 LINE",
"53 686 LINE",
"107 716 LINE",
"44 484 LINE",
"25 537 LINE",
"437 424 LINE"
);
},
{
closed = 1;
nodes = (
"406 499 LINE",
"120 578 LINE",
"125 597 LINE",
"411 518 LINE"
);
},
{
closed = 1;
nodes = (
"306 -19 LINE",
"374 0 LINE",
"374 -50 LINE",
"525 -50 LINE",
"525 199 LINE",
"374 199 LINE",
"374 156 LINE",
"294 134 LINE",
"168 171 LINE",
"167 168 LINE",
"228 168 LINE",
"228 490 LINE",
"77 490 LINE",
"77 197 LINE",
"52 204 LINE",
"15 60 LINE"
);
},
{
closed = 1;
nodes = (
"82 127 LINE",
"143 110 LINE",
"143 442 LINE",
"163 442 LINE",
"163 105 LINE",
"294 69 LINE",
"440 109 LINE",
"440 150 LINE",
"460 150 LINE",
"460 -2 LINE",
"440 -2 LINE",
"440 89 LINE",
"295 48 LINE",
"77 107 LINE"
);
},
{
closed = 1;
nodes = (
"358 273 LINE",
"364 336 LINE",
"316 296 LINE",
"565 273 LINE",
"529 322 LINE",
"519 212 LINE",
"563 253 LINE"
);
}
);
width = 594;
},
{
layerId = "8F9EA7C7-FA6E-4084-B685-AEA30DABFFDA";
width = 600;
}
);
unicode = 0047;
},
{
glyphname = H;
layers = (
{
layerId = "C1068CC4-E81B-47E6-9D26-F0E70787A68A";
paths = (
{
closed = 1;
nodes = (
"329 97 LINE",
"334 117 LINE",
"360 110 LINE",
"360 477 LINE",
"380 477 LINE",
"380 105 LINE",
"449 86 LINE",
"426 142 LINE",
"399 34 LINE",
"445 67 LINE"
);
},
{
closed = 1;
nodes = (
"439 1 LINE",
"478 147 LINE",
"445 156 LINE",
"445 526 LINE",
"294 526 LINE",
"294 165 LINE",
"263 49 LINE"
);
},
{
closed = 1;
nodes = (
"87 119 LINE",
"133 106 LINE",
"133 517 LINE",
"53 539 LINE",
"79 488 LINE",
"106 596 LINE",
"57 558 LINE",
"214 518 LINE",
"188 573 LINE",
"161 465 LINE",
"209 498 LINE",
"153 512 LINE",
"153 351 LINE",
"244 326 LINE",
"239 306 LINE",
"153 330 LINE",
"153 101 LINE",
"179 94 LINE",
"174 74 LINE",
"82 99 LINE"
);
},
{
closed = 1;
nodes = (
"206 -3 LINE",
"245 143 LINE",
"157 167 LINE",
"157 165 LINE",
"220 165 LINE",
"220 267 LINE",
"274 252 LINE",
"302 356 LINE",
"220 379 LINE",
"220 499 LINE",
"241 576 LINE",
"65 624 LINE",
"25 478 LINE",
"69 466 LINE",
"69 191 LINE",
"54 195 LINE",
"15 49 LINE"
);
}
);
width = 493;
},
{
layerId = "8F9EA7C7-FA6E-4084-B685-AEA30DABFFDA";
width = 600;
}
);
unicode = 0048;
},
{
glyphname = Hbar;
layers = (
{
layerId = "C1068CC4-E81B-47E6-9D26-F0E70787A68A";
paths = (
{
closed = 1;
nodes = (
"329 97 LINE",
"334 117 LINE",
"360 110 LINE",
"360 477 LINE",
"380 477 LINE",
"380 105 LINE",
"449 86 LINE",
"426 142 LINE",
"399 34 LINE",
"445 67 LINE"
);
},
{
closed = 1;
nodes = (
"87 119 LINE",
"133 106 LINE",
"133 517 LINE",
"53 539 LINE",
"79 488 LINE",
"106 596 LINE",
"57 558 LINE",
"214 518 LINE",
"188 573 LINE",
"161 465 LINE",
"209 498 LINE",
"153 512 LINE",
"153 351 LINE",
"244 326 LINE",
"239 306 LINE",
"153 330 LINE",
"153 101 LINE",
"179 94 LINE",
"174 74 LINE",
"82 99 LINE"
);
},
{
closed = 1;
nodes = (
"206 -3 LINE",
"245 143 LINE",
"164 165 LINE",
"220 165 LINE",
"220 267 LINE",
"274 252 LINE",
"294 326 LINE",
"294 165 LINE",
"263 49 LINE",
"439 1 LINE",
"478 147 LINE",
"445 156 LINE",
"445 351 LINE",
"472 344 LINE",
"485 390 LINE",
"445 401 LINE",
"445 526 LINE",
"294 526 LINE",
"294 443 LINE",
"220 464 LINE",
"220 499 LINE",
"241 576 LINE",
"65 624 LINE",
"25 478 LINE",
"69 466 LINE",
"69 191 LINE",
"54 195 LINE",
"15 49 LINE"
);
},
{
closed = 1;
nodes = (
"220 413 LINE",
"294 393 LINE",
"294 358 LINE",
"220 379 LINE"
);
}
);
width = 500;
},
{
layerId = "8F9EA7C7-FA6E-4084-B685-AEA30DABFFDA";
width = 600;
}
);
unicode = 0126;
},
{
glyphname = I;
layers = (
{
anchors = (
{
name = bottom;
position = "{123, 0}";
},
{
name = ogonek;
position = "{101, 52}";
},
{
name = top;
position = "{123, 700}";
},
{
name = topleft;
position = "{20, 700}";
}
);
layerId = "C1068CC4-E81B-47E6-9D26-F0E70787A68A";
paths = (
{
closed = 1;
nodes = (
"191 0 LINE",
"230 146 LINE",
"197 155 LINE",
"197 502 LINE",
"230 626 LINE",
"54 674 LINE",
"15 528 LINE",
"46 520 LINE",
"46 164 LINE",
"15 48 LINE"
);
},
{
closed = 1;
nodes = (
"112 570 LINE",
"43 589 LINE",
"68 533 LINE",
"95 641 LINE",
"48 609 LINE",
"203 567 LINE",
"177 623 LINE",
"150 515 LINE",
"197 547 LINE",
"132 565 LINE",
"132 104 LINE",
"201 85 LINE",
"177 141 LINE",
"150 33 LINE",
"196 65 LINE",
"41 107 LINE",
"68 51 LINE",
"95 159 LINE",
"47 127 LINE",
"112 109 LINE"
);
}
);
width = 245;
},
{
layerId = "8F9EA7C7-FA6E-4084-B685-AEA30DABFFDA";
width = 600;
}
);
unicode = 0049;
},
{
glyphname = J;
layers = (
{
layerId = "C1068CC4-E81B-47E6-9D26-F0E70787A68A";
paths = (
{
closed = 1;
nodes = (
"392 652 LINE",
"444 601 LINE",
"-37 646 LINE",
"33 685 LINE",
"11 446 LINE",
"-39 495 LINE",
"431 450 LINE",
"370 412 LINE"
);
},
{
closed = 1;
nodes = (
"369 522 LINE",
"48 552 LINE",
"65 506 LINE",
"73 594 LINE",
"48 572 LINE",
"368 542 LINE",
"338 590 LINE",
"328 480 LINE"
);
},
{
closed = 1;
nodes = (
"31 -118 LINE",
"189 -161 LINE",
"340 -124 LINE",
"340 465 LINE",
"189 465 LINE",
"189 -4 LINE",
"71 28 LINE"
);
},
{
closed = 1;
nodes = (
"95 -67 LINE",
"100 -47 LINE",
"255 -90 LINE",
"255 418 LINE",
"275 418 LINE",
"275 -130 LINE",
"319 -95 LINE",
"226 -114 LINE",
"313 -127 LINE"
);
}
);
width = 403;
},
{
layerId = "8F9EA7C7-FA6E-4084-B685-AEA30DABFFDA";
width = 600;
}
);
unicode = 004A;
},
{
glyphname = K;
layers = (
{
anchors = (
{
name = bottom;
position = "{235, 0}";
},
{
name = top;
position = "{235, 700}";
}
);
layerId = "C1068CC4-E81B-47E6-9D26-F0E70787A68A";
paths = (
{
closed = 1;
nodes = (
"191 0 LINE",
"230 146 LINE",
"197 155 LINE",
"197 502 LINE",
"230 626 LINE",
"54 674 LINE",
"15 528 LINE",
"46 520 LINE",
"46 164 LINE",
"15 48 LINE"
);
},
{
closed = 1;
nodes = (
"112 570 LINE",
"43 589 LINE",
"67 533 LINE",
"94 641 LINE",
"47 609 LINE",
"202 567 LINE",
"179 623 LINE",
"152 515 LINE",
"197 547 LINE",
"132 565 LINE",
"132 104 LINE",
"201 85 LINE",
"177 141 LINE",
"150 33 LINE",
"196 65 LINE",
"41 107 LINE",
"67 51 LINE",
"94 159 LINE",
"47 127 LINE",
"112 109 LINE"
);
},
{
closed = 1;
nodes = (
"271 226 LINE",
"271 165 LINE",
"240 49 LINE",
"416 1 LINE",
"455 147 LINE",
"422 156 LINE",
"422 312 LINE",
"217 432 LINE",
"143 301 LINE"
);
},
{
closed = 1;
nodes = (
"248 389 LINE",
"189 373 LINE",
"357 274 LINE",
"357 105 LINE",
"426 86 LINE",
"403 142 LINE",
"376 34 LINE",
"421 66 LINE",
"266 108 LINE",
"291 52 LINE",
"318 160 LINE",
"272 128 LINE",
"337 110 LINE",
"337 263 LINE",
"179 356 LINE",
"192 294 LINE"
);
},
{
closed = 1;
nodes = (
"357 534 LINE",
"357 426 LINE",
"337 418 LINE",
"337 526 LINE"
);
},
{
closed = 1;
nodes = (
"422 402 LINE",
"422 611 LINE",
"271 550 LINE",
"271 341 LINE"
);
}
);
width = 470;
},
{
layerId = "8F9EA7C7-FA6E-4084-B685-AEA30DABFFDA";
width = 600;
}
);
unicode = 004B;
},
{
glyphname = L;
layers = (
{
anchors = (
{
name = bottom;
position = "{214, 0}";
},
{
name = center;
position = "{214, 350}";
},
{
name = top;
position = "{154, 700}";
},
{
name = topright;
position = "{408, 700}";
}
);
layerId = "C1068CC4-E81B-47E6-9D26-F0E70787A68A";
paths = (
{
closed = 1;
nodes = (
"417 186 LINE",
"466 135 LINE",
"-15 180 LINE",
"39 219 LINE",
"17 -20 LINE",
"-17 29 LINE",
"453 -16 LINE",
"395 -54 LINE"
);
},
{
closed = 1;
nodes = (
"185 178 LINE",
"185 479 LINE",
"224 469 LINE",
"263 615 LINE",
"73 666 LINE",
"34 520 LINE",
"34 161 LINE"
);
},
{
closed = 1;
nodes = (
"100 570 LINE",
"105 589 LINE",
"197 563 LINE",
"192 544 LINE",
"120 564 LINE",
"120 218 LINE",
"100 216 LINE"
);
},
{
closed = 1;
nodes = (
"74 51 LINE",
"84 161 LINE",
"54 108 LINE",
"379 78 LINE",
"362 128 LINE",
"352 18 LINE",
"378 58 LINE",
"52 88 LINE"
);
}
);
width = 428;
},
{
layerId = "8F9EA7C7-FA6E-4084-B685-AEA30DABFFDA";
width = 600;
}
);
unicode = 004C;
},
{
glyphname = Lslash;
layers = (
{
anchors = (
{
name = bottom;
position = "{252, 0}";
},
{
name = center;
position = "{252, 350}";
},
{
name = top;
position = "{192, 700}";
},
{
name = topright;
position = "{446, 700}";
}
);
layerId = "C1068CC4-E81B-47E6-9D26-F0E70787A68A";
paths = (
{
closed = 1;
nodes = (
"455 186 LINE",
"504 135 LINE",
"23 180 LINE",
"77 219 LINE",
"55 -20 LINE",
"21 29 LINE",
"491 -16 LINE",
"433 -54 LINE"
);
},
{
closed = 1;
nodes = (
"112 51 LINE",
"122 161 LINE",
"92 108 LINE",
"417 78 LINE",
"400 128 LINE",
"390 18 LINE",
"416 58 LINE",
"90 88 LINE"
);
},
{
closed = 1;
nodes = (
"-5 455 LINE",
"27 259 LINE",
"72 266 LINE",
"72 161 LINE",
"223 178 LINE",
"223 291 LINE",
"293 303 LINE",
"276 410 LINE",
"223 401 LINE",
"223 479 LINE",
"262 469 LINE",
"301 615 LINE",
"111 666 LINE",
"72 520 LINE",
"72 376 LINE",
"-36 358 LINE"
);
},
{
closed = 1;
nodes = (
"138 343 LINE",
"138 570 LINE",
"143 589 LINE",
"235 563 LINE",
"230 544 LINE",
"158 564 LINE",
"158 346 LINE",
"242 360 LINE",
"245 340 LINE",
"158 326 LINE",
"158 218 LINE",
"138 216 LINE",
"138 322 LINE",
"61 310 LINE",
"54 359 LINE",
"36 326 LINE"
);
}
);
width = 428;
},
{
layerId = "8F9EA7C7-FA6E-4084-B685-AEA30DABFFDA";
width = 600;
}
);
unicode = 0141;
},
{
glyphname = M;
layers = (
{
layerId = "C1068CC4-E81B-47E6-9D26-F0E70787A68A";
paths = (
{
closed = 1;
nodes = (
"66 470 LINE",
"66 165 LINE",
"35 49 LINE",
"211 1 LINE",
"250 147 LINE",
"217 156 LINE",
"217 585 LINE",
"54 630 LINE",
"15 484 LINE"
);
},
{
closed = 1;
nodes = (
"95 597 LINE",
"47 564 LINE",
"152 537 LINE",
"152 105 LINE",
"221 86 LINE",
"197 142 LINE",
"170 34 LINE",
"217 66 LINE",
"62 108 LINE",
"87 52 LINE",
"114 160 LINE",
"67 128 LINE",
"132 110 LINE",
"132 520 LINE",
"43 545 LINE",
"68 489 LINE"
);
},
{
closed = 1;
nodes = (
"344 113 LINE",
"357 62 LINE",
"357 511 LINE",
"235 545 LINE",
"259 489 LINE",
"286 597 LINE",
"240 565 LINE",
"447 508 LINE",
"423 564 LINE",
"396 456 LINE",
"442 488 LINE",
"377 506 LINE",
"377 105 LINE",
"446 86 LINE",
"423 142 LINE",
"396 34 LINE",
"441 66 LINE",
"339 94 LINE"
);
},
{
closed = 1;
nodes = (
"291 461 LINE",
"291 87 LINE",
"279 44 LINE",
"436 1 LINE",
"475 147 LINE",
"442 156 LINE",
"442 447 LINE",
"475 567 LINE",
"246 630 LINE",
"206 484 LINE"
);
},
{
closed = 1;
nodes = (
"516 461 LINE",
"516 87 LINE",
"504 44 LINE",
"661 1 LINE",
"700 147 LINE",
"667 156 LINE",
"667 447 LINE",
"700 567 LINE",
"471 630 LINE",
"431 484 LINE"
);
},
{
closed = 1;
nodes = (
"569 113 LINE",
"582 62 LINE",
"582 511 LINE",
"460 545 LINE",
"484 489 LINE",
"511 597 LINE",
"465 565 LINE",
"672 508 LINE",
"648 564 LINE",
"621 456 LINE",
"667 488 LINE",
"602 506 LINE",
"602 105 LINE",
"671 86 LINE",
"648 142 LINE",
"621 34 LINE",
"666 66 LINE",
"564 94 LINE"
);
}
);
width = 715;
},
{
associatedMasterId = "C1068CC4-E81B-47E6-9D26-F0E70787A68A";
layerId = "28355F14-B961-4DD9-A8B9-8290A5D7CCFD";
name = "Aug 1 19, 13:31";
paths = (
{
closed = 1;
nodes = (
"475 147 LINE",
"256 207 LINE",
"332 238 LINE",
"269 6 LINE",
"217 61 LINE",
"436 1 LINE"
);
},
{
closed = 1;
nodes = (
"442 86 LINE",
"442 526 LINE",
"291 526 LINE",
"291 86 LINE"
);
},
{
closed = 1;
nodes = (
"700 147 LINE",
"481 207 LINE",
"557 238 LINE",
"494 6 LINE",
"442 61 LINE",
"661 1 LINE"
);
},
{
closed = 1;
nodes = (
"206 484 LINE",
"469 412 LINE",
"424 381 LINE",
"487 613 LINE",
"508 558 LINE",
"42 686 LINE",
"269 716 LINE"
);
},
{
closed = 1;
nodes = (
"667 86 LINE",
"667 526 LINE",
"516 526 LINE",
"516 86 LINE"
);
},
{
closed = 1;
nodes = (
"712 613 LINE",
"733 558 LINE",
"267 686 LINE",
"494 716 LINE",
"425 463 LINE",
"239 537 LINE",
"694 412 LINE",
"649 381 LINE"
);
},
{
closed = 1;
nodes = (
"66 470 LINE",
"66 165 LINE",
"35 49 LINE",
"211 1 LINE",
"250 147 LINE",
"217 156 LINE",
"217 585 LINE",
"54 630 LINE",
"15 484 LINE"
);
},
{
closed = 1;
nodes = (
"91 553 LINE",
"152 537 LINE",
"152 105 LINE",
"178 98 LINE",
"173 78 LINE",
"105 96 LINE",
"110 116 LINE",
"132 110 LINE",
"132 520 LINE",
"86 533 LINE"
);
}
);
width = 715;
},
{
associatedMasterId = "C1068CC4-E81B-47E6-9D26-F0E70787A68A";
layerId = "8E8FAF4C-3F6D-43DA-BA85-6F1A960DF367";
name = "Aug 1 19, 13:32";
paths = (
{
closed = 1;
nodes = (
"475 147 LINE",
"256 207 LINE",
"332 238 LINE",
"269 6 LINE",
"217 61 LINE",
"436 1 LINE"
);
},
{
closed = 1;
nodes = (
"442 86 LINE",
"442 526 LINE",
"291 526 LINE",
"291 86 LINE"
);
},
{
closed = 1;
nodes = (
"700 147 LINE",
"481 207 LINE",
"557 238 LINE",
"494 6 LINE",
"442 61 LINE",
"661 1 LINE"
);
},
{
closed = 1;
nodes = (
"487 613 LINE",
"508 558 LINE",
"42 686 LINE",
"269 716 LINE",
"200 463 LINE",
"14 537 LINE",
"469 412 LINE",
"424 381 LINE"
);
},
{
closed = 1;
nodes = (
"667 86 LINE",
"667 526 LINE",
"516 526 LINE",
"516 86 LINE"
);
},
{
closed = 1;
nodes = (
"712 613 LINE",
"733 558 LINE",
"267 686 LINE",
"494 716 LINE",
"425 463 LINE",
"239 537 LINE",
"694 412 LINE",
"649 381 LINE"
);
},
{
closed = 1;
nodes = (
"66 470 LINE",
"66 165 LINE",
"35 49 LINE",
"211 1 LINE",
"250 147 LINE",
"217 156 LINE",
"217 585 LINE",
"54 630 LINE",
"15 484 LINE"
);
},
{
closed = 1;
nodes = (
"91 553 LINE",
"173 531 LINE",
"168 511 LINE",
"152 515 LINE",
"152 105 LINE",
"178 98 LINE",
"173 78 LINE",
"105 96 LINE",
"110 116 LINE",
"132 110 LINE",
"132 521 LINE",
"86 533 LINE"
);
}
);
width = 715;
},
{
associatedMasterId = "C1068CC4-E81B-47E6-9D26-F0E70787A68A";
layerId = "6F7C9EF6-CFA4-4FB1-AD7C-41D745E6103C";
name = "Aug 1 19, 13:36";
paths = (
{
closed = 1;
nodes = (
"544 190 LINE",
"504 44 LINE",
"661 1 LINE",
"700 147 LINE"
);
},
{
closed = 1;
nodes = (
"667 86 LINE",
"667 526 LINE",
"516 526 LINE",
"516 86 LINE"
);
},
{
closed = 1;
nodes = (
"660 421 LINE",
"700 567 LINE",
"471 630 LINE",
"431 484 LINE"
);
},
{
closed = 1;
nodes = (
"66 470 LINE",
"66 165 LINE",
"35 49 LINE",
"211 1 LINE",
"250 147 LINE",
"217 156 LINE",
"217 585 LINE",
"54 630 LINE",
"15 484 LINE"
);
},
{
closed = 1;
nodes = (
"91 553 LINE",
"152 537 LINE",
"152 105 LINE",
"178 98 LINE",
"173 78 LINE",
"105 96 LINE",
"110 116 LINE",
"132 110 LINE",
"132 520 LINE",
"86 533 LINE"
);
},
{
closed = 1;
nodes = (
"344 113 LINE",
"357 110 LINE",
"357 511 LINE",
"278 533 LINE",
"283 553 LINE",
"404 520 LINE",
"399 500 LINE",
"377 506 LINE",
"377 105 LINE",
"403 98 LINE",
"398 78 LINE",
"339 94 LINE"
);
},
{
closed = 1;
nodes = (
"291 461 LINE",
"291 87 LINE",
"279 44 LINE",
"436 1 LINE",
"475 147 LINE",
"442 156 LINE",
"442 447 LINE",
"475 567 LINE",
"246 630 LINE",
"206 484 LINE"
);
}
);
width = 715;
},
{
associatedMasterId = "C1068CC4-E81B-47E6-9D26-F0E70787A68A";
layerId = "93DEE23F-8D60-4207-A1E9-C7FD7475845A";
name = "Aug 1 19, 13:36";
paths = (
{
closed = 1;
nodes = (
"544 190 LINE",
"504 44 LINE",
"661 1 LINE",
"700 147 LINE"
);
},
{
closed = 1;
nodes = (
"667 86 LINE",
"667 526 LINE",
"516 526 LINE",
"516 86 LINE"
);
},
{
closed = 1;
nodes = (
"660 421 LINE",
"700 567 LINE",
"471 630 LINE",
"431 484 LINE"
);
},
{
closed = 1;
nodes = (
"66 470 LINE",
"66 165 LINE",
"35 49 LINE",
"211 1 LINE",
"250 147 LINE",
"217 156 LINE",
"217 585 LINE",
"54 630 LINE",
"15 484 LINE"
);
},
{
closed = 1;
nodes = (
"91 553 LINE",
"152 537 LINE",
"152 105 LINE",
"178 98 LINE",
"173 78 LINE",
"105 96 LINE",
"110 116 LINE",
"132 110 LINE",
"132 520 LINE",
"86 533 LINE"
);
},
{
closed = 1;
nodes = (
"344 113 LINE",
"357 110 LINE",
"357 511 LINE",
"278 533 LINE",
"283 553 LINE",
"404 520 LINE",
"399 500 LINE",
"377 506 LINE",
"377 105 LINE",
"403 98 LINE",
"398 78 LINE",
"339 94 LINE"
);
},
{
closed = 1;
nodes = (
"291 461 LINE",
"291 87 LINE",
"279 44 LINE",
"436 1 LINE",
"475 147 LINE",
"442 156 LINE",
"442 447 LINE",
"475 567 LINE",
"246 630 LINE",
"206 484 LINE"
);
}
);
width = 715;
},
{
layerId = "8F9EA7C7-FA6E-4084-B685-AEA30DABFFDA";
width = 600;
}
);
unicode = 004D;
},
{
glyphname = N;
layers = (
{
anchors = (
{
name = bottom;
position = "{245, 0}";
},
{
name = top;
position = "{245, 700}";
}
);
layerId = "C1068CC4-E81B-47E6-9D26-F0E70787A68A";
paths = (
{
closed = 1;
nodes = (
"66 470 LINE",
"66 165 LINE",
"35 49 LINE",
"211 1 LINE",
"250 147 LINE",
"217 156 LINE",
"217 585 LINE",
"54 630 LINE",
"15 484 LINE"
);
},
{
closed = 1;
nodes = (
"95 597 LINE",
"47 564 LINE",
"152 537 LINE",
"152 105 LINE",
"221 86 LINE",
"197 142 LINE",
"170 34 LINE",
"217 66 LINE",
"62 108 LINE",
"87 52 LINE",
"114 160 LINE",
"67 128 LINE",
"132 110 LINE",
"132 520 LINE",
"43 545 LINE",
"68 489 LINE"
);
},
{
closed = 1;
nodes = (
"344 113 LINE",
"357 62 LINE",
"357 511 LINE",
"235 545 LINE",
"259 489 LINE",
"286 597 LINE",
"240 565 LINE",
"447 508 LINE",
"423 564 LINE",
"396 456 LINE",
"442 488 LINE",
"377 506 LINE",
"377 105 LINE",
"446 86 LINE",
"423 142 LINE",
"396 34 LINE",
"441 66 LINE",
"339 94 LINE"
);
},
{
closed = 1;
nodes = (
"291 461 LINE",
"291 87 LINE",
"279 44 LINE",
"436 1 LINE",
"475 147 LINE",
"442 156 LINE",
"442 447 LINE",
"475 567 LINE",
"246 630 LINE",
"206 484 LINE"
);
}
);
width = 490;
},
{
layerId = "8F9EA7C7-FA6E-4084-B685-AEA30DABFFDA";
width = 600;
}
);
unicode = 004E;
},
{
glyphname = Eng;
layers = (
{
anchors = (
{
name = bottom;
position = "{245, 0}";
},
{
name = top;
position = "{245, 700}";
}
);
layerId = "C1068CC4-E81B-47E6-9D26-F0E70787A68A";
paths = (
{
closed = 1;
nodes = (
"66 470 LINE",
"66 165 LINE",
"35 49 LINE",
"211 1 LINE",
"250 147 LINE",
"217 156 LINE",
"217 585 LINE",
"54 630 LINE",
"15 484 LINE"
);
},
{
closed = 1;
nodes = (
"95 597 LINE",
"47 564 LINE",
"152 537 LINE",
"152 105 LINE",
"221 86 LINE",
"197 142 LINE",
"170 34 LINE",
"217 66 LINE",
"62 108 LINE",
"87 52 LINE",
"114 160 LINE",
"67 128 LINE",
"132 110 LINE",
"132 520 LINE",
"43 545 LINE",
"68 489 LINE"
);
},
{
closed = 1;
nodes = (
"315 25 LINE",
"264 39 LINE",
"224 -107 LINE",
"419 -160 LINE",
"442 -76 LINE",
"442 447 LINE",
"475 567 LINE",
"246 630 LINE",
"206 484 LINE",
"291 461 LINE",
"291 2 LINE"
);
},
{
closed = 1;
nodes = (
"259 489 LINE",
"276 555 LINE",
"411 518 LINE",
"406 498 LINE",
"377 506 LINE",
"377 -60 LINE",
"394 -65 LINE",
"389 -84 LINE",
"289 -56 LINE",
"294 -37 LINE",
"357 -55 LINE",
"357 511 LINE",
"235 545 LINE"
);
}
);
width = 490;
},
{
layerId = "8F9EA7C7-FA6E-4084-B685-AEA30DABFFDA";
width = 600;
}
);
unicode = 014A;
},
{
glyphname = O;
layers = (
{
anchors = (
{
name = bottom;
position = "{221, 0}";
},
{
name = center;
position = "{221, 350}";
},
{
name = ogonek;
position = "{397, 10}";
},
{
name = top;
position = "{221, 700}";
},
{
name = topleft;
position = "{20, 700}";
},
{
name = topright;
position = "{421, 700}";
}
);
layerId = "C1068CC4-E81B-47E6-9D26-F0E70787A68A";
paths = (
{
closed = 1;
nodes = (
"15 52 LINE",
"368 -44 LINE",
"406 102 LINE",
"199 159 LINE",
"199 492 LINE",
"48 492 LINE",
"48 180 LINE"
);
},
{
closed = 1;
nodes = (
"84 122 LINE",
"113 114 LINE",
"113 481 LINE",
"133 481 LINE",
"133 108 LINE",
"341 51 LINE",
"336 32 LINE",
"79 103 LINE"
);
},
{
closed = 1;
nodes = (
"457 526 LINE",
"37 641 LINE",
"73 672 LINE",
"13 438 LINE",
"15 490 LINE",
"273 419 LINE",
"273 86 LINE",
"424 86 LINE",
"424 398 LINE"
);
},
{
closed = 1;
nodes = (
"388 456 LINE",
"359 464 LINE",
"359 97 LINE",
"339 97 LINE",
"339 470 LINE",
"75 543 LINE",
"78 489 LINE",
"105 596 LINE",
"85 560 LINE",
"393 475 LINE"
);
}
);
width = 441;
},
{
anchors = (
{
name = bottom;
position = "{221, 0}";
},
{
name = center;
position = "{221, 350}";
},
{
name = ogonek;
position = "{397, 10}";
},
{
name = top;
position = "{221, 700}";
},
{
name = topleft;
position = "{20, 700}";
},
{
name = topright;
position = "{421, 700}";
}
);
associatedMasterId = "C1068CC4-E81B-47E6-9D26-F0E70787A68A";
layerId = "A52FBA7B-1640-4AC8-A768-45C8CF9D2A5F";
name = "Aug 1 19, 14:30";
paths = (
{
closed = 1;
nodes = (
"402 467 LINE",
"359 529 LINE",
"359 97 LINE",
"339 97 LINE",
"339 514 LINE",
"382 452 LINE",
"91 533 LINE",
"96 552 LINE"
);
},
{
closed = 1;
nodes = (
"273 414 LINE",
"273 86 LINE",
"424 86 LINE",
"424 530 LINE",
"65 628 LINE",
"13 438 LINE",
"-6 491 LINE"
);
},
{
closed = 1;
nodes = (
"15 52 LINE",
"368 -44 LINE",
"406 102 LINE",
"199 159 LINE",
"199 492 LINE",
"48 492 LINE",
"48 180 LINE"
);
},
{
closed = 1;
nodes = (
"84 122 LINE",
"113 114 LINE",
"113 481 LINE",
"133 481 LINE",
"133 108 LINE",
"341 51 LINE",
"336 32 LINE",
"79 103 LINE"
);
}
);
width = 441;
},
{
layerId = "8F9EA7C7-FA6E-4084-B685-AEA30DABFFDA";
width = 600;
}
);
unicode = 004F;
},
{
glyphname = Oslash;
layers = (
{
anchors = (
{
name = bottom;
position = "{231, 0}";
},
{
name = center;
position = "{231, 350}";
},
{
name = ogonek;
position = "{407, 10}";
},
{
name = top;
position = "{231, 700}";
},
{
name = topleft;
position = "{30, 700}";
},
{
name = topright;
position = "{431, 700}";
}
);
layerId = "C1068CC4-E81B-47E6-9D26-F0E70787A68A";
paths = (
{
closed = 1;
nodes = (
"25 490 LINE",
"283 419 LINE",
"283 86 LINE",
"434 86 LINE",
"434 398 LINE",
"467 526 LINE",
"409 542 LINE",
"455 588 LINE",
"378 664 LINE",
"290 575 LINE",
"73 634 LINE",
"23 438 LINE"
);
},
{
closed = 1;
nodes = (
"91 -101 LINE",
"197 5 LINE",
"378 -44 LINE",
"416 102 LINE",
"209 159 LINE",
"209 492 LINE",
"58 492 LINE",
"58 180 LINE",
"25 52 LINE",
"77 38 LINE",
"-17 -58 LINE",
"-49 39 LINE"
);
},
{
closed = 1;
nodes = (
"180 78 LINE",
"89 103 LINE",
"94 122 LINE",
"123 114 LINE",
"123 481 LINE",
"143 481 LINE",
"143 108 LINE",
"351 51 LINE",
"346 32 LINE",
"202 72 LINE",
"98 -33 LINE",
"84 -19 LINE"
);
},
{
closed = 1;
nodes = (
"88 489 LINE",
"105 557 LINE",
"286 507 LINE",
"380 602 LINE",
"394 588 LINE",
"308 501 LINE",
"403 475 LINE",
"398 456 LINE",
"369 464 LINE",
"369 97 LINE",
"349 97 LINE",
"349 470 LINE",
"85 543 LINE"
);
},
{
closed = 1;
nodes = (
"105 557 LINE",
"115 596 LINE",
"95 560 LINE"
);
}
);
width = 482;
},
{
layerId = "8F9EA7C7-FA6E-4084-B685-AEA30DABFFDA";
width = 600;
}
);
unicode = 00D8;
},
{
glyphname = OE;
layers = (
{
anchors = (
{
name = bottom;
position = "{221, 0}";
},
{
name = center;
position = "{221, 350}";
},
{
name = ogonek;
position = "{397, 10}";
},
{
name = top;
position = "{221, 700}";
},
{
name = topleft;
position = "{20, 700}";
},
{
name = topright;
position = "{421, 700}";
}
);
layerId = "C1068CC4-E81B-47E6-9D26-F0E70787A68A";
paths = (
{
closed = 1;
nodes = (
"84 122 LINE",
"113 114 LINE",
"113 481 LINE",
"133 481 LINE",
"133 108 LINE",
"341 51 LINE",
"336 32 LINE",
"79 103 LINE"
);
},
{
closed = 1;
nodes = (
"616 543 LINE",
"614 523 LINE",
"309 552 LINE",
"313 592 LINE",
"287 574 LINE"
);
},
{
closed = 1;
nodes = (
"199 439 LINE",
"273 419 LINE",
"273 139 LINE",
"199 159 LINE"
);
},
{
closed = 1;
nodes = (
"15 490 LINE",
"48 481 LINE",
"48 180 LINE",
"15 52 LINE",
"368 -44 LINE",
"384 16 LINE",
"574 -36 LINE",
"614 110 LINE",
"424 162 LINE",
"424 228 LINE",
"539 228 LINE",
"558 379 LINE",
"424 379 LINE",
"424 500 LINE",
"409 477 LINE",
"657 453 LINE",
"671 604 LINE",
"268 642 LINE",
"262 579 LINE",
"63 634 LINE",
"13 438 LINE"
);
},
{
closed = 1;
nodes = (
"78 489 LINE",
"95 557 LINE",
"393 475 LINE",
"388 456 LINE",
"359 464 LINE",
"359 314 LINE",
"500 314 LINE",
"497 294 LINE",
"359 294 LINE",
"359 109 LINE",
"549 58 LINE",
"544 38 LINE",
"319 99 LINE",
"324 119 LINE",
"339 115 LINE",
"339 470 LINE",
"75 543 LINE"
);
},
{
closed = 1;
nodes = (
"95 557 LINE",
"105 596 LINE",
"85 560 LINE"
);
}
);
width = 686;
},
{
layerId = "8F9EA7C7-FA6E-4084-B685-AEA30DABFFDA";
width = 600;
}
);
unicode = 0152;
},
{
glyphname = P;
layers = (
{
layerId = "C1068CC4-E81B-47E6-9D26-F0E70787A68A";
paths = (
{
closed = 1;
nodes = (
"191 0 LINE",
"230 146 LINE",
"197 155 LINE",
"197 502 LINE",
"230 626 LINE",
"54 674 LINE",
"15 528 LINE",
"46 520 LINE",
"46 164 LINE",
"15 48 LINE"
);
},
{
closed = 1;
nodes = (
"112 570 LINE",
"43 589 LINE",
"68 533 LINE",
"95 641 LINE",
"47 609 LINE",
"202 567 LINE",
"179 623 LINE",
"152 515 LINE",
"197 547 LINE",
"132 565 LINE",
"132 104 LINE",
"201 85 LINE",
"177 141 LINE",
"150 33 LINE",
"196 65 LINE",
"41 107 LINE",
"67 51 LINE",
"94 159 LINE",
"47 127 LINE",
"112 109 LINE"
);
},
{
closed = 1;
nodes = (
"260 587 LINE",
"264 605 LINE",
"418 563 LINE",
"413 544 LINE",
"341 564 LINE",
"380 597 LINE",
"380 302 LINE",
"360 307 LINE",
"360 603 LINE",
"407 546 LINE"
);
},
{
closed = 1;
nodes = (
"339 225 LINE",
"238 253 LINE",
"243 272 LINE",
"363 239 LINE",
"399 285 LINE",
"257 203 LINE"
);
},
{
closed = 1;
nodes = (
"294 168 LINE",
"445 256 LINE",
"445 475 LINE",
"482 614 LINE",
"234 682 LINE",
"195 536 LINE",
"294 509 LINE",
"294 325 LINE",
"213 348 LINE",
"161 155 LINE",
"144 210 LINE"
);
}
);
width = 497;
},
{
associatedMasterId = "C1068CC4-E81B-47E6-9D26-F0E70787A68A";
layerId = "7DCCB9FC-F7E4-4C8D-9AED-69CBCBDCABEF";
name = "Aug 1 19, 15:17";
paths = (
{
closed = 1;
nodes = (
"144 210 LINE",
"294 168 LINE",
"445 284 LINE",
"183 356 LINE",
"224 387 LINE",
"161 155 LINE"
);
},
{
closed = 1;
nodes = (
"191 0 LINE",
"230 146 LINE",
"197 155 LINE",
"197 502 LINE",
"230 626 LINE",
"54 674 LINE",
"15 528 LINE",
"46 520 LINE",
"46 164 LINE",
"15 48 LINE"
);
},
{
closed = 1;
nodes = (
"112 570 LINE",
"86 577 LINE",
"91 597 LINE",
"159 579 LINE",
"154 559 LINE",
"132 565 LINE",
"132 104 LINE",
"158 97 LINE",
"153 77 LINE",
"85 95 LINE",
"90 115 LINE",
"112 109 LINE"
);
},
{
closed = 1;
nodes = (
"260 587 LINE",
"264 605 LINE",
"418 563 LINE",
"413 544 LINE",
"341 564 LINE",
"380 597 LINE",
"380 229 LINE",
"360 229 LINE",
"360 603 LINE",
"407 546 LINE"
);
},
{
closed = 1;
nodes = (
"181 540 LINE",
"294 509 LINE",
"294 168 LINE",
"445 256 LINE",
"445 475 LINE",
"482 614 LINE",
"234 682 LINE",
"181 485 LINE"
);
},
{
closed = 1;
nodes = (
"440 197 LINE",
"445 216 LINE",
"183 288 LINE",
"178 269 LINE"
);
},
{
closed = 1;
nodes = (
"568 840 LINE",
"526 682 LINE",
"581 700 LINE",
"618 839 LINE"
);
}
);
width = 497;
},
{
layerId = "8F9EA7C7-FA6E-4084-B685-AEA30DABFFDA";
width = 600;
}
);
unicode = 0050;
},
{
glyphname = Thorn;
layers = (
{
layerId = "C1068CC4-E81B-47E6-9D26-F0E70787A68A";
paths = (
{
closed = 1;
nodes = (
"191 0 LINE",
"230 146 LINE",
"197 155 LINE",
"197 612 LINE",
"230 736 LINE",
"54 784 LINE",
"15 638 LINE",
"46 630 LINE",
"46 164 LINE",
"15 48 LINE"
);
},
{
closed = 1;
nodes = (
"112 680 LINE",
"43 699 LINE",
"68 643 LINE",
"95 751 LINE",
"47 719 LINE",
"202 677 LINE",
"179 733 LINE",
"152 625 LINE",
"197 657 LINE",
"132 675 LINE",
"132 104 LINE",
"201 85 LINE",
"177 141 LINE",
"150 33 LINE",
"196 65 LINE",
"41 107 LINE",
"67 51 LINE",
"94 159 LINE",
"47 127 LINE",
"112 109 LINE"
);
},
{
closed = 1;
nodes = (
"260 527 LINE",
"264 545 LINE",
"418 503 LINE",
"413 484 LINE",
"341 504 LINE",
"380 537 LINE",
"380 302 LINE",
"360 307 LINE",
"360 543 LINE",
"407 486 LINE"
);
},
{
closed = 1;
nodes = (
"339 225 LINE",
"238 253 LINE",
"243 272 LINE",
"363 239 LINE",
"399 285 LINE",
"257 203 LINE"
);
},
{
closed = 1;
nodes = (
"294 168 LINE",
"445 256 LINE",
"445 415 LINE",
"482 554 LINE",
"234 622 LINE",
"195 476 LINE",
"294 449 LINE",
"294 325 LINE",
"213 348 LINE",
"161 155 LINE",
"144 210 LINE"
);
}
);
width = 497;
},
{
layerId = "8F9EA7C7-FA6E-4084-B685-AEA30DABFFDA";
width = 600;
}
);
unicode = 00DE;
},
{
glyphname = Q;
layers = (
{
components = (
{
name = O;
}
);
layerId = "C1068CC4-E81B-47E6-9D26-F0E70787A68A";
paths = (
{
closed = 1;
nodes = (
"302 -33 LINE",
"381 -55 LINE",
"376 -74 LINE",
"297 -52 LINE"
);
},
{
closed = 1;
nodes = (
"447 -3 LINE",
"271 45 LINE",
"232 -101 LINE",
"408 -149 LINE"
);
}
);
width = 462;
},
{
associatedMasterId = "C1068CC4-E81B-47E6-9D26-F0E70787A68A";
components = (
{
name = O;
}
);
layerId = "775035E6-F79D-450C-8E90-A2ACA3646CBE";
name = "Aug 1 19, 15:05";
paths = (
{
closed = 1;
nodes = (
"302 -33 LINE",
"381 -55 LINE",
"376 -74 LINE",
"297 -52 LINE"
);
},
{
closed = 1;
nodes = (
"447 -3 LINE",
"271 45 LINE",
"232 -101 LINE",
"408 -149 LINE"
);
}
);
width = 462;
},
{
anchors = (
{
name = bottom;
position = "{221, 0}";
},
{
name = center;
position = "{221, 350}";
},
{
name = ogonek;
position = "{397, 10}";
},
{
name = top;
position = "{221, 700}";
},
{
name = topleft;
position = "{20, 700}";
},
{
name = topright;
position = "{421, 700}";
}
);
associatedMasterId = "C1068CC4-E81B-47E6-9D26-F0E70787A68A";
layerId = "B457F79D-027C-485B-9890-DF194ADC0829";
name = "Aug 1 19, 15:06";
paths = (
{
closed = 1;
nodes = (
"457 526 LINE",
"37 641 LINE",
"73 672 LINE",
"13 438 LINE",
"15 490 LINE",
"273 419 LINE",
"273 86 LINE",
"424 86 LINE",
"424 398 LINE"
);
},
{
closed = 1;
nodes = (
"388 456 LINE",
"359 464 LINE",
"359 97 LINE",
"339 97 LINE",
"339 470 LINE",
"75 543 LINE",
"78 489 LINE",
"105 596 LINE",
"85 560 LINE",
"393 475 LINE"
);
},
{
closed = 1;
nodes = (
"255 -13 LINE",
"232 -101 LINE",
"408 -149 LINE",
"447 -3 LINE",
"383 14 LINE",
"406 102 LINE",
"199 159 LINE",
"199 492 LINE",
"48 492 LINE",
"48 180 LINE",
"15 52 LINE"
);
},
{
closed = 1;
nodes = (
"84 122 LINE",
"113 114 LINE",
"113 481 LINE",
"133 481 LINE",
"133 108 LINE",
"341 51 LINE",
"336 32 LINE",
"317 -37 LINE",
"381 -55 LINE",
"376 -74 LINE",
"293 -51 LINE",
"317 37 LINE",
"79 103 LINE"
);
}
);
width = 462;
},
{
layerId = "8F9EA7C7-FA6E-4084-B685-AEA30DABFFDA";
width = 600;
}
);
unicode = 0051;
},
{
glyphname = R;
layers = (
{
anchors = (
{
name = bottom;
position = "{242, 0}";
},
{
name = top;
position = "{242, 700}";
}
);
layerId = "C1068CC4-E81B-47E6-9D26-F0E70787A68A";
paths = (
{
closed = 1;
nodes = (
"132 459 LINE",
"132 104 LINE",
"201 85 LINE",
"177 141 LINE",
"150 33 LINE",
"196 65 LINE",
"41 107 LINE",
"68 51 LINE",
"95 159 LINE",
"47 127 LINE",
"112 109 LINE",
"112 459 LINE"
);
},
{
closed = 1;
nodes = (
"191 0 LINE",
"230 146 LINE",
"197 155 LINE",
"197 506 LINE",
"46 506 LINE",
"46 164 LINE",
"15 48 LINE"
);
},
{
closed = 1;
nodes = (
"77 534 LINE",
"87 644 LINE",
"63 598 LINE",
"418 565 LINE",
"396 620 LINE",
"386 510 LINE",
"414 545 LINE",
"61 578 LINE"
);
},
{
closed = 1;
nodes = (
"448 676 LINE",
"478 625 LINE",
"-3 670 LINE",
"45 709 LINE",
"23 470 LINE",
"-5 519 LINE",
"465 474 LINE",
"426 436 LINE"
);
},
{
closed = 1;
nodes = (
"217 492 LINE",
"166 278 LINE",
"322 235 LINE",
"279 235 LINE",
"279 142 LINE",
"254 48 LINE",
"430 0 LINE",
"469 146 LINE",
"430 157 LINE",
"430 317 LINE",
"368 334 LINE",
"430 374 LINE",
"430 486 LINE",
"279 486 LINE",
"279 359 LINE",
"162 391 LINE"
);
},
{
closed = 1;
nodes = (
"365 437 LINE",
"365 369 LINE",
"345 374 LINE",
"345 437 LINE"
);
},
{
closed = 1;
nodes = (
"365 59 LINE",
"328 116 LINE",
"440 85 LINE",
"416 141 LINE",
"389 33 LINE",
"435 65 LINE",
"280 107 LINE",
"307 51 LINE",
"334 159 LINE",
"286 127 LINE",
"394 97 LINE",
"345 64 LINE",
"345 274 LINE",
"213 310 LINE",
"221 299 LINE",
"232 342 LINE",
"211 332 LINE",
"397 281 LINE",
"380 310 LINE",
"380 254 LINE",
"403 258 LINE",
"322 280 LINE",
"365 314 LINE"
);
}
);
width = 484;
},
{
layerId = "8F9EA7C7-FA6E-4084-B685-AEA30DABFFDA";
width = 600;
}
);
unicode = 0052;
},
{
glyphname = S;
layers = (
{
anchors = (
{
name = bottom;
position = "{250, 0}";
},
{
name = top;
position = "{250, 700}";
}
);
layerId = "C1068CC4-E81B-47E6-9D26-F0E70787A68A";
paths = (
{
closed = 1;
nodes = (
"450 116 LINE",
"143 200 LINE",
"70 63 LINE",
"310 -2 LINE"
);
},
{
closed = 1;
nodes = (
"478 602 LINE",
"238 667 LINE",
"98 549 LINE",
"405 465 LINE"
);
},
{
closed = 1;
nodes = (
"145 526 LINE",
"95 515 LINE",
"262 315 LINE",
"277 366 LINE",
"194 295 LINE",
"244 305 LINE",
"78 505 LINE",
"63 456 LINE"
);
},
{
closed = 1;
nodes = (
"353 386 LINE",
"302 373 LINE",
"470 174 LINE",
"471 199 LINE",
"403 140 LINE",
"452 164 LINE",
"285 363 LINE",
"270 314 LINE"
);
},
{
closed = 1;
nodes = (
"207 247 LINE",
"260 291 LINE",
"425 95 LINE",
"484 144 LINE",
"484 260 LINE",
"336 435 LINE",
"285 390 LINE",
"130 576 LINE",
"15 478 LINE"
);
},
{
closed = 1;
nodes = (
"185 593 LINE",
"175 551 LINE",
"257 622 LINE",
"205 608 LINE",
"399 555 LINE",
"390 537 LINE"
);
},
{
closed = 1;
nodes = (
"363 72 LINE",
"373 114 LINE",
"291 43 LINE",
"343 57 LINE",
"149 110 LINE",
"158 128 LINE"
);
}
);
width = 499;
},
{
layerId = "8F9EA7C7-FA6E-4084-B685-AEA30DABFFDA";
width = 600;
}
);
unicode = 0053;
},
{
glyphname = T;
layers = (
{
anchors = (
{
name = bottom;
position = "{159, 28}";
},
{
name = center;
position = "{224, 350}";
},
{
name = top;
position = "{224, 700}";
}
);
layerId = "C1068CC4-E81B-47E6-9D26-F0E70787A68A";
paths = (
{
closed = 1;
nodes = (
"436 652 LINE",
"466 601 LINE",
"-15 646 LINE",
"33 685 LINE",
"11 446 LINE",
"-17 495 LINE",
"453 450 LINE",
"414 412 LINE"
);
},
{
closed = 1;
nodes = (
"300 146 LINE",
"124 194 LINE",
"85 48 LINE",
"261 0 LINE"
);
},
{
closed = 1;
nodes = (
"150 164 LINE",
"189 174 LINE",
"267 174 LINE",
"267 472 LINE",
"116 472 LINE",
"116 164 LINE"
);
},
{
closed = 1;
nodes = (
"377 543 LINE",
"375 523 LINE",
"70 552 LINE",
"74 592 LINE",
"48 574 LINE"
);
},
{
closed = 1;
nodes = (
"247 141 LINE",
"220 33 LINE",
"266 65 LINE",
"111 107 LINE",
"138 51 LINE",
"165 159 LINE",
"117 127 LINE",
"271 85 LINE"
);
},
{
closed = 1;
nodes = (
"202 424 LINE",
"202 223 LINE",
"182 223 LINE",
"182 424 LINE"
);
}
);
width = 447;
},
{
layerId = "8F9EA7C7-FA6E-4084-B685-AEA30DABFFDA";
width = 600;
}
);
unicode = 0054;
},
{
glyphname = Tbar;
layers = (
{
anchors = (
{
name = bottom;
position = "{159, 28}";
},
{
name = center;
position = "{224, 350}";
},
{
name = top;
position = "{224, 700}";
}
);
layerId = "C1068CC4-E81B-47E6-9D26-F0E70787A68A";
paths = (
{
closed = 1;
nodes = (
"436 652 LINE",
"466 601 LINE",
"-15 646 LINE",
"33 685 LINE",
"11 446 LINE",
"-17 495 LINE",
"453 450 LINE",
"414 412 LINE"
);
},
{
closed = 1;
nodes = (
"300 146 LINE",
"124 194 LINE",
"85 48 LINE",
"261 0 LINE"
);
},
{
closed = 1;
nodes = (
"377 543 LINE",
"375 523 LINE",
"70 552 LINE",
"74 592 LINE",
"48 574 LINE"
);
},
{
closed = 1;
nodes = (
"247 141 LINE",
"220 33 LINE",
"266 65 LINE",
"111 107 LINE",
"138 51 LINE",
"165 159 LINE",
"117 127 LINE",
"271 85 LINE"
);
},
{
closed = 1;
nodes = (
"202 424 LINE",
"202 223 LINE",
"182 223 LINE",
"182 424 LINE"
);
},
{
closed = 1;
nodes = (
"69 302 LINE",
"116 294 LINE",
"116 164 LINE",
"150 164 LINE",
"189 174 LINE",
"267 174 LINE",
"267 269 LINE",
"326 259 LINE",
"334 307 LINE",
"267 318 LINE",
"267 472 LINE",
"116 472 LINE",
"116 343 LINE",
"77 350 LINE"
);
}
);
width = 447;
},
{
layerId = "8F9EA7C7-FA6E-4084-B685-AEA30DABFFDA";
width = 600;
}
);
unicode = 0166;
},
{
glyphname = U;
layers = (
{
anchors = (
{
name = bottom;
position = "{245, 0}";
},
{
name = ogonek;
position = "{351, 52}";
},
{
name = top;
position = "{245, 700}";
},
{
name = topright;
position = "{470, 700}";
}
);
layerId = "C1068CC4-E81B-47E6-9D26-F0E70787A68A";
paths = (
{
closed = 1;
nodes = (
"424 160 LINE",
"424 465 LINE",
"455 581 LINE",
"279 629 LINE",
"240 483 LINE",
"273 474 LINE",
"273 45 LINE",
"436 0 LINE",
"475 146 LINE"
);
},
{
closed = 1;
nodes = (
"395 33 LINE",
"443 66 LINE",
"338 93 LINE",
"338 525 LINE",
"269 544 LINE",
"293 488 LINE",
"320 596 LINE",
"273 564 LINE",
"428 522 LINE",
"403 578 LINE",
"376 470 LINE",
"423 502 LINE",
"358 520 LINE",
"358 110 LINE",
"447 85 LINE",
"422 141 LINE"
);
},
{
closed = 1;
nodes = (
"146 517 LINE",
"133 568 LINE",
"133 119 LINE",
"255 85 LINE",
"231 141 LINE",
"204 33 LINE",
"250 65 LINE",
"43 122 LINE",
"67 66 LINE",
"94 174 LINE",
"48 142 LINE",
"113 124 LINE",
"113 525 LINE",
"44 544 LINE",
"67 488 LINE",
"94 596 LINE",
"49 564 LINE",
"151 536 LINE"
);
},
{
closed = 1;
nodes = (
"199 169 LINE",
"199 543 LINE",
"211 586 LINE",
"54 629 LINE",
"15 483 LINE",
"48 474 LINE",
"48 183 LINE",
"15 63 LINE",
"244 0 LINE",
"284 146 LINE"
);
}
);
width = 490;
},
{
layerId = "8F9EA7C7-FA6E-4084-B685-AEA30DABFFDA";
width = 600;
}
);
unicode = 0055;
},
{
glyphname = V;
layers = (
{
layerId = "C1068CC4-E81B-47E6-9D26-F0E70787A68A";
paths = (
{
closed = 1;
nodes = (
"308 517 LINE",
"389 495 LINE",
"385 475 LINE",
"333 489 LINE",
"413 112 LINE",
"442 179 LINE",
"345 122 LINE",
"395 101 LINE",
"311 495 LINE",
"303 497 LINE"
);
},
{
closed = 1;
nodes = (
"46 520 LINE",
"46 121 LINE",
"34 96 LINE",
"240 0 LINE",
"429 110 LINE",
"458 216 LINE",
"417 407 LINE",
"453 544 LINE",
"277 592 LINE",
"238 446 LINE",
"291 432 LINE",
"259 425 LINE",
"319 145 LINE",
"300 186 LINE",
"256 160 LINE",
"197 187 LINE",
"197 502 LINE",
"230 626 LINE",
"54 674 LINE",
"15 528 LINE"
);
},
{
closed = 1;
nodes = (
"85 599 LINE",
"166 577 LINE",
"162 557 LINE",
"132 565 LINE",
"132 144 LINE",
"250 89 LINE",
"280 107 LINE",
"288 89 LINE",
"251 67 LINE",
"112 132 LINE",
"112 570 LINE",
"80 579 LINE"
);
}
);
width = 473;
},
{
associatedMasterId = "C1068CC4-E81B-47E6-9D26-F0E70787A68A";
layerId = "DAF11490-47A6-4EB0-AD44-42230BE40A14";
name = "Aug 2 19, 15:04";
paths = (
{
closed = 1;
nodes = (
"251 67 LINE",
"112 132 LINE",
"120 150 LINE",
"315 59 LINE",
"359 130 LINE"
);
},
{
closed = 1;
nodes = (
"80 579 LINE",
"85 599 LINE",
"166 577 LINE",
"162 557 LINE",
"132 565 LINE",
"132 141 LINE",
"112 132 LINE",
"112 570 LINE"
);
},
{
closed = 1;
nodes = (
"308 517 LINE",
"389 495 LINE",
"385 475 LINE",
"333 489 LINE",
"413 112 LINE",
"442 179 LINE",
"345 122 LINE",
"395 101 LINE",
"311 495 LINE",
"303 497 LINE"
);
},
{
closed = 1;
nodes = (
"46 520 LINE",
"46 120 LINE",
"35 96 LINE",
"240 0 LINE",
"429 110 LINE",
"458 216 LINE",
"417 407 LINE",
"453 544 LINE",
"277 592 LINE",
"238 446 LINE",
"291 432 LINE",
"259 425 LINE",
"309 191 LINE",
"255 159 LINE",
"197 187 LINE",
"197 502 LINE",
"230 626 LINE",
"54 674 LINE",
"15 528 LINE"
);
},
{
closed = 1;
nodes = (
"251 73 LINE",
"241 90 LINE",
"388 176 LINE",
"398 159 LINE"
);
}
);
width = 600;
},
{
layerId = "8F9EA7C7-FA6E-4084-B685-AEA30DABFFDA";
width = 600;
}
);
unicode = 0056;
},
{
glyphname = W;
layers = (
{
anchors = (
{
name = bottom;
position = "{332, 0}";
},
{
name = top;
position = "{332, 700}";
}
);
layerId = "C1068CC4-E81B-47E6-9D26-F0E70787A68A";
paths = (
{
closed = 1;
nodes = (
"385 -39 LINE",
"401 19 LINE",
"609 -38 LINE",
"649 107 LINE",
"649 445 LINE",
"602 626 LINE",
"455 586 LINE",
"498 426 LINE",
"498 149 LINE",
"424 169 LINE",
"424 543 LINE",
"436 586 LINE",
"279 629 LINE",
"240 483 LINE",
"273 474 LINE",
"273 183 LINE",
"264 151 LINE",
"199 169 LINE",
"199 543 LINE",
"211 586 LINE",
"54 629 LINE",
"15 483 LINE",
"48 474 LINE",
"48 183 LINE",
"3 17 LINE",
"-18 72 LINE"
);
},
{
closed = 1;
nodes = (
"87 552 LINE",
"134 539 LINE",
"134 119 LINE",
"339 63 LINE",
"339 523 LINE",
"307 533 LINE",
"312 552 LINE",
"359 539 LINE",
"359 119 LINE",
"564 63 LINE",
"564 427 LINE",
"531 554 LINE",
"550 559 LINE",
"584 429 LINE",
"584 57 LINE",
"580 38 LINE",
"359 99 LINE",
"359 57 LINE",
"355 38 LINE",
"83 113 LINE",
"88 132 LINE",
"114 125 LINE",
"114 523 LINE",
"82 533 LINE"
);
}
);
width = 664;
},
{
anchors = (
{
name = bottom;
position = "{332, 0}";
},
{
name = top;
position = "{332, 700}";
}
);
associatedMasterId = "C1068CC4-E81B-47E6-9D26-F0E70787A68A";
layerId = "7970FA54-D588-4C17-A395-93F577E3B9FA";
name = "Aug 2 19, 23:27";
paths = (
{
closed = 1;
nodes = (
"385 -39 LINE",
"401 19 LINE",
"609 -38 LINE",
"649 107 LINE",
"649 445 LINE",
"602 626 LINE",
"455 586 LINE",
"498 426 LINE",
"498 149 LINE",
"424 169 LINE",
"424 543 LINE",
"436 586 LINE",
"279 629 LINE",
"240 483 LINE",
"273 474 LINE",
"273 183 LINE",
"264 151 LINE",
"199 169 LINE",
"199 543 LINE",
"211 586 LINE",
"54 629 LINE",
"15 483 LINE",
"48 474 LINE",
"48 183 LINE",
"3 17 LINE",
"-18 72 LINE"
);
},
{
closed = 1;
nodes = (
"87 552 LINE",
"134 539 LINE",
"134 119 LINE",
"339 63 LINE",
"339 104 LINE",
"308 113 LINE",
"313 132 LINE",
"339 125 LINE",
"339 523 LINE",
"307 533 LINE",
"312 552 LINE",
"359 539 LINE",
"359 119 LINE",
"564 63 LINE",
"564 427 LINE",
"531 554 LINE",
"550 559 LINE",
"584 429 LINE",
"584 57 LINE",
"580 38 LINE",
"359 99 LINE",
"359 57 LINE",
"355 38 LINE",
"83 113 LINE",
"88 132 LINE",
"114 125 LINE",
"114 523 LINE",
"82 533 LINE"
);
}
);
width = 600;
},
{
layerId = "8F9EA7C7-FA6E-4084-B685-AEA30DABFFDA";
width = 600;
}
);
unicode = 0057;
},
{
glyphname = X;
layers = (
{
layerId = "C1068CC4-E81B-47E6-9D26-F0E70787A68A";
paths = (
{
closed = 1;
nodes = (
"208 0 LINE",
"328 203 LINE",
"447 0 LINE",
"640 51 LINE",
"599 197 LINE",
"519 176 LINE",
"415 353 LINE",
"516 524 LINE",
"596 503 LINE",
"637 649 LINE",
"444 700 LINE",
"327 502 LINE",
"211 700 LINE",
"18 649 LINE",
"59 503 LINE",
"139 524 LINE",
"240 353 LINE",
"136 176 LINE",
"56 197 LINE",
"15 51 LINE"
);
},
{
closed = 1;
nodes = (
"85 121 LINE",
"168 100 LINE",
"317 353 LINE",
"171 601 LINE",
"92 580 LINE",
"87 600 LINE",
"160 619 LINE",
"151 634 LINE",
"170 639 LINE",
"328 371 LINE",
"485 639 LINE",
"504 634 LINE",
"495 619 LINE",
"568 600 LINE",
"563 580 LINE",
"484 601 LINE",
"338 353 LINE",
"487 100 LINE",
"570 121 LINE",
"574 102 LINE",
"498 82 LINE",
"504 71 LINE",
"485 66 LINE",
"328 334 LINE",
"170 66 LINE",
"151 71 LINE",
"157 82 LINE",
"81 102 LINE"
);
}
);
width = 655;
},
{
layerId = "8F9EA7C7-FA6E-4084-B685-AEA30DABFFDA";
width = 600;
}
);
unicode = 0058;
},
{
glyphname = Y;
layers = (
{
anchors = (
{
name = bottom;
position = "{235, -298}";
},
{
name = top;
position = "{235, 700}";
},
{
name = topleft;
position = "{20, 700}";
}
);
layerId = "C1068CC4-E81B-47E6-9D26-F0E70787A68A";
paths = (
{
closed = 1;
nodes = (
"146 517 LINE",
"133 568 LINE",
"133 119 LINE",
"255 85 LINE",
"231 141 LINE",
"204 33 LINE",
"250 65 LINE",
"43 122 LINE",
"67 66 LINE",
"94 174 LINE",
"48 142 LINE",
"113 124 LINE",
"113 525 LINE",
"44 544 LINE",
"67 488 LINE",
"94 596 LINE",
"49 564 LINE",
"151 536 LINE"
);
},
{
closed = 1;
nodes = (
"199 169 LINE",
"199 543 LINE",
"211 586 LINE",
"54 629 LINE",
"15 483 LINE",
"48 474 LINE",
"48 183 LINE",
"15 63 LINE",
"244 0 LINE",
"284 146 LINE"
);
},
{
closed = 1;
nodes = (
"386 -245 LINE",
"424 -97 LINE",
"424 466 LINE",
"455 582 LINE",
"279 630 LINE",
"240 484 LINE",
"273 475 LINE",
"273 -57 LINE",
"111 -15 LINE",
"64 -199 LINE",
"11 -143 LINE"
);
},
{
closed = 1;
nodes = (
"142 -90 LINE",
"341 -145 LINE",
"338 525 LINE",
"269 544 LINE",
"293 488 LINE",
"320 596 LINE",
"273 564 LINE",
"428 522 LINE",
"403 578 LINE",
"376 470 LINE",
"423 502 LINE",
"358 520 LINE",
"361 -150 LINE",
"356 -169 LINE",
"137 -109 LINE"
);
}
);
width = 470;
},
{
layerId = "8F9EA7C7-FA6E-4084-B685-AEA30DABFFDA";
width = 600;
}
);
unicode = 0059;
},
{
glyphname = Z;
layers = (
{
anchors = (
{
name = bottom;
position = "{252, 0}";
},
{
name = center;
position = "{252, 350}";
},
{
name = top;
position = "{252, 700}";
}
);
layerId = "C1068CC4-E81B-47E6-9D26-F0E70787A68A";
paths = (
{
closed = 1;
nodes = (
"56 678 LINE",
"54 633 LINE",
"15 489 LINE",
"162 449 LINE",
"170 477 LINE",
"449 460 LINE",
"457 611 LINE",
"10 638 LINE"
);
},
{
closed = 1;
nodes = (
"108 579 LINE",
"127 574 LINE",
"125 565 LINE",
"450 545 LINE",
"409 593 LINE",
"403 483 LINE",
"448 525 LINE",
"119 546 LINE",
"110 513 LINE",
"91 518 LINE"
);
},
{
closed = 1;
nodes = (
"395 48 LINE",
"376 53 LINE",
"378 62 LINE",
"53 82 LINE",
"82 34 LINE",
"88 144 LINE",
"55 102 LINE",
"384 81 LINE",
"393 114 LINE",
"412 109 LINE"
);
},
{
closed = 1;
nodes = (
"449 -8 LINE",
"488 138 LINE",
"341 178 LINE",
"334 151 LINE",
"220 158 LINE",
"420 438 LINE",
"296 525 LINE",
"42 168 LINE",
"34 18 LINE"
);
},
{
closed = 1;
nodes = (
"80 198 LINE",
"106 145 LINE",
"330 460 LINE",
"273 480 LINE",
"364 416 LINE",
"350 455 LINE",
"122 133 LINE",
"168 132 LINE"
);
}
);
width = 503;
},
{
layerId = "8F9EA7C7-FA6E-4084-B685-AEA30DABFFDA";
width = 600;
}
);
unicode = 005A;
},
{
glyphname = a;
layers = (
{
anchors = (
{
name = bottom;
position = "{224, 0}";
},
{
name = ogonek;
position = "{295, 52}";
},
{
name = top;
position = "{222, 590}";
}
);
layerId = "C1068CC4-E81B-47E6-9D26-F0E70787A68A";
paths = (
{
closed = 1;
nodes = (
"426 143 LINE",
"374 157 LINE",
"374 290 LINE",
"394 285 LINE",
"432 432 LINE",
"135 510 LINE",
"98 364 LINE",
"223 331 LINE",
"223 150 LINE",
"196 49 LINE",
"387 -3 LINE"
);
},
{
closed = 1;
nodes = (
"245 143 LINE",
"177 162 LINE",
"177 392 LINE",
"146 392 LINE",
"133 392 LINE",
"26 392 LINE",
"26 90 LINE",
"15 49 LINE",
"206 -3 LINE"
);
},
{
closed = 1;
nodes = (
"77 94 LINE",
"82 113 LINE",
"92 110 LINE",
"92 346 LINE",
"105 346 LINE",
"112 346 LINE",
"112 105 LINE",
"180 86 LINE",
"175 67 LINE"
);
},
{
closed = 1;
nodes = (
"260 97 LINE",
"265 116 LINE",
"289 110 LINE",
"289 375 LINE",
"160 411 LINE",
"165 429 LINE",
"366 373 LINE",
"361 354 LINE",
"309 369 LINE",
"309 104 LINE",
"362 90 LINE",
"357 71 LINE"
);
}
);
width = 447;
},
{
anchors = (
{
name = bottom;
position = "{224, 0}";
},
{
name = ogonek;
position = "{295, 52}";
},
{
name = top;
position = "{222, 590}";
}
);
associatedMasterId = "C1068CC4-E81B-47E6-9D26-F0E70787A68A";
layerId = "68C00B69-E161-4A1E-91F9-1C091276F484";
name = "Aug 11 19, 12:11";
paths = (
{
closed = 1;
nodes = (
"426 143 LINE",
"374 157 LINE",
"374 290 LINE",
"394 285 LINE",
"432 432 LINE",
"135 510 LINE",
"98 364 LINE",
"223 331 LINE",
"223 150 LINE",
"196 49 LINE",
"387 -3 LINE"
);
},
{
closed = 1;
nodes = (
"245 143 LINE",
"177 162 LINE",
"177 392 LINE",
"26 392 LINE",
"26 90 LINE",
"15 49 LINE",
"206 -3 LINE"
);
},
{
closed = 1;
nodes = (
"190 127 LINE",
"235 71 LINE",
"112 105 LINE",
"112 356 LINE",
"92 356 LINE",
"92 110 LINE",
"60 119 LINE",
"86 126 LINE",
"67 52 LINE",
"55 98 LINE",
"231 53 LINE",
"163 20 LINE"
);
},
{
closed = 1;
nodes = (
"377 66 LINE",
"218 107 LINE",
"249 52 LINE",
"276 160 LINE",
"224 128 LINE",
"289 110 LINE",
"289 375 LINE",
"130 419 LINE",
"150 370 LINE",
"177 477 LINE",
"134 438 LINE",
"389 367 LINE",
"377 416 LINE",
"350 309 LINE",
"385 348 LINE",
"309 369 LINE",
"309 105 LINE",
"383 84 LINE",
"372 131 LINE",
"345 24 LINE"
);
}
);
width = 447;
},
{
anchors = (
{
name = bottom;
position = "{224, 0}";
},
{
name = ogonek;
position = "{295, 52}";
},
{
name = top;
position = "{222, 590}";
}
);
layerId = "8F9EA7C7-FA6E-4084-B685-AEA30DABFFDA";
paths = (
{
closed = 1;
nodes = (
"426 143 LINE",
"374 157 LINE",
"374 290 LINE",
"394 285 LINE",
"432 432 LINE",
"135 510 LINE",
"98 364 LINE",
"223 331 LINE",
"223 150 LINE",
"196 49 LINE",
"387 -3 LINE"
);
},
{
closed = 1;
nodes = (
"242 144 LINE",
"177 162 LINE",
"177 345 LINE",
"118 374 LINE",
"106 392 LINE",
"26 392 LINE",
"26 90 LINE",
"15 49 LINE",
"202 -2 LINE"
);
},
{
closed = 1;
nodes = (
"39 63 LINE",
"46 87 LINE",
"46 110 LINE",
"46 372 LINE",
"101 372 LINE",
"157 352 LINE",
"157 147 LINE",
"217 130 LINE",
"188 23 LINE"
);
},
{
closed = 1;
nodes = (
"220 63 LINE",
"243 147 LINE",
"243 165 LINE",
"243 346 LINE",
"122 378 LINE",
"149 486 LINE",
"408 418 LINE",
"380 309 LINE",
"354 316 LINE",
"354 142 LINE",
"402 129 LINE",
"373 22 LINE"
);
}
);
width = 447;
},
{
associatedMasterId = "8F9EA7C7-FA6E-4084-B685-AEA30DABFFDA";
layerId = "F7B20BC2-6A32-4C28-A21B-6028810AE71C";
name = "Aug 25 19, 01:35";
paths = (
{
closed = 1;
nodes = (
"426 143 LINE",
"374 157 LINE",
"374 290 LINE",
"394 285 LINE",
"432 432 LINE",
"135 510 LINE",
"98 364 LINE",
"223 331 LINE",
"223 150 LINE",
"196 49 LINE",
"387 -3 LINE"
);
},
{
closed = 1;
nodes = (
"245 143 LINE",
"177 162 LINE",
"177 392 LINE",
"26 392 LINE",
"26 90 LINE",
"15 49 LINE",
"206 -3 LINE"
);
},
{
closed = 1;
nodes = (
"39 63 LINE",
"46 87 LINE",
"46 110 LINE",
"46 372 LINE",
"157 372 LINE",
"157 147 LINE",
"221 129 LINE",
"192 22 LINE"
);
},
{
closed = 1;
nodes = (
"220 63 LINE",
"243 147 LINE",
"243 165 LINE",
"243 346 LINE",
"122 378 LINE",
"149 486 LINE",
"408 418 LINE",
"380 309 LINE",
"354 316 LINE",
"354 142 LINE",
"402 129 LINE",
"373 22 LINE"
);
}
);
width = 600;
},
{
anchors = (
{
name = bottom;
position = "{224, 0}";
},
{
name = ogonek;
position = "{295, 52}";
},
{
name = top;
position = "{222, 590}";
}
);
associatedMasterId = "8F9EA7C7-FA6E-4084-B685-AEA30DABFFDA";
layerId = "25A5C353-F1B9-458B-9A4C-C6B593F22216";
name = "Aug 30 19, 01:29";
paths = (
{
closed = 1;
nodes = (
"426 143 LINE",
"374 157 LINE",
"374 290 LINE",
"394 285 LINE",
"432 432 LINE",
"135 510 LINE",
"98 364 LINE",
"223 331 LINE",
"223 150 LINE",
"196 49 LINE",
"387 -3 LINE"
);
},
{
closed = 1;
nodes = (
"245 143 LINE",
"177 162 LINE",
"177 392 LINE",
"26 392 LINE",
"26 90 LINE",
"15 49 LINE",
"206 -3 LINE"
);
},
{
closed = 1;
nodes = (
"39 63 LINE",
"46 87 LINE",
"46 110 LINE",
"46 372 LINE",
"157 372 LINE",
"157 147 LINE",
"221 129 LINE",
"192 22 LINE"
);
},
{
closed = 1;
nodes = (
"220 63 LINE",
"243 147 LINE",
"243 165 LINE",
"243 346 LINE",
"122 378 LINE",
"149 486 LINE",
"408 418 LINE",
"380 309 LINE",
"354 316 LINE",
"354 142 LINE",
"402 129 LINE",
"373 22 LINE"
);
}
);
width = 447;
}
);
unicode = 0061;
},
{
glyphname = ae;
layers = (
{
anchors = (
{
name = bottom;
position = "{224, 0}";
},
{
name = ogonek;
position = "{295, 52}";
},
{
name = top;
position = "{222, 590}";
}
);
layerId = "C1068CC4-E81B-47E6-9D26-F0E70787A68A";
paths = (
{
closed = 1;
nodes = (
"206 -3 LINE",
"245 143 LINE",
"177 162 LINE",
"177 392 LINE",
"26 392 LINE",
"26 90 LINE",
"15 49 LINE"
);
},
{
closed = 1;
nodes = (
"180 86 LINE",
"175 67 LINE",
"55 98 LINE",
"67 52 LINE",
"86 126 LINE",
"60 119 LINE",
"92 110 LINE",
"92 356 LINE",
"112 356 LINE",
"112 105 LINE"
);
},
{
closed = 1;
nodes = (
"260 383 LINE",
"130 419 LINE",
"150 370 LINE",
"177 477 LINE",
"134 438 LINE",
"389 367 LINE",
"276 446 LINE"
);
},
{
closed = 1;
nodes = (
"284 162 LINE",
"255 120 LINE",
"290 110 LINE",
"290 356 LINE",
"310 356 LINE",
"310 208 LINE",
"450 246 LINE",
"428 260 LINE",
"448 181 LINE",
"455 227 LINE",
"310 187 LINE",
"310 105 LINE",
"487 56 LINE",
"483 101 LINE",
"451 -5 LINE",
"480 37 LINE",
"249 100 LINE",
"257 54 LINE"
);
},
{
closed = 1;
nodes = (
"501 315 LINE",
"355 440 LINE",
"347 399 LINE",
"418 482 LINE",
"368 455 LINE",
"513 331 LINE",
"524 376 LINE",
"453 293 LINE"
);
},
{
closed = 1;
nodes = (
"223 331 LINE",
"223 150 LINE",
"196 56 LINE",
"496 -28 LINE",
"535 118 LINE",
"379 160 LINE",
"494 192 LINE",
"478 250 LINE",
"575 365 LINE",
"389 523 LINE",
"334 458 LINE",
"135 510 LINE",
"98 364 LINE"
);
},
{
closed = 1;
nodes = (
"374 344 LINE",
"368 342 LINE",
"433 287 LINE",
"374 271 LINE"
);
}
);
width = 590;
},
{
layerId = "8F9EA7C7-FA6E-4084-B685-AEA30DABFFDA";
width = 600;
}
);
unicode = 00E6;
},
{
glyphname = b;
layers = (
{
layerId = "C1068CC4-E81B-47E6-9D26-F0E70787A68A";
paths = (
{
closed = 1;
nodes = (
"388 92 LINE",
"197 183 LINE",
"197 502 LINE",
"230 626 LINE",
"54 674 LINE",
"15 528 LINE",
"46 520 LINE",
"46 142 LINE",
"25 96 LINE",
"230 0 LINE"
);
},
{
closed = 1;
nodes = (
"96 141 LINE",
"103 157 LINE",
"112 153 LINE",
"112 572 LINE",
"79 581 LINE",
"84 599 LINE",
"167 576 LINE",
"162 558 LINE",
"132 566 LINE",
"132 144 LINE",
"270 79 LINE",
"251 68 LINE"
);
},
{
closed = 1;
nodes = (
"419 110 LINE",
"448 216 LINE",
"416 362 LINE",
"251 440 LINE",
"188 303 LINE",
"285 257 LINE",
"324 77 LINE",
"328 57 LINE"
);
},
{
closed = 1;
nodes = (
"370 150 LINE",
"337 298 LINE",
"255 336 LINE",
"263 354 LINE",
"354 312 LINE",
"390 149 LINE",
"382 144 LINE",
"373 139 LINE"
);
}
);
width = 463;
},
{
layerId = "8F9EA7C7-FA6E-4084-B685-AEA30DABFFDA";
paths = (
{
closed = 1;
nodes = (
"388 92 LINE",
"197 183 LINE",
"197 502 LINE",
"230 626 LINE",
"54 674 LINE",
"15 528 LINE",
"46 520 LINE",
"46 142 LINE",
"25 96 LINE",
"230 0 LINE"
);
},
{
closed = 1;
nodes = (
"51 106 LINE",
"66 138 LINE",
"66 152 LINE",
"66 535 LINE",
"40 542 LINE",
"68 649 LINE",
"206 612 LINE",
"177 505 LINE",
"177 491 LINE",
"177 170 LINE",
"345 90 LINE",
"229 23 LINE"
);
},
{
closed = 1;
nodes = (
"419 110 LINE",
"448 216 LINE",
"416 362 LINE",
"251 440 LINE",
"188 303 LINE",
"285 257 LINE",
"316 114 LINE",
"374 84 LINE"
);
},
{
closed = 1;
nodes = (
"337 110 LINE",
"302 271 LINE",
"214 313 LINE",
"261 413 LINE",
"399 348 LINE",
"427 217 LINE",
"402 123 LINE",
"360 99 LINE"
);
}
);
width = 600;
},
{
associatedMasterId = "C1068CC4-E81B-47E6-9D26-F0E70787A68A";
layerId = "CDC42633-D834-49D8-A53A-6A83D4E676FF";
name = "Aug 30 19, 01:46";
paths = (
{
closed = 1;
nodes = (
"91 131 LINE",
"108 168 LINE",
"90 166 LINE",
"112 155 LINE",
"112 572 LINE",
"51 589 LINE",
"66 534 LINE",
"95 638 LINE",
"56 607 LINE",
"194 569 LINE",
"179 625 LINE",
"152 518 LINE",
"189 550 LINE",
"132 566 LINE",
"132 145 LINE",
"304 63 LINE",
"278 84 LINE",
"226 54 LINE",
"279 55 LINE",
"85 145 LINE"
);
},
{
closed = 1;
nodes = (
"46 520 LINE",
"46 142 LINE",
"25 96 LINE",
"230 0 LINE",
"388 92 LINE",
"197 183 LINE",
"197 502 LINE",
"230 626 LINE",
"54 674 LINE",
"15 528 LINE"
);
},
{
closed = 1;
nodes = (
"285 257 LINE",
"328 57 LINE",
"419 110 LINE",
"448 216 LINE",
"416 362 LINE",
"251 440 LINE",
"188 303 LINE"
);
},
{
closed = 1;
nodes = (
"235 345 LINE",
"239 299 LINE",
"283 399 LINE",
"245 362 LINE",
"354 312 LINE",
"396 123 LINE",
"428 171 LINE",
"332 115 LINE",
"379 111 LINE",
"337 298 LINE"
);
}
);
width = 463;
}
);
unicode = 0062;
},
{
glyphname = c;
layers = (
{
anchors = (
{
name = bottom;
position = "{167, 0}";
},
{
name = top;
position = "{197, 550}";
}
);
layerId = "C1068CC4-E81B-47E6-9D26-F0E70787A68A";
paths = (
{
closed = 1;
nodes = (
"374 441 LINE",
"77 519 LINE",
"40 373 LINE",
"336 294 LINE"
);
},
{
closed = 1;
nodes = (
"60 438 LINE",
"93 382 LINE",
"120 489 LINE",
"65 457 LINE",
"349 378 LINE",
"322 434 LINE",
"295 327 LINE",
"344 359 LINE"
);
},
{
closed = 1;
nodes = (
"234 -11 LINE",
"379 72 LINE",
"303 202 LINE",
"214 151 LINE",
"177 161 LINE",
"177 352 LINE",
"26 352 LINE",
"26 90 LINE",
"15 49 LINE"
);
},
{
closed = 1;
nodes = (
"82 116 LINE",
"92 113 LINE",
"92 315 LINE",
"112 315 LINE",
"112 108 LINE",
"215 81 LINE",
"291 125 LINE",
"302 107 LINE",
"216 58 LINE",
"77 96 LINE"
);
}
);
width = 394;
},
{
layerId = "8F9EA7C7-FA6E-4084-B685-AEA30DABFFDA";
width = 600;
}
);
unicode = 0063;
},
{
glyphname = d;
layers = (
{
anchors = (
{
name = bottom;
position = "{205, -70}";
},
{
name = center;
position = "{205, 250}";
},
{
name = top;
position = "{167, 700}";
},
{
name = topright;
position = "{390, 500}";
}
);
layerId = "C1068CC4-E81B-47E6-9D26-F0E70787A68A";
paths = (
{
closed = 1;
nodes = (
"208 7 LINE",
"236 49 LINE",
"51 100 LINE",
"66 52 LINE",
"84 125 LINE",
"58 119 LINE",
"92 110 LINE",
"92 343 LINE",
"112 343 LINE",
"112 105 LINE",
"246 68 LINE",
"235 115 LINE"
);
},
{
closed = 1;
nodes = (
"252 -14 LINE",
"290 133 LINE",
"176 163 LINE",
"176 392 LINE",
"25 392 LINE",
"25 88 LINE",
"15 50 LINE"
);
},
{
closed = 1;
nodes = (
"220 619 LINE",
"161 621 LINE",
"331 201 LINE",
"331 134 LINE",
"311 134 LINE",
"311 195 LINE",
"142 613 LINE",
"118 577 LINE"
);
},
{
closed = 1;
nodes = (
"244 188 LINE",
"244 86 LINE",
"395 86 LINE",
"395 218 LINE",
"213 667 LINE",
"73 610 LINE"
);
}
);
width = 410;
},
{
layerId = "8F9EA7C7-FA6E-4084-B685-AEA30DABFFDA";
width = 600;
}
);
unicode = 0064;
},
{
glyphname = dcroat;
layers = (
{
anchors = (
{
name = bottom;
position = "{205, -70}";
},
{
name = center;
position = "{205, 250}";
},
{
name = top;
position = "{167, 700}";
},
{
name = topright;
position = "{390, 500}";
}
);
layerId = "C1068CC4-E81B-47E6-9D26-F0E70787A68A";
paths = (
{
closed = 1;
nodes = (
"208 7 LINE",
"236 49 LINE",
"51 100 LINE",
"66 52 LINE",
"84 125 LINE",
"58 119 LINE",
"92 110 LINE",
"92 343 LINE",
"112 343 LINE",
"112 105 LINE",
"246 68 LINE",
"235 115 LINE"
);
},
{
closed = 1;
nodes = (
"252 -14 LINE",
"290 133 LINE",
"176 163 LINE",
"176 392 LINE",
"25 392 LINE",
"25 88 LINE",
"15 50 LINE"
);
},
{
closed = 1;
nodes = (
"23 633 LINE",
"75 441 LINE",
"135 458 LINE",
"244 188 LINE",
"244 86 LINE",
"395 86 LINE",
"395 218 LINE",
"281 498 LINE",
"307 505 LINE",
"279 609 LINE",
"241 599 LINE",
"213 667 LINE",
"73 610 LINE",
"94 558 LINE",
"2 533 LINE"
);
},
{
closed = 1;
nodes = (
"174 534 LINE",
"142 613 LINE",
"118 577 LINE",
"220 619 LINE",
"161 621 LINE",
"194 540 LINE",
"270 561 LINE",
"233 600 LINE",
"260 493 LINE",
"273 542 LINE",
"201 522 LINE",
"331 201 LINE",
"331 134 LINE",
"311 134 LINE",
"311 195 LINE",
"181 516 LINE",
"108 496 LINE",
"103 515 LINE"
);
}
);
width = 410;
},
{
layerId = "8F9EA7C7-FA6E-4084-B685-AEA30DABFFDA";
width = 600;
}
);
unicode = 0111;
},
{
glyphname = e;
layers = (
{
anchors = (
{
name = bottom;
position = "{200, 0}";
},
{
name = ogonek;
position = "{149, 52}";
},
{
name = top;
position = "{180, 580}";
}
);
layerId = "C1068CC4-E81B-47E6-9D26-F0E70787A68A";
paths = (
{
closed = 1;
nodes = (
"384 365 LINE",
"198 523 LINE",
"101 407 LINE",
"287 249 LINE"
);
},
{
closed = 1;
nodes = (
"305 -28 LINE",
"344 118 LINE",
"188 160 LINE",
"303 192 LINE",
"275 296 LINE",
"183 271 LINE",
"183 392 LINE",
"32 392 LINE",
"32 115 LINE",
"15 51 LINE"
);
},
{
closed = 1;
nodes = (
"93 162 LINE",
"64 120 LINE",
"99 110 LINE",
"99 344 LINE",
"119 344 LINE",
"119 208 LINE",
"259 246 LINE",
"237 260 LINE",
"257 181 LINE",
"264 227 LINE",
"119 187 LINE",
"119 105 LINE",
"296 56 LINE",
"292 101 LINE",
"260 -5 LINE",
"289 37 LINE",
"58 100 LINE",
"66 54 LINE"
);
},
{
closed = 1;
nodes = (
"310 315 LINE",
"164 440 LINE",
"156 399 LINE",
"227 482 LINE",
"177 455 LINE",
"322 331 LINE",
"333 376 LINE",
"262 293 LINE"
);
}
);
width = 399;
},
{
layerId = "8F9EA7C7-FA6E-4084-B685-AEA30DABFFDA";
width = 600;
}
);
unicode = 0065;
},
{
glyphname = f;
layers = (
{
layerId = "C1068CC4-E81B-47E6-9D26-F0E70787A68A";
paths = (
{
closed = 1;
nodes = (
"247 469 LINE",
"273 513 LINE",
"41 535 LINE",
"63 488 LINE",
"72 572 LINE",
"48 554 LINE",
"271 533 LINE",
"257 579 LINE"
);
},
{
closed = 1;
nodes = (
"100 415 LINE",
"120 415 LINE",
"120 305 LINE",
"203 305 LINE",
"200 285 LINE",
"120 285 LINE",
"120 69 LINE",
"100 74 LINE"
);
},
{
closed = 1;
nodes = (
"118 462 LINE",
"34 462 LINE",
"34 44 LINE",
"185 2 LINE",
"185 241 LINE",
"240 241 LINE",
"259 350 LINE",
"185 350 LINE",
"185 456 LINE",
"294 445 LINE",
"308 596 LINE",
"29 622 LINE",
"15 472 LINE"
);
}
);
width = 323;
},
{
layerId = "8F9EA7C7-FA6E-4084-B685-AEA30DABFFDA";
width = 600;
}
);
unicode = 0066;
},
{
glyphname = g;
layers = (
{
anchors = (
{
name = bottom;
position = "{222, -260}";
},
{
name = top;
position = "{222, 580}";
}
);
layerId = "C1068CC4-E81B-47E6-9D26-F0E70787A68A";
paths = (
{
closed = 1;
nodes = (
"198 81 LINE",
"190 127 LINE",
"163 20 LINE",
"190 64 LINE",
"46 101 LINE",
"67 52 LINE",
"86 129 LINE",
"54 121 LINE",
"92 110 LINE",
"92 344 LINE",
"112 344 LINE",
"112 105 LINE"
);
},
{
closed = 1;
nodes = (
"302 -196 LINE",
"329 -155 LINE",
"99 -92 LINE",
"109 -138 LINE",
"136 -31 LINE",
"105 -73 LINE",
"289 -124 LINE",
"289 375 LINE",
"136 417 LINE",
"147 368 LINE",
"174 475 LINE",
"142 436 LINE",
"385 369 LINE",
"378 416 LINE",
"351 309 LINE",
"372 352 LINE",
"309 369 LINE",
"309 -129 LINE",
"331 -136 LINE",
"329 -89 LINE"
);
},
{
closed = 1;
nodes = (
"206 -3 LINE",
"245 143 LINE",
"120 177 LINE",
"177 177 LINE",
"177 392 LINE",
"26 392 LINE",
"26 177 LINE",
"49 177 LINE",
"15 49 LINE"
);
},
{
closed = 1;
nodes = (
"334 -223 LINE",
"374 -77 LINE",
"374 290 LINE",
"394 285 LINE",
"432 432 LINE",
"135 510 LINE",
"98 364 LINE",
"223 331 LINE",
"223 -35 LINE",
"96 0 LINE",
"44 -191 LINE",
"36 -141 LINE"
);
}
);
width = 447;
},
{
layerId = "8F9EA7C7-FA6E-4084-B685-AEA30DABFFDA";
width = 600;
}
);
unicode = 0067;
},
{
glyphname = h;
layers = (
{
layerId = "C1068CC4-E81B-47E6-9D26-F0E70787A68A";
paths = (
{
closed = 1;
nodes = (
"206 -3 LINE",
"245 143 LINE",
"220 150 LINE",
"220 640 LINE",
"69 579 LINE",
"69 191 LINE",
"54 195 LINE",
"15 49 LINE"
);
},
{
closed = 1;
nodes = (
"94 163 LINE",
"44 131 LINE",
"133 106 LINE",
"133 553 LINE",
"153 561 LINE",
"153 101 LINE",
"222 82 LINE",
"194 138 LINE",
"167 30 LINE",
"217 62 LINE",
"39 111 LINE",
"67 55 LINE"
);
},
{
closed = 1;
nodes = (
"272 335 LINE",
"272 0 LINE",
"423 61 LINE",
"423 390 LINE",
"438 446 LINE",
"240 500 LINE",
"201 354 LINE"
);
},
{
closed = 1;
nodes = (
"280 468 LINE",
"230 436 LINE",
"415 385 LINE",
"386 441 LINE",
"359 333 LINE",
"411 367 LINE",
"358 379 LINE",
"358 86 LINE",
"338 78 LINE",
"338 385 LINE",
"225 416 LINE",
"253 360 LINE"
);
}
);
width = 453;
},
{
layerId = "8F9EA7C7-FA6E-4084-B685-AEA30DABFFDA";
width = 600;
}
);
unicode = 0068;
},
{
glyphname = hbar;
layers = (
{
layerId = "C1068CC4-E81B-47E6-9D26-F0E70787A68A";
paths = (
{
closed = 1;
nodes = (
"272 335 LINE",
"272 0 LINE",
"423 61 LINE",
"423 390 LINE",
"438 446 LINE",
"240 500 LINE",
"201 354 LINE"
);
},
{
closed = 1;
nodes = (
"280 468 LINE",
"230 436 LINE",
"415 385 LINE",
"386 441 LINE",
"359 333 LINE",
"411 367 LINE",
"358 379 LINE",
"358 86 LINE",
"338 78 LINE",
"338 385 LINE",
"225 416 LINE",
"253 360 LINE"
);
},
{
closed = 1;
nodes = (
"-3 693 LINE",
"29 497 LINE",
"69 503 LINE",
"69 191 LINE",
"54 195 LINE",
"15 49 LINE",
"206 -3 LINE",
"245 143 LINE",
"220 150 LINE",
"220 529 LINE",
"295 541 LINE",
"278 648 LINE",
"220 638 LINE",
"220 700 LINE",
"69 639 LINE",
"69 613 LINE",
"-34 596 LINE"
);
},
{
closed = 1;
nodes = (
"67 55 LINE",
"83 120 LINE",
"133 106 LINE",
"133 563 LINE",
"69 553 LINE",
"66 573 LINE",
"133 584 LINE",
"133 613 LINE",
"153 621 LINE",
"153 587 LINE",
"237 601 LINE",
"240 581 LINE",
"153 567 LINE",
"153 101 LINE",
"183 93 LINE",
"178 73 LINE",
"39 111 LINE"
);
}
);
width = 453;
},
{
layerId = "8F9EA7C7-FA6E-4084-B685-AEA30DABFFDA";
width = 600;
}
);
unicode = 0127;
},
{
glyphname = idotless;
layers = (
{
anchors = (
{
name = bottom;
position = "{123, -50}";
},
{
name = ogonek;
position = "{101, 52}";
},
{
name = top;
position = "{117, 500}";
}
);
layerId = "C1068CC4-E81B-47E6-9D26-F0E70787A68A";
paths = (
{
closed = 1;
nodes = (
"191 0 LINE",
"230 146 LINE",
"197 155 LINE",
"197 312 LINE",
"230 436 LINE",
"54 484 LINE",
"15 338 LINE",
"46 330 LINE",
"46 164 LINE",
"15 48 LINE"
);
},
{
closed = 1;
nodes = (
"112 380 LINE",
"43 399 LINE",
"67 343 LINE",
"94 451 LINE",
"47 419 LINE",
"202 377 LINE",
"177 433 LINE",
"150 325 LINE",
"197 357 LINE",
"132 375 LINE",
"132 104 LINE",
"201 85 LINE",
"177 141 LINE",
"150 33 LINE",
"197 65 LINE",
"42 107 LINE",
"66 51 LINE",
"93 159 LINE",
"47 127 LINE",
"112 109 LINE"
);
}
);
width = 245;
},
{
layerId = "8F9EA7C7-FA6E-4084-B685-AEA30DABFFDA";
width = 600;
}
);
unicode = 0131;
},
{
glyphname = jdotless;
layers = (
{
anchors = (
{
name = bottom;
position = "{123, -200}";
},
{
name = top;
position = "{117, 500}";
}
);
layerId = "C1068CC4-E81B-47E6-9D26-F0E70787A68A";
paths = (
{
closed = 1;
nodes = (
"112 -96 LINE",
"112 380 LINE",
"43 399 LINE",
"67 343 LINE",
"94 451 LINE",
"47 419 LINE",
"202 377 LINE",
"178 433 LINE",
"151 325 LINE",
"197 357 LINE",
"132 375 LINE",
"132 -91 LINE"
);
},
{
closed = 1;
nodes = (
"46 330 LINE",
"46 -161 LINE",
"197 -124 LINE",
"197 312 LINE",
"230 436 LINE",
"54 484 LINE",
"15 338 LINE"
);
}
);
width = 245;
},
{
layerId = "8F9EA7C7-FA6E-4084-B685-AEA30DABFFDA";
width = 600;
}
);
unicode = 0237;
},
{
glyphname = k;
layers = (
{
anchors = (
{
name = bottom;
position = "{208, 0}";
},
{
name = top;
position = "{208, 700}";
}
);
layerId = "C1068CC4-E81B-47E6-9D26-F0E70787A68A";
paths = (
{
closed = 1;
nodes = (
"206 350 LINE",
"335 274 LINE",
"335 86 LINE",
"315 78 LINE",
"315 263 LINE",
"196 333 LINE"
);
},
{
closed = 1;
nodes = (
"112 554 LINE",
"132 562 LINE",
"132 104 LINE",
"201 85 LINE",
"177 141 LINE",
"150 33 LINE",
"196 65 LINE",
"41 107 LINE",
"66 51 LINE",
"93 159 LINE",
"47 127 LINE",
"112 109 LINE"
);
},
{
closed = 1;
nodes = (
"239 396 LINE",
"322 425 LINE",
"229 446 LINE",
"239 419 LINE",
"382 503 LINE",
"355 519 LINE",
"355 421 LINE",
"397 489 LINE"
);
},
{
closed = 1;
nodes = (
"191 0 LINE",
"230 146 LINE",
"197 155 LINE",
"197 256 LINE",
"249 226 LINE",
"249 0 LINE",
"400 61 LINE",
"400 312 LINE",
"268 389 LINE",
"332 375 LINE",
"400 415 LINE",
"400 590 LINE",
"197 470 LINE",
"197 640 LINE",
"46 579 LINE",
"46 164 LINE",
"15 48 LINE"
);
}
);
width = 415;
},
{
anchors = (
{
name = bottom;
position = "{208, 0}";
},
{
name = top;
position = "{208, 700}";
}
);
associatedMasterId = "C1068CC4-E81B-47E6-9D26-F0E70787A68A";
layerId = "30443B1D-762A-4B57-8FE1-43A2955D1607";
name = "Aug 1 19, 13:13";
paths = (
{
closed = 1;
nodes = (
"206 350 LINE",
"335 274 LINE",
"335 100 LINE",
"315 92 LINE",
"315 263 LINE",
"196 333 LINE"
);
},
{
closed = 1;
nodes = (
"112 539 LINE",
"132 547 LINE",
"132 104 LINE",
"158 97 LINE",
"153 77 LINE",
"85 95 LINE",
"90 115 LINE",
"112 109 LINE"
);
},
{
closed = 1;
nodes = (
"278 419 LINE",
"229 430 LINE",
"239 419 LINE",
"382 503 LINE",
"358 519 LINE",
"358 466 LINE"
);
},
{
closed = 1;
nodes = (
"191 0 LINE",
"230 146 LINE",
"197 155 LINE",
"197 256 LINE",
"249 226 LINE",
"249 0 LINE",
"400 61 LINE",
"400 312 LINE",
"268 389 LINE",
"332 375 LINE",
"400 415 LINE",
"400 590 LINE",
"197 470 LINE",
"197 640 LINE",
"46 579 LINE",
"46 164 LINE",
"15 48 LINE"
);
}
);
width = 415;
},
{
layerId = "8F9EA7C7-FA6E-4084-B685-AEA30DABFFDA";
width = 600;
}
);
unicode = 006B;
},
{
glyphname = l;
layers = (
{
anchors = (
{
name = bottom;
position = "{118, 0}";
},
{
name = center;
position = "{118, 400}";
},
{
name = top;
position = "{118, 700}";
},
{
name = topright;
position = "{215, 800}";
}
);
layerId = "C1068CC4-E81B-47E6-9D26-F0E70787A68A";
paths = (
{
closed = 1;
nodes = (
"126 105 LINE",
"197 85 LINE",
"172 141 LINE",
"145 33 LINE",
"192 65 LINE",
"37 107 LINE",
"61 51 LINE",
"88 159 LINE",
"43 128 LINE",
"106 109 LINE",
"106 588 LINE",
"126 593 LINE"
);
},
{
closed = 1;
nodes = (
"186 0 LINE",
"225 146 LINE",
"192 155 LINE",
"192 659 LINE",
"41 622 LINE",
"41 164 LINE",
"10 48 LINE"
);
}
);
width = 235;
},
{
layerId = "8F9EA7C7-FA6E-4084-B685-AEA30DABFFDA";
width = 600;
}
);
unicode = 006C;
},
{
glyphname = lslash;
layers = (
{
anchors = (
{
name = bottom;
position = "{151, 0}";
},
{
name = center;
position = "{151, 400}";
},
{
name = top;
position = "{151, 700}";
},
{
name = topright;
position = "{248, 800}";
}
);
layerId = "C1068CC4-E81B-47E6-9D26-F0E70787A68A";
paths = (
{
closed = 1;
nodes = (
"0 510 LINE",
"32 314 LINE",
"74 321 LINE",
"74 164 LINE",
"43 48 LINE",
"219 0 LINE",
"258 146 LINE",
"225 155 LINE",
"225 346 LINE",
"298 358 LINE",
"281 465 LINE",
"225 455 LINE",
"225 659 LINE",
"74 622 LINE",
"74 430 LINE",
"-31 413 LINE"
);
},
{
closed = 1;
nodes = (
"139 397 LINE",
"139 588 LINE",
"159 593 LINE",
"159 400 LINE",
"247 415 LINE",
"250 395 LINE",
"159 380 LINE",
"159 105 LINE",
"194 95 LINE",
"188 75 LINE",
"106 97 LINE",
"111 118 LINE",
"139 109 LINE",
"139 377 LINE",
"66 365 LINE",
"59 414 LINE",
"41 381 LINE"
);
}
);
width = 313;
},
{
layerId = "8F9EA7C7-FA6E-4084-B685-AEA30DABFFDA";
width = 600;
}
);
unicode = 0142;
},
{
glyphname = m;
layers = (
{
layerId = "C1068CC4-E81B-47E6-9D26-F0E70787A68A";
paths = (
{
closed = 1;
nodes = (
"191 0 LINE",
"230 146 LINE",
"197 155 LINE",
"197 312 LINE",
"230 436 LINE",
"54 484 LINE",
"15 338 LINE",
"46 330 LINE",
"46 164 LINE",
"15 48 LINE"
);
},
{
closed = 1;
nodes = (
"112 380 LINE",
"43 399 LINE",
"67 343 LINE",
"94 451 LINE",
"48 419 LINE",
"203 377 LINE",
"178 433 LINE",
"151 325 LINE",
"197 357 LINE",
"132 375 LINE",
"132 104 LINE",
"201 85 LINE",
"178 141 LINE",
"151 33 LINE",
"196 65 LINE",
"41 107 LINE",
"66 51 LINE",
"93 159 LINE",
"47 127 LINE",
"112 109 LINE"
);
},
{
closed = 1;
nodes = (
"406 0 LINE",
"445 146 LINE",
"412 155 LINE",
"412 316 LINE",
"445 440 LINE",
"199 507 LINE",
"240 550 LINE",
"177 318 LINE",
"158 360 LINE",
"261 334 LINE",
"261 164 LINE",
"230 48 LINE"
);
},
{
closed = 1;
nodes = (
"327 384 LINE",
"231 410 LINE",
"240 366 LINE",
"267 474 LINE",
"240 429 LINE",
"417 381 LINE",
"393 437 LINE",
"366 329 LINE",
"412 361 LINE",
"347 379 LINE",
"347 104 LINE",
"416 85 LINE",
"392 141 LINE",
"365 33 LINE",
"411 65 LINE",
"256 107 LINE",
"282 51 LINE",
"309 159 LINE",
"262 127 LINE",
"327 109 LINE"
);
},
{
closed = 1;
nodes = (
"621 0 LINE",
"660 146 LINE",
"627 155 LINE",
"627 316 LINE",
"660 440 LINE",
"414 507 LINE",
"455 550 LINE",
"392 318 LINE",
"373 360 LINE",
"476 334 LINE",
"476 164 LINE",
"445 48 LINE"
);
},
{
closed = 1;
nodes = (
"542 384 LINE",
"446 410 LINE",
"455 366 LINE",
"482 474 LINE",
"455 429 LINE",
"632 381 LINE",
"608 437 LINE",
"581 329 LINE",
"627 361 LINE",
"562 379 LINE",
"562 104 LINE",
"631 85 LINE",
"607 141 LINE",
"580 33 LINE",
"626 65 LINE",
"471 107 LINE",
"497 51 LINE",
"524 159 LINE",
"477 127 LINE",
"542 109 LINE"
);
}
);
width = 675;
},
{
layerId = "8F9EA7C7-FA6E-4084-B685-AEA30DABFFDA";
width = 600;
}
);
unicode = 006D;
},
{
glyphname = n;
layers = (
{
anchors = (
{
name = bottom;
position = "{230, 0}";
},
{
name = top;
position = "{230, 550}";
}
);
layerId = "C1068CC4-E81B-47E6-9D26-F0E70787A68A";
paths = (
{
closed = 1;
nodes = (
"191 0 LINE",
"230 146 LINE",
"197 155 LINE",
"197 312 LINE",
"230 436 LINE",
"54 484 LINE",
"15 338 LINE",
"46 330 LINE",
"46 164 LINE",
"15 48 LINE"
);
},
{
closed = 1;
nodes = (
"112 380 LINE",
"43 399 LINE",
"67 343 LINE",
"94 451 LINE",
"48 419 LINE",
"203 377 LINE",
"178 433 LINE",
"151 325 LINE",
"197 357 LINE",
"132 375 LINE",
"132 104 LINE",
"201 85 LINE",
"178 141 LINE",
"151 33 LINE",
"196 65 LINE",
"41 107 LINE",
"66 51 LINE",
"93 159 LINE",
"47 127 LINE",
"112 109 LINE"
);
},
{
closed = 1;
nodes = (
"406 0 LINE",
"445 146 LINE",
"412 155 LINE",
"412 316 LINE",
"445 440 LINE",
"199 507 LINE",
"240 550 LINE",
"177 318 LINE",
"158 360 LINE",
"261 334 LINE",
"261 164 LINE",
"230 48 LINE"
);
},
{
closed = 1;
nodes = (
"327 384 LINE",
"231 410 LINE",
"240 366 LINE",
"267 474 LINE",
"240 429 LINE",
"417 381 LINE",
"393 437 LINE",
"366 329 LINE",
"412 361 LINE",
"347 379 LINE",
"347 104 LINE",
"416 85 LINE",
"392 141 LINE",
"365 33 LINE",
"411 65 LINE",
"256 107 LINE",
"282 51 LINE",
"309 159 LINE",
"262 127 LINE",
"327 109 LINE"
);
}
);
width = 460;
},
{
layerId = "8F9EA7C7-FA6E-4084-B685-AEA30DABFFDA";
width = 600;
}
);
unicode = 006E;
},
{
glyphname = eng;
layers = (
{
anchors = (
{
name = bottom;
position = "{230, 0}";
},
{
name = top;
position = "{230, 550}";
}
);
layerId = "C1068CC4-E81B-47E6-9D26-F0E70787A68A";
paths = (
{
closed = 1;
nodes = (
"191 0 LINE",
"230 146 LINE",
"197 155 LINE",
"197 312 LINE",
"230 436 LINE",
"54 484 LINE",
"15 338 LINE",
"46 330 LINE",
"46 164 LINE",
"15 48 LINE"
);
},
{
closed = 1;
nodes = (
"112 380 LINE",
"43 399 LINE",
"67 343 LINE",
"94 451 LINE",
"48 419 LINE",
"203 377 LINE",
"178 433 LINE",
"151 325 LINE",
"197 357 LINE",
"132 375 LINE",
"132 104 LINE",
"201 85 LINE",
"178 141 LINE",
"151 33 LINE",
"196 65 LINE",
"41 107 LINE",
"66 51 LINE",
"93 159 LINE",
"47 127 LINE",
"112 109 LINE"
);
},
{
closed = 1;
nodes = (
"261 334 LINE",
"261 32 LINE",
"234 39 LINE",
"194 -107 LINE",
"389 -160 LINE",
"412 -76 LINE",
"412 316 LINE",
"445 440 LINE",
"226 500 LINE",
"177 318 LINE",
"158 360 LINE"
);
},
{
closed = 1;
nodes = (
"359 -84 LINE",
"259 -56 LINE",
"264 -37 LINE",
"327 -55 LINE",
"327 384 LINE",
"250 405 LINE",
"255 425 LINE",
"417 381 LINE",
"393 437 LINE",
"366 329 LINE",
"412 361 LINE",
"347 379 LINE",
"347 -60 LINE",
"364 -65 LINE"
);
}
);
width = 460;
},
{
layerId = "8F9EA7C7-FA6E-4084-B685-AEA30DABFFDA";
width = 600;
}
);
unicode = 014B;
},
{
glyphname = o;
layers = (
{
anchors = (
{
name = bottom;
position = "{213, 0}";
},
{
name = center;
position = "{213, 250}";
},
{
name = ogonek;
position = "{382, 10}";
},
{
name = top;
position = "{243, 580}";
},
{
name = topright;
position = "{404, 500}";
}
);
layerId = "C1068CC4-E81B-47E6-9D26-F0E70787A68A";
paths = (
{
closed = 1;
nodes = (
"276 -22 LINE",
"243 -48 LINE",
"306 184 LINE",
"306 126 LINE",
"177 162 LINE",
"177 392 LINE",
"26 392 LINE",
"26 90 LINE",
"15 49 LINE"
);
},
{
closed = 1;
nodes = (
"248 67 LINE",
"236 114 LINE",
"209 7 LINE",
"243 50 LINE",
"59 97 LINE",
"66 52 LINE",
"85 128 LINE",
"63 118 LINE",
"92 110 LINE",
"92 343 LINE",
"112 343 LINE",
"112 105 LINE"
);
},
{
closed = 1;
nodes = (
"235 335 LINE",
"235 86 LINE",
"386 86 LINE",
"386 360 LINE",
"409 444 LINE",
"108 527 LINE",
"60 348 LINE",
"-5 401 LINE"
);
},
{
closed = 1;
nodes = (
"150 498 LINE",
"113 458 LINE",
"362 388 LINE",
"357 434 LINE",
"330 327 LINE",
"357 369 LINE",
"321 379 LINE",
"321 136 LINE",
"301 136 LINE",
"301 385 LINE",
"111 438 LINE",
"123 391 LINE"
);
}
);
width = 424;
},
{
layerId = "8F9EA7C7-FA6E-4084-B685-AEA30DABFFDA";
width = 600;
}
);
unicode = 006F;
},
{
glyphname = oslash;
layers = (
{
anchors = (
{
name = bottom;
position = "{214, 0}";
},
{
name = center;
position = "{214, 250}";
},
{
name = ogonek;
position = "{383, 10}";
},
{
name = top;
position = "{244, 580}";
},
{
name = topright;
position = "{405, 500}";
}
);
layerId = "C1068CC4-E81B-47E6-9D26-F0E70787A68A";
paths = (
{
closed = 1;
nodes = (
"92 -85 LINE",
"180 4 LINE",
"253 -15 LINE",
"292 130 LINE",
"178 162 LINE",
"178 392 LINE",
"27 392 LINE",
"27 90 LINE",
"16 49 LINE",
"61 37 LINE",
"-14 -38 LINE",
"-26 32 LINE"
);
},
{
closed = 1;
nodes = (
"67 52 LINE",
"82 113 LINE",
"93 110 LINE",
"93 343 LINE",
"113 343 LINE",
"113 105 LINE",
"227 73 LINE",
"222 56 LINE",
"179 68 LINE",
"87 -25 LINE",
"73 -11 LINE",
"188 104 LINE",
"179 68 LINE",
"62 101 LINE"
);
},
{
closed = 1;
nodes = (
"236 335 LINE",
"236 86 LINE",
"387 86 LINE",
"387 360 LINE",
"410 444 LINE",
"361 458 LINE",
"409 506 LINE",
"332 582 LINE",
"242 490 LINE",
"109 527 LINE",
"61 348 LINE",
"-4 401 LINE"
);
},
{
closed = 1;
nodes = (
"139 451 LINE",
"238 423 LINE",
"337 522 LINE",
"351 508 LINE",
"260 417 LINE",
"363 388 LINE",
"358 434 LINE",
"331 327 LINE",
"358 369 LINE",
"322 379 LINE",
"322 136 LINE",
"302 136 LINE",
"302 385 LINE",
"134 432 LINE"
);
}
);
width = 425;
},
{
layerId = "8F9EA7C7-FA6E-4084-B685-AEA30DABFFDA";
width = 600;
}
);
unicode = 00F8;
},
{
glyphname = oe;
layers = (
{
anchors = (
{
name = bottom;
position = "{213, 0}";
},
{
name = center;
position = "{213, 250}";
},
{
name = ogonek;
position = "{382, 10}";
},
{
name = top;
position = "{243, 580}";
},
{
name = topright;
position = "{404, 500}";
}
);
layerId = "C1068CC4-E81B-47E6-9D26-F0E70787A68A";
paths = (
{
closed = 1;
nodes = (
"248 67 LINE",
"238 114 LINE",
"209 7 LINE",
"243 50 LINE",
"59 97 LINE",
"66 52 LINE",
"85 128 LINE",
"63 118 LINE",
"92 110 LINE",
"92 344 LINE",
"112 344 LINE",
"112 105 LINE"
);
},
{
closed = 1;
nodes = (
"150 498 LINE",
"113 458 LINE",
"296 406 LINE",
"270 466 LINE",
"243 359 LINE",
"293 387 LINE",
"111 438 LINE",
"123 391 LINE"
);
},
{
closed = 1;
nodes = (
"297 162 LINE",
"266 120 LINE",
"301 110 LINE",
"301 344 LINE",
"321 344 LINE",
"321 208 LINE",
"461 246 LINE",
"439 260 LINE",
"459 181 LINE",
"466 227 LINE",
"321 187 LINE",
"321 105 LINE",
"498 56 LINE",
"495 119 LINE",
"462 -5 LINE",
"491 37 LINE",
"260 100 LINE",
"268 54 LINE"
);
},
{
closed = 1;
nodes = (
"512 315 LINE",
"366 440 LINE",
"358 399 LINE",
"429 482 LINE",
"379 455 LINE",
"524 331 LINE",
"535 376 LINE",
"464 293 LINE"
);
},
{
closed = 1;
nodes = (
"252 -15 LINE",
"266 38 LINE",
"507 -28 LINE",
"546 118 LINE",
"390 160 LINE",
"505 192 LINE",
"477 296 LINE",
"385 271 LINE",
"385 364 LINE",
"234 364 LINE",
"234 146 LINE",
"177 162 LINE",
"177 392 LINE",
"26 392 LINE",
"26 90 LINE",
"15 49 LINE"
);
},
{
closed = 1;
nodes = (
"235 335 LINE",
"363 356 LINE",
"489 249 LINE",
"586 365 LINE",
"400 523 LINE",
"348 461 LINE",
"108 527 LINE",
"69 381 LINE"
);
}
);
width = 601;
},
{
anchors = (
{
name = bottom;
position = "{213, 0}";
},
{
name = center;
position = "{213, 250}";
},
{
name = ogonek;
position = "{382, 10}";
},
{
name = top;
position = "{243, 580}";
},
{
name = topright;
position = "{404, 500}";
}
);
associatedMasterId = "C1068CC4-E81B-47E6-9D26-F0E70787A68A";
layerId = "496F50B8-F2FF-4A70-8142-AC25FE65671F";
name = "Aug 3 19, 14:13";
paths = (
{
closed = 1;
nodes = (
"248 67 LINE",
"238 114 LINE",
"209 7 LINE",
"243 50 LINE",
"59 97 LINE",
"66 52 LINE",
"85 128 LINE",
"63 118 LINE",
"92 110 LINE",
"92 344 LINE",
"112 344 LINE",
"112 105 LINE"
);
},
{
closed = 1;
nodes = (
"150 498 LINE",
"113 458 LINE",
"362 388 LINE",
"357 434 LINE",
"330 327 LINE",
"357 369 LINE",
"111 438 LINE",
"123 391 LINE"
);
},
{
closed = 1;
nodes = (
"297 162 LINE",
"266 120 LINE",
"301 110 LINE",
"301 344 LINE",
"321 344 LINE",
"321 208 LINE",
"461 246 LINE",
"439 260 LINE",
"459 181 LINE",
"466 227 LINE",
"321 187 LINE",
"321 105 LINE",
"498 56 LINE",
"495 119 LINE",
"462 -5 LINE",
"491 37 LINE",
"260 100 LINE",
"268 54 LINE"
);
},
{
closed = 1;
nodes = (
"512 315 LINE",
"366 440 LINE",
"358 399 LINE",
"429 482 LINE",
"379 455 LINE",
"524 331 LINE",
"535 376 LINE",
"464 293 LINE"
);
},
{
closed = 1;
nodes = (
"252 -15 LINE",
"266 38 LINE",
"507 -28 LINE",
"546 118 LINE",
"390 160 LINE",
"505 192 LINE",
"477 296 LINE",
"385 271 LINE",
"385 364 LINE",
"234 364 LINE",
"234 146 LINE",
"177 162 LINE",
"177 392 LINE",
"26 392 LINE",
"26 90 LINE",
"15 49 LINE"
);
},
{
closed = 1;
nodes = (
"235 335 LINE",
"363 356 LINE",
"489 249 LINE",
"586 365 LINE",
"400 523 LINE",
"348 461 LINE",
"108 527 LINE",
"69 381 LINE"
);
}
);
width = 823;
},
{
layerId = "8F9EA7C7-FA6E-4084-B685-AEA30DABFFDA";
width = 600;
}
);
unicode = 0153;
},
{
glyphname = p;
layers = (
{
layerId = "C1068CC4-E81B-47E6-9D26-F0E70787A68A";
paths = (
{
closed = 1;
nodes = (
"112 -130 LINE",
"112 396 LINE",
"43 415 LINE",
"67 359 LINE",
"94 467 LINE",
"47 435 LINE",
"202 393 LINE",
"178 449 LINE",
"151 341 LINE",
"197 373 LINE",
"132 391 LINE",
"132 -125 LINE"
);
},
{
closed = 1;
nodes = (
"46 346 LINE",
"46 -195 LINE",
"197 -158 LINE",
"197 328 LINE",
"230 452 LINE",
"54 500 LINE",
"15 354 LINE"
);
},
{
closed = 1;
nodes = (
"268 471 LINE",
"240 428 LINE",
"398 384 LINE",
"393 430 LINE",
"366 323 LINE",
"393 365 LINE",
"314 387 LINE",
"343 420 LINE",
"343 126 LINE",
"323 114 LINE",
"323 426 LINE",
"380 369 LINE",
"236 409 LINE",
"241 364 LINE"
);
},
{
closed = 1;
nodes = (
"248 151 LINE",
"203 124 LINE",
"320 92 LINE",
"364 139 LINE",
"243 66 LINE",
"298 77 LINE",
"208 102 LINE",
"220 59 LINE"
);
},
{
closed = 1;
nodes = (
"257 20 LINE",
"408 108 LINE",
"408 301 LINE",
"445 440 LINE",
"226 500 LINE",
"187 354 LINE",
"257 335 LINE",
"257 177 LINE",
"208 191 LINE",
"158 7 LINE",
"107 62 LINE"
);
}
);
width = 460;
},
{
layerId = "8F9EA7C7-FA6E-4084-B685-AEA30DABFFDA";
width = 600;
}
);
unicode = 0070;
},
{
glyphname = thorn;
layers = (
{
layerId = "C1068CC4-E81B-47E6-9D26-F0E70787A68A";
paths = (
{
closed = 1;
nodes = (
"112 -130 LINE",
"112 586 LINE",
"43 605 LINE",
"67 549 LINE",
"94 657 LINE",
"47 625 LINE",
"202 583 LINE",
"178 639 LINE",
"151 531 LINE",
"197 563 LINE",
"132 581 LINE",
"132 -125 LINE"
);
},
{
closed = 1;
nodes = (
"46 536 LINE",
"46 -195 LINE",
"197 -158 LINE",
"197 518 LINE",
"230 642 LINE",
"54 690 LINE",
"15 544 LINE"
);
},
{
closed = 1;
nodes = (
"268 471 LINE",
"240 428 LINE",
"398 384 LINE",
"393 430 LINE",
"366 323 LINE",
"393 365 LINE",
"314 387 LINE",
"343 420 LINE",
"343 126 LINE",
"323 114 LINE",
"323 426 LINE",
"380 369 LINE",
"236 409 LINE",
"241 364 LINE"
);
},
{
closed = 1;
nodes = (
"248 151 LINE",
"203 124 LINE",
"320 92 LINE",
"364 139 LINE",
"243 66 LINE",
"298 77 LINE",
"208 102 LINE",
"220 59 LINE"
);
},
{
closed = 1;
nodes = (
"257 20 LINE",
"408 108 LINE",
"408 301 LINE",
"445 440 LINE",
"226 500 LINE",
"187 354 LINE",
"257 335 LINE",
"257 177 LINE",
"208 191 LINE",
"158 7 LINE",
"107 62 LINE"
);
}
);
width = 460;
},
{
layerId = "8F9EA7C7-FA6E-4084-B685-AEA30DABFFDA";
width = 600;
}
);
unicode = 00FE;
},
{
glyphname = q;
layers = (
{
layerId = "C1068CC4-E81B-47E6-9D26-F0E70787A68A";
paths = (
{
closed = 1;
nodes = (
"191 83 LINE",
"185 127 LINE",
"158 20 LINE",
"185 65 LINE",
"59 97 LINE",
"66 52 LINE",
"93 160 LINE",
"68 117 LINE",
"92 110 LINE",
"92 340 LINE",
"112 340 LINE",
"112 105 LINE"
);
},
{
closed = 1;
nodes = (
"203 -1 LINE",
"240 146 LINE",
"176 163 LINE",
"176 392 LINE",
"25 392 LINE",
"25 88 LINE",
"15 50 LINE"
);
},
{
closed = 1;
nodes = (
"68 381 LINE",
"223 338 LINE",
"223 -195 LINE",
"374 -158 LINE",
"374 360 LINE",
"398 447 LINE",
"107 527 LINE"
);
},
{
closed = 1;
nodes = (
"148 499 LINE",
"115 457 LINE",
"347 392 LINE",
"344 435 LINE",
"317 328 LINE",
"343 373 LINE",
"309 382 LINE",
"309 -124 LINE",
"289 -129 LINE",
"289 388 LINE",
"110 438 LINE",
"121 392 LINE"
);
}
);
width = 413;
},
{
layerId = "8F9EA7C7-FA6E-4084-B685-AEA30DABFFDA";
width = 600;
}
);
unicode = 0071;
},
{
glyphname = r;
layers = (
{
anchors = (
{
name = bottom;
position = "{171, 0}";
},
{
name = top;
position = "{171, 550}";
}
);
layerId = "C1068CC4-E81B-47E6-9D26-F0E70787A68A";
paths = (
{
closed = 1;
nodes = (
"340 479 LINE",
"431 424 LINE",
"212 484 LINE",
"173 338 LINE",
"392 278 LINE",
"277 247 LINE"
);
},
{
closed = 1;
nodes = (
"112 380 LINE",
"43 399 LINE",
"67 343 LINE",
"94 451 LINE",
"48 419 LINE",
"203 377 LINE",
"178 433 LINE",
"151 325 LINE",
"197 357 LINE",
"132 375 LINE",
"132 104 LINE",
"201 85 LINE",
"178 141 LINE",
"151 33 LINE",
"196 65 LINE",
"41 107 LINE",
"66 51 LINE",
"93 159 LINE",
"47 127 LINE",
"112 109 LINE"
);
},
{
closed = 1;
nodes = (
"284 458 LINE",
"257 350 LINE",
"283 376 LINE",
"213 395 LINE",
"225 366 LINE",
"252 474 LINE",
"218 415 LINE",
"307 391 LINE"
);
},
{
closed = 1;
nodes = (
"191 0 LINE",
"230 146 LINE",
"197 155 LINE",
"197 391 LINE",
"211 441 LINE",
"54 484 LINE",
"15 338 LINE",
"46 330 LINE",
"46 164 LINE",
"15 48 LINE"
);
}
);
width = 347;
},
{
layerId = "8F9EA7C7-FA6E-4084-B685-AEA30DABFFDA";
width = 600;
}
);
unicode = 0072;
},
{
glyphname = s;
layers = (
{
anchors = (
{
name = bottom;
position = "{197, 0}";
},
{
name = top;
position = "{157, 550}";
}
);
layerId = "C1068CC4-E81B-47E6-9D26-F0E70787A68A";
paths = (
{
closed = 1;
nodes = (
"234 278 LINE",
"100 471 LINE",
"234 535 LINE",
"-37 307 LINE",
"-24 383 LINE",
"110 191 LINE"
);
},
{
closed = 1;
nodes = (
"315 116 LINE",
"52 188 LINE",
"120 229 LINE",
"5 12 LINE",
"-21 51 LINE",
"176 -2 LINE"
);
},
{
closed = 1;
nodes = (
"269 78 LINE",
"380 170 LINE",
"350 99 LINE",
"364 259 LINE",
"299 352 LINE",
"176 265 LINE",
"317 63 LINE"
);
},
{
closed = 1;
nodes = (
"388 494 LINE",
"191 547 LINE",
"268 564 LINE",
"60 388 LINE",
"51 429 LINE",
"315 357 LINE"
);
},
{
closed = 1;
nodes = (
"274 384 LINE",
"339 419 LINE",
"168 466 LINE",
"156 405 LINE",
"267 499 LINE",
"176 484 LINE",
"340 439 LINE",
"329 487 LINE"
);
},
{
closed = 1;
nodes = (
"43 310 LINE",
"121 376 LINE",
"79 386 LINE",
"165 263 LINE",
"177 299 LINE",
"86 235 LINE",
"147 255 LINE",
"63 375 LINE"
);
},
{
closed = 1;
nodes = (
"133 150 LINE",
"68 115 LINE",
"239 68 LINE",
"255 129 LINE",
"144 35 LINE",
"231 50 LINE",
"67 95 LINE",
"78 47 LINE"
);
},
{
closed = 1;
nodes = (
"223 238 LINE",
"299 292 LINE",
"257 298 LINE",
"343 175 LINE",
"356 214 LINE",
"275 146 LINE",
"325 167 LINE",
"241 287 LINE"
);
}
);
width = 393;
},
{
layerId = "8F9EA7C7-FA6E-4084-B685-AEA30DABFFDA";
width = 600;
}
);
unicode = 0073;
},
{
glyphname = germandbls;
layers = (
{
layerId = "C1068CC4-E81B-47E6-9D26-F0E70787A68A";
paths = (
{
closed = 1;
nodes = (
"187 100 LINE",
"187 490 LINE",
"36 490 LINE",
"36 0 LINE"
);
},
{
closed = 1;
nodes = (
"122 104 LINE",
"102 91 LINE",
"102 453 LINE",
"122 453 LINE"
);
},
{
closed = 1;
nodes = (
"84 597 LINE",
"367 519 LINE",
"362 500 LINE",
"347 504 LINE",
"347 417 LINE",
"327 411 LINE",
"327 510 LINE",
"79 578 LINE"
);
},
{
closed = 1;
nodes = (
"227 284 LINE",
"239 333 LINE",
"220 315 LINE",
"367 274 LINE",
"362 255 LINE",
"347 259 LINE",
"347 102 LINE",
"327 90 LINE",
"327 265 LINE",
"213 296 LINE"
);
},
{
closed = 1;
nodes = (
"412 375 LINE",
"412 576 LINE",
"55 674 LINE",
"3 484 LINE",
"-16 537 LINE",
"261 461 LINE",
"261 373 LINE",
"207 388 LINE",
"167 241 LINE",
"261 216 LINE",
"261 137 LINE",
"237 143 LINE",
"198 -2 LINE",
"252 -17 LINE",
"412 76 LINE",
"412 331 LINE",
"333 353 LINE"
);
},
{
closed = 1;
nodes = (
"233 54 LINE",
"238 73 LINE",
"297 57 LINE",
"309 80 LINE",
"255 48 LINE"
);
}
);
width = 470;
},
{
associatedMasterId = "C1068CC4-E81B-47E6-9D26-F0E70787A68A";
layerId = "3F87B643-A949-4F7B-80BD-DE38E4BA0344";
name = "Aug 3 19, 14:17";
paths = (
{
closed = 1;
nodes = (
"122 105 LINE",
"327 49 LINE",
"309 80 LINE",
"220 28 LINE",
"314 32 LINE",
"32 108 LINE",
"28 75 LINE",
"55 183 LINE",
"37 128 LINE",
"102 110 LINE",
"102 453 LINE",
"122 453 LINE"
);
},
{
closed = 1;
nodes = (
"84 597 LINE",
"367 519 LINE",
"362 500 LINE",
"347 504 LINE",
"347 417 LINE",
"327 411 LINE",
"327 510 LINE",
"79 578 LINE"
);
},
{
closed = 1;
nodes = (
"261 461 LINE",
"261 333 LINE",
"412 375 LINE",
"412 576 LINE",
"55 674 LINE",
"3 484 LINE",
"-16 537 LINE"
);
},
{
closed = 1;
nodes = (
"227 284 LINE",
"239 333 LINE",
"220 315 LINE",
"367 274 LINE",
"362 255 LINE",
"347 259 LINE",
"347 102 LINE",
"327 90 LINE",
"327 265 LINE",
"213 296 LINE"
);
},
{
closed = 1;
nodes = (
"252 -17 LINE",
"412 76 LINE",
"412 331 LINE",
"207 388 LINE",
"187 314 LINE",
"187 490 LINE",
"36 490 LINE",
"36 199 LINE",
"12 205 LINE",
"-40 15 LINE",
"-59 68 LINE"
);
},
{
closed = 1;
nodes = (
"187 171 LINE",
"187 236 LINE",
"261 216 LINE",
"261 137 LINE",
"136 171 LINE"
);
}
);
width = 470;
},
{
layerId = "8F9EA7C7-FA6E-4084-B685-AEA30DABFFDA";
width = 600;
}
);
unicode = 00DF;
},
{
glyphname = t;
layers = (
{
anchors = (
{
name = bottom;
position = "{138, 0}";
},
{
name = center;
position = "{138, 250}";
},
{
name = top;
position = "{118, 690}";
},
{
name = topright;
position = "{256, 500}";
}
);
layerId = "C1068CC4-E81B-47E6-9D26-F0E70787A68A";
paths = (
{
closed = 1;
nodes = (
"245 146 LINE",
"69 194 LINE",
"30 48 LINE",
"206 0 LINE"
);
},
{
closed = 1;
nodes = (
"192 141 LINE",
"165 33 LINE",
"211 65 LINE",
"56 107 LINE",
"83 51 LINE",
"110 159 LINE",
"62 127 LINE",
"216 85 LINE"
);
},
{
closed = 1;
nodes = (
"61 423 LINE",
"61 164 LINE",
"95 164 LINE",
"134 174 LINE",
"212 174 LINE",
"212 408 LINE",
"247 405 LINE",
"261 555 LINE",
"212 560 LINE",
"212 634 LINE",
"61 634 LINE",
"61 574 LINE",
"29 577 LINE",
"11 381 LINE",
"-17 430 LINE"
);
},
{
closed = 1;
nodes = (
"74 507 LINE",
"127 502 LINE",
"127 586 LINE",
"147 586 LINE",
"147 500 LINE",
"223 493 LINE",
"209 543 LINE",
"199 433 LINE",
"223 473 LINE",
"147 480 LINE",
"147 223 LINE",
"127 223 LINE",
"127 482 LINE",
"72 487 LINE"
);
}
);
width = 276;
},
{
layerId = "8F9EA7C7-FA6E-4084-B685-AEA30DABFFDA";
width = 600;
}
);
unicode = 0074;
},
{
glyphname = tbar;
layers = (
{
anchors = (
{
name = bottom;
position = "{138, 0}";
},
{
name = center;
position = "{138, 250}";
},
{
name = top;
position = "{118, 690}";
},
{
name = topright;
position = "{256, 500}";
}
);
layerId = "C1068CC4-E81B-47E6-9D26-F0E70787A68A";
paths = (
{
closed = 1;
nodes = (
"245 146 LINE",
"69 194 LINE",
"30 48 LINE",
"206 0 LINE"
);
},
{
closed = 1;
nodes = (
"192 141 LINE",
"165 33 LINE",
"211 65 LINE",
"56 107 LINE",
"83 51 LINE",
"110 159 LINE",
"62 127 LINE",
"216 85 LINE"
);
},
{
closed = 1;
nodes = (
"74 507 LINE",
"127 502 LINE",
"127 586 LINE",
"147 586 LINE",
"147 500 LINE",
"223 493 LINE",
"209 543 LINE",
"199 433 LINE",
"223 473 LINE",
"147 480 LINE",
"147 223 LINE",
"127 223 LINE",
"127 482 LINE",
"72 487 LINE"
);
},
{
closed = 1;
nodes = (
"61 303 LINE",
"61 164 LINE",
"95 164 LINE",
"134 174 LINE",
"212 174 LINE",
"212 278 LINE",
"259 270 LINE",
"267 318 LINE",
"212 327 LINE",
"212 408 LINE",
"247 405 LINE",
"261 555 LINE",
"212 560 LINE",
"212 634 LINE",
"61 634 LINE",
"61 574 LINE",
"29 577 LINE",
"15 427 LINE",
"61 423 LINE",
"61 352 LINE",
"2 362 LINE",
"-15 290 LINE",
"-19 316 LINE"
);
}
);
width = 276;
},
{
layerId = "8F9EA7C7-FA6E-4084-B685-AEA30DABFFDA";
width = 600;
}
);
unicode = 0167;
},
{
glyphname = u;
layers = (
{
anchors = (
{
name = bottom;
position = "{230, 0}";
},
{
name = ogonek;
position = "{334, 52}";
},
{
name = top;
position = "{230, 550}";
},
{
name = topright;
position = "{440, 550}";
}
);
layerId = "C1068CC4-E81B-47E6-9D26-F0E70787A68A";
paths = (
{
closed = 1;
nodes = (
"348 104 LINE",
"417 85 LINE",
"393 141 LINE",
"366 33 LINE",
"412 65 LINE",
"257 107 LINE",
"282 51 LINE",
"309 159 LINE",
"263 127 LINE",
"328 109 LINE",
"328 396 LINE",
"259 415 LINE",
"282 343 LINE",
"309 451 LINE",
"264 435 LINE",
"419 393 LINE",
"394 433 LINE",
"367 325 LINE",
"413 373 LINE",
"348 391 LINE"
);
},
{
closed = 1;
nodes = (
"133 104 LINE",
"229 78 LINE",
"220 122 LINE",
"193 14 LINE",
"220 59 LINE",
"43 107 LINE",
"67 51 LINE",
"94 159 LINE",
"48 127 LINE",
"113 109 LINE",
"113 396 LINE",
"44 415 LINE",
"68 347 LINE",
"95 455 LINE",
"49 435 LINE",
"204 393 LINE",
"178 437 LINE",
"151 329 LINE",
"198 373 LINE",
"133 391 LINE"
);
},
{
closed = 1;
nodes = (
"234 -12 LINE",
"273 134 LINE",
"199 154 LINE",
"199 336 LINE",
"230 452 LINE",
"54 500 LINE",
"15 354 LINE",
"48 345 LINE",
"48 172 LINE",
"15 48 LINE"
);
},
{
closed = 1;
nodes = (
"406 0 LINE",
"445 146 LINE",
"414 154 LINE",
"414 336 LINE",
"445 452 LINE",
"269 500 LINE",
"230 354 LINE",
"263 345 LINE",
"263 172 LINE",
"230 48 LINE"
);
}
);
width = 460;
},
{
layerId = "8F9EA7C7-FA6E-4084-B685-AEA30DABFFDA";
width = 600;
}
);
unicode = 0075;
},
{
glyphname = v;
layers = (
{
layerId = "C1068CC4-E81B-47E6-9D26-F0E70787A68A";
paths = (
{
closed = 1;
nodes = (
"48 345 LINE",
"48 141 LINE",
"27 96 LINE",
"232 0 LINE",
"390 92 LINE",
"199 183 LINE",
"199 336 LINE",
"230 452 LINE",
"54 500 LINE",
"15 354 LINE"
);
},
{
closed = 1;
nodes = (
"68 347 LINE",
"87 425 LINE",
"169 402 LINE",
"164 382 LINE",
"133 391 LINE",
"133 141 LINE",
"263 79 LINE",
"242 67 LINE",
"97 136 LINE",
"105 154 LINE",
"113 150 LINE",
"113 396 LINE",
"44 415 LINE"
);
},
{
closed = 1;
nodes = (
"283 340 LINE",
"270 337 LINE",
"330 57 LINE",
"421 110 LINE",
"450 216 LINE",
"419 357 LINE",
"445 452 LINE",
"269 500 LINE",
"230 354 LINE"
);
},
{
closed = 1;
nodes = (
"302 425 LINE",
"419 393 LINE",
"394 433 LINE",
"367 325 LINE",
"413 373 LINE",
"346 391 LINE",
"396 156 LINE",
"337 122 LINE",
"381 129 LINE",
"324 397 LINE",
"297 405 LINE"
);
}
);
width = 465;
},
{
layerId = "8F9EA7C7-FA6E-4084-B685-AEA30DABFFDA";
width = 600;
}
);
unicode = 0076;
},
{
glyphname = w;
layers = (
{
anchors = (
{
name = bottom;
position = "{322, 0}";
},
{
name = top;
position = "{322, 550}";
}
);
layerId = "C1068CC4-E81B-47E6-9D26-F0E70787A68A";
paths = (
{
closed = 1;
nodes = (
"48 184 LINE",
"48 341 LINE",
"15 350 LINE",
"54 496 LINE",
"221 450 LINE",
"199 369 LINE",
"199 166 LINE",
"254 151 LINE",
"263 184 LINE",
"263 341 LINE",
"230 350 LINE",
"269 496 LINE",
"436 450 LINE",
"414 369 LINE",
"414 166 LINE",
"478 148 LINE",
"478 291 LINE",
"450 448 LINE",
"599 476 LINE",
"629 299 LINE",
"629 107 LINE",
"590 -39 LINE",
"390 16 LINE",
"375 -39 LINE",
"15 60 LINE"
);
},
{
closed = 1;
nodes = (
"114 390 LINE",
"114 122 LINE",
"88 129 LINE",
"83 110 LINE",
"344 38 LINE",
"349 57 LINE",
"349 96 LINE",
"559 38 LINE",
"564 57 LINE",
"564 299 LINE",
"545 414 LINE",
"525 410 LINE",
"544 296 LINE",
"544 62 LINE",
"349 116 LINE",
"349 406 LINE",
"302 419 LINE",
"297 400 LINE",
"329 390 LINE",
"329 62 LINE",
"134 116 LINE",
"134 406 LINE",
"87 419 LINE",
"82 400 LINE"
);
}
);
width = 644;
},
{
layerId = "8F9EA7C7-FA6E-4084-B685-AEA30DABFFDA";
width = 600;
}
);
unicode = 0077;
},
{
glyphname = x;
layers = (
{
layerId = "C1068CC4-E81B-47E6-9D26-F0E70787A68A";
paths = (
{
closed = 1;
nodes = (
"159 0 LINE",
"280 137 LINE",
"401 0 LINE",
"545 67 LINE",
"480 204 LINE",
"439 185 LINE",
"381 251 LINE",
"437 315 LINE",
"477 296 LINE",
"542 433 LINE",
"398 500 LINE",
"280 366 LINE",
"162 500 LINE",
"18 433 LINE",
"83 296 LINE",
"123 315 LINE",
"179 251 LINE",
"121 185 LINE",
"80 204 LINE",
"15 67 LINE"
);
},
{
closed = 1;
nodes = (
"98 123 LINE",
"138 104 LINE",
"267 250 LINE",
"139 395 LINE",
"102 378 LINE",
"94 396 LINE",
"125 410 LINE",
"115 422 LINE",
"134 431 LINE",
"280 265 LINE",
"426 431 LINE",
"445 422 LINE",
"435 410 LINE",
"466 396 LINE",
"458 378 LINE",
"421 395 LINE",
"293 250 LINE",
"422 104 LINE",
"462 123 LINE",
"470 105 LINE",
"435 89 LINE",
"446 77 LINE",
"427 69 LINE",
"280 235 LINE",
"133 69 LINE",
"114 77 LINE",
"125 89 LINE",
"90 105 LINE"
);
}
);
width = 560;
},
{
associatedMasterId = "C1068CC4-E81B-47E6-9D26-F0E70787A68A";
layerId = "A4314E9F-DAE0-4020-8623-2DAF6CA5DB9C";
name = "Aug 3 19, 12:26";
paths = (
{
closed = 1;
nodes = (
"83 296 LINE",
"123 315 LINE",
"401 0 LINE",
"545 67 LINE",
"480 204 LINE",
"439 185 LINE",
"162 500 LINE",
"18 433 LINE"
);
},
{
closed = 1;
nodes = (
"125 410 LINE",
"115 422 LINE",
"134 431 LINE",
"422 104 LINE",
"462 123 LINE",
"470 105 LINE",
"435 89 LINE",
"446 77 LINE",
"427 69 LINE",
"139 395 LINE",
"102 378 LINE",
"94 396 LINE"
);
},
{
closed = 1;
nodes = (
"398 500 LINE",
"121 185 LINE",
"80 204 LINE",
"15 67 LINE",
"159 0 LINE",
"437 315 LINE",
"477 296 LINE",
"542 433 LINE"
);
},
{
closed = 1;
nodes = (
"458 378 LINE",
"421 395 LINE",
"133 69 LINE",
"114 77 LINE",
"125 89 LINE",
"90 105 LINE",
"98 123 LINE",
"138 104 LINE",
"426 431 LINE",
"445 422 LINE",
"435 410 LINE",
"466 396 LINE"
);
}
);
width = 560;
},
{
associatedMasterId = "C1068CC4-E81B-47E6-9D26-F0E70787A68A";
layerId = "1EBD8501-DAAD-4FD5-A396-E8CE823D5147";
name = "Aug 3 19, 12:27";
paths = (
{
closed = 1;
nodes = (
"83 296 LINE",
"123 315 LINE",
"179 251 LINE",
"48 103 LINE",
"159 0 LINE",
"280 137 LINE",
"401 0 LINE",
"545 67 LINE",
"480 204 LINE",
"439 185 LINE",
"381 251 LINE",
"512 400 LINE",
"398 500 LINE",
"280 366 LINE",
"162 500 LINE",
"18 433 LINE"
);
},
{
closed = 1;
nodes = (
"125 410 LINE",
"115 422 LINE",
"134 431 LINE",
"280 265 LINE",
"426 431 LINE",
"445 422 LINE",
"293 250 LINE",
"422 104 LINE",
"462 123 LINE",
"470 105 LINE",
"435 89 LINE",
"446 77 LINE",
"427 69 LINE",
"280 235 LINE",
"133 69 LINE",
"114 77 LINE",
"267 250 LINE",
"139 395 LINE",
"102 378 LINE",
"94 396 LINE"
);
}
);
width = 560;
},
{
layerId = "8F9EA7C7-FA6E-4084-B685-AEA30DABFFDA";
width = 600;
}
);
unicode = 0078;
},
{
glyphname = y;
layers = (
{
anchors = (
{
name = bottom;
position = "{230, -288}";
},
{
name = top;
position = "{230, 550}";
}
);
layerId = "C1068CC4-E81B-47E6-9D26-F0E70787A68A";
paths = (
{
closed = 1;
nodes = (
"133 112 LINE",
"229 86 LINE",
"220 122 LINE",
"193 14 LINE",
"220 67 LINE",
"43 115 LINE",
"67 51 LINE",
"94 159 LINE",
"48 135 LINE",
"113 117 LINE",
"113 396 LINE",
"44 415 LINE",
"68 347 LINE",
"95 455 LINE",
"49 435 LINE",
"204 393 LINE",
"178 437 LINE",
"151 329 LINE",
"198 373 LINE",
"133 391 LINE"
);
},
{
closed = 1;
nodes = (
"235 -4 LINE",
"272 143 LINE",
"199 162 LINE",
"199 336 LINE",
"230 452 LINE",
"54 500 LINE",
"15 354 LINE",
"48 345 LINE",
"48 185 LINE",
"2 6 LINE",
"-116 91 LINE"
);
},
{
closed = 1;
nodes = (
"132 -80 LINE",
"331 -135 LINE",
"328 395 LINE",
"259 414 LINE",
"283 358 LINE",
"310 466 LINE",
"263 434 LINE",
"418 392 LINE",
"393 448 LINE",
"366 340 LINE",
"413 372 LINE",
"348 390 LINE",
"351 -140 LINE",
"346 -159 LINE",
"127 -99 LINE"
);
},
{
closed = 1;
nodes = (
"376 -235 LINE",
"414 -87 LINE",
"414 336 LINE",
"445 452 LINE",
"269 500 LINE",
"230 354 LINE",
"263 345 LINE",
"263 -47 LINE",
"101 -5 LINE",
"54 -189 LINE",
"1 -133 LINE"
);
}
);
width = 460;
},
{
layerId = "8F9EA7C7-FA6E-4084-B685-AEA30DABFFDA";
width = 600;
}
);
unicode = 0079;
},
{
glyphname = z;
layers = (
{
anchors = (
{
name = bottom;
position = "{237, 0}";
},
{
name = center;
position = "{237, 250}";
},
{
name = top;
position = "{237, 550}";
}
);
layerId = "C1068CC4-E81B-47E6-9D26-F0E70787A68A";
paths = (
{
closed = 1;
nodes = (
"108 444 LINE",
"127 439 LINE",
"125 430 LINE",
"393 414 LINE",
"379 460 LINE",
"373 350 LINE",
"394 393 LINE",
"119 411 LINE",
"110 378 LINE",
"91 383 LINE"
);
},
{
closed = 1;
nodes = (
"365 52 LINE",
"346 57 LINE",
"348 66 LINE",
"80 82 LINE",
"94 36 LINE",
"100 146 LINE",
"79 103 LINE",
"354 85 LINE",
"363 118 LINE",
"382 113 LINE"
);
},
{
closed = 1;
nodes = (
"162 314 LINE",
"169 342 LINE",
"210 340 LINE",
"54 169 LINE",
"46 18 LINE",
"418 -4 LINE",
"419 -4 LINE",
"458 142 LINE",
"311 182 LINE",
"304 154 LINE",
"247 157 LINE",
"380 303 LINE",
"348 331 LINE",
"419 327 LINE",
"427 478 LINE",
"54 500 LINE",
"15 354 LINE"
);
},
{
closed = 1;
nodes = (
"114 198 LINE",
"112 136 LINE",
"328 373 LINE",
"234 339 LINE",
"317 268 LINE",
"343 360 LINE",
"127 123 LINE",
"197 127 LINE"
);
}
);
width = 473;
},
{
layerId = "8F9EA7C7-FA6E-4084-B685-AEA30DABFFDA";
width = 600;
}
);
unicode = 007A;
},
{
glyphname = "hamza-ar";
layers = (
{
anchors = (
{
name = bottom;
position = "{224, -50}";
},
{
name = top;
position = "{224, 500}";
}
);
layerId = "C1068CC4-E81B-47E6-9D26-F0E70787A68A";
paths = (
{
closed = 1;
nodes = (
"432 0 LINE",
"406 151 LINE",
"363 151 LINE",
"384 185 LINE",
"132 333 LINE",
"324 279 LINE",
"398 416 LINE",
"177 477 LINE",
"15 226 LINE",
"143 151 LINE",
"18 151 LINE",
"44 0 LINE"
);
},
{
closed = 1;
nodes = (
"94 86 LINE",
"352 86 LINE",
"355 66 LINE",
"98 66 LINE"
);
},
{
closed = 1;
nodes = (
"192 383 LINE",
"202 401 LINE",
"305 373 LINE",
"295 355 LINE"
);
},
{
closed = 1;
nodes = (
"241 169 LINE",
"106 249 LINE",
"116 266 LINE",
"293 162 LINE",
"283 145 LINE"
);
}
);
width = 447;
},
{
anchors = (
{
name = bottom;
position = "{245, -50}";
},
{
name = top;
position = "{245, 500}";
}
);
layerId = "8F9EA7C7-FA6E-4084-B685-AEA30DABFFDA";
paths = (
{
closed = 1;
nodes = (
"477 -20 LINE",
"444 171 LINE",
"396 171 LINE",
"405 185 LINE",
"156 332 LINE",
"345 279 LINE",
"419 416 LINE",
"198 477 LINE",
"36 226 LINE",
"130 171 LINE",
"15 171 LINE",
"48 -20 LINE"
);
},
{
closed = 1;
nodes = (
"39 151 LINE",
"427 151 LINE",
"453 0 LINE",
"65 0 LINE"
);
},
{
closed = 1;
nodes = (
"144 356 LINE",
"207 454 LINE",
"389 403 LINE",
"335 303 LINE"
);
},
{
closed = 1;
nodes = (
"203 151 LINE",
"64 233 LINE",
"124 327 LINE",
"377 178 LINE",
"360 151 LINE"
);
}
);
width = 492;
},
{
anchors = (
{
name = bottom;
position = "{224, -50}";
},
{
name = top;
position = "{224, 500}";
}
);
associatedMasterId = "8F9EA7C7-FA6E-4084-B685-AEA30DABFFDA";
layerId = "700A794F-5375-4B06-BF52-2CAA30CABA30";
name = "Mar 23 20, 16:37";
paths = (
{
closed = 1;
nodes = (
"177 477 LINE",
"398 416 LINE",
"324 279 LINE",
"91 344 LINE"
);
},
{
closed = 1;
nodes = (
"18 151 LINE",
"44 0 LINE",
"432 0 LINE",
"406 151 LINE"
);
},
{
closed = 1;
nodes = (
"97 354 LINE",
"384 185 LINE",
"304 57 LINE",
"15 226 LINE"
);
}
);
width = 600;
},
{
anchors = (
{
name = bottom;
position = "{224, -50}";
},
{
name = top;
position = "{224, 500}";
}
);
associatedMasterId = "8F9EA7C7-FA6E-4084-B685-AEA30DABFFDA";
layerId = "63705DC7-979D-4539-A69A-6002FDD424D2";
name = "Mar 23 20, 16:38";
paths = (
{
closed = 1;
nodes = (
"456 -20 LINE",
"423 171 LINE",
"375 171 LINE",
"384 185 LINE",
"135 332 LINE",
"324 279 LINE",
"398 416 LINE",
"177 477 LINE",
"15 226 LINE",
"109 171 LINE",
"-6 171 LINE",
"27 -20 LINE"
);
},
{
closed = 1;
nodes = (
"18 151 LINE",
"406 151 LINE",
"432 0 LINE",
"44 0 LINE"
);
},
{
closed = 1;
nodes = (
"43 233 LINE",
"103 327 LINE",
"356 178 LINE",
"339 151 LINE",
"183 151 LINE"
);
},
{
closed = 1;
nodes = (
"123 356 LINE",
"186 454 LINE",
"368 403 LINE",
"314 303 LINE"
);
}
);
width = 600;
}
);
unicode = 0621;
},
{
glyphname = "alef-ar";
layers = (
{
anchors = (
{
name = bottom;
position = "{112, -40}";
},
{
name = top;
position = "{56, 669}";
}
);
layerId = "C1068CC4-E81B-47E6-9D26-F0E70787A68A";
paths = (
{
closed = 1;
nodes = (
"179 39 LINE",
"179 521 LINE",
"204 528 LINE",
"165 674 LINE",
"-11 626 LINE",
"28 480 LINE",
"28 -3 LINE"
);
},
{
closed = 1;
nodes = (
"94 566 LINE",
"79 562 LINE",
"74 581 LINE",
"126 595 LINE",
"131 577 LINE",
"114 572 LINE",
"114 89 LINE",
"94 84 LINE"
);
}
);
width = 219;
},
{
anchors = (
{
name = bottom;
position = "{112, -40}";
},
{
name = top;
position = "{56, 669}";
}
);
layerId = "8F9EA7C7-FA6E-4084-B685-AEA30DABFFDA";
paths = (
{
closed = 1;
nodes = (
"179 39 LINE",
"179 521 LINE",
"204 528 LINE",
"165 674 LINE",
"-11 626 LINE",
"28 480 LINE",
"28 -3 LINE"
);
},
{
closed = 1;
nodes = (
"48 483 LINE",
"45 494 LINE",
"13 612 LINE",
"151 649 LINE",
"180 542 LINE",
"159 536 LINE",
"159 54 LINE",
"48 23 LINE"
);
}
);
width = 219;
},
{
anchors = (
{
name = bottom;
position = "{112, -40}";
},
{
name = top;
position = "{56, 669}";
}
);
associatedMasterId = "C1068CC4-E81B-47E6-9D26-F0E70787A68A";
layerId = "DC036246-5E9C-4D4A-9479-587CEEA8B7E7";
name = "Mar 23 20, 15:23";
paths = (
{
closed = 1;
nodes = (
"182 591 LINE",
"114 572 LINE",
"114 80 LINE",
"141 96 LINE",
"73 78 LINE",
"94 75 LINE",
"94 566 LINE",
"79 562 LINE",
"74 581 LINE",
"176 609 LINE",
"118 628 LINE",
"137 551 LINE"
);
},
{
closed = 1;
nodes = (
"28 480 LINE",
"28 -3 LINE",
"179 39 LINE",
"179 521 LINE",
"204 528 LINE",
"165 674 LINE",
"-11 626 LINE"
);
}
);
width = 219;
}
);
unicode = 0627;
},
{
glyphname = "alef-ar.fina";
layers = (
{
anchors = (
{
name = bottom;
position = "{120, -40}";
},
{
name = top;
position = "{78, 615}";
}
);
layerId = "C1068CC4-E81B-47E6-9D26-F0E70787A68A";
paths = (
{
closed = 1;
nodes = (
"33 87 LINE",
"101 106 LINE",
"101 558 LINE",
"74 521 LINE",
"142 539 LINE",
"121 563 LINE",
"121 112 LINE",
"136 116 LINE",
"141 97 LINE",
"39 69 LINE",
"97 50 LINE",
"78 127 LINE"
);
},
{
closed = 1;
nodes = (
"50 4 LINE",
"214 49 LINE",
"187 150 LINE",
"187 620 LINE",
"36 579 LINE",
"36 157 LINE",
"10 150 LINE"
);
}
);
width = 187;
},
{
layerId = "8F9EA7C7-FA6E-4084-B685-AEA30DABFFDA";
width = 600;
}
);
unicode = FE8E;
},
{
glyphname = "alef-ar.short";
layers = (
{
anchors = (
{
name = bottom;
position = "{112, -40}";
},
{
name = top;
position = "{59, 584}";
}
);
layerId = "C1068CC4-E81B-47E6-9D26-F0E70787A68A";
paths = (
{
closed = 1;
nodes = (
"182 506 LINE",
"114 487 LINE",
"114 80 LINE",
"141 96 LINE",
"73 78 LINE",
"94 75 LINE",
"94 481 LINE",
"79 477 LINE",
"74 496 LINE",
"176 524 LINE",
"118 543 LINE",
"137 466 LINE"
);
},
{
closed = 1;
nodes = (
"28 395 LINE",
"28 -3 LINE",
"179 39 LINE",
"179 436 LINE",
"204 443 LINE",
"165 589 LINE",
"-11 541 LINE"
);
}
);
width = 224;
},
{
layerId = "8F9EA7C7-FA6E-4084-B685-AEA30DABFFDA";
width = 600;
}
);
},
{
glyphname = "alef-ar.fina.short";
layers = (
{
anchors = (
{
name = bottom;
position = "{120, -40}";
},
{
name = top;
position = "{95, 583}";
}
);
layerId = "C1068CC4-E81B-47E6-9D26-F0E70787A68A";
paths = (
{
closed = 1;
nodes = (
"33 87 LINE",
"101 106 LINE",
"101 543 LINE",
"74 496 LINE",
"142 514 LINE",
"121 548 LINE",
"121 112 LINE",
"136 116 LINE",
"141 97 LINE",
"39 69 LINE",
"97 50 LINE",
"78 127 LINE"
);
},
{
closed = 1;
nodes = (
"50 4 LINE",
"214 49 LINE",
"187 150 LINE",
"187 595 LINE",
"36 554 LINE",
"36 157 LINE",
"10 150 LINE"
);
}
);
width = 187;
},
{
layerId = "8F9EA7C7-FA6E-4084-B685-AEA30DABFFDA";
width = 600;
}
);
},
{
glyphname = "behDotless-ar";
layers = (
{
anchors = (
{
name = bottom;
position = "{568, -13}";
},
{
name = ring;
position = "{565, 0}";
},
{
name = top;
position = "{208, 283}";
}
);
layerId = "C1068CC4-E81B-47E6-9D26-F0E70787A68A";
paths = (
{
closed = 1;
nodes = (
"187 0 LINE",
"652 44 LINE",
"648 90 LINE",
"648 392 LINE",
"497 351 LINE",
"497 181 LINE",
"200 154 LINE",
"53 192 LINE",
"15 47 LINE"
);
},
{
closed = 1;
nodes = (
"599 127 LINE",
"601 107 LINE",
"182 67 LINE",
"78 96 LINE",
"82 114 LINE",
"185 87 LINE",
"562 123 LINE",
"562 309 LINE",
"535 293 LINE",
"603 311 LINE",
"582 314 LINE",
"582 125 LINE"
);
}
);
width = 667;
},
{
anchors = (
{
name = bottom;
position = "{568, -13}";
},
{
name = ring;
position = "{565, 0}";
},
{
name = top;
position = "{208, 283}";
}
);
associatedMasterId = "C1068CC4-E81B-47E6-9D26-F0E70787A68A";
layerId = "56DB6483-415C-45E4-B32C-51CA369C385B";
name = "Jul 31 19, 15:53";
paths = (
{
closed = 1;
nodes = (
"187 0 LINE",
"652 44 LINE",
"648 90 LINE",
"648 392 LINE",
"497 351 LINE",
"497 181 LINE",
"200 154 LINE",
"53 192 LINE",
"15 47 LINE"
);
},
{
closed = 1;
nodes = (
"582 115 LINE",
"562 113 LINE",
"562 309 LINE",
"535 293 LINE",
"603 311 LINE",
"582 314 LINE"
);
},
{
closed = 1;
nodes = (
"180 87 LINE",
"604 127 LINE",
"606 108 LINE",
"182 67 LINE"
);
},
{
closed = 1;
nodes = (
"78 96 LINE",
"82 114 LINE",
"187 87 LINE",
"182 67 LINE"
);
}
);
width = 600;
},
{
layerId = "8F9EA7C7-FA6E-4084-B685-AEA30DABFFDA";
width = 600;
}
);
unicode = 066E;
},
{
glyphname = "behDotless-ar.medi";
layers = (
{
anchors = (
{
name = bottom;
position = "{115, -13}";
},
{
name = ring;
position = "{114, 0}";
},
{
name = top;
position = "{110, 404}";
}
);
layerId = "C1068CC4-E81B-47E6-9D26-F0E70787A68A";
paths = (
{
closed = 1;
nodes = (
"173 99 LINE",
"36 64 LINE",
"31 83 LINE",
"111 105 LINE",
"111 317 LINE",
"131 322 LINE",
"131 110 LINE",
"167 120 LINE"
);
},
{
closed = 1;
nodes = (
"18 -7 LINE",
"224 49 LINE",
"197 150 LINE",
"197 392 LINE",
"46 351 LINE",
"46 157 LINE",
"-21 139 LINE"
);
}
);
width = 197;
},
{
layerId = "8F9EA7C7-FA6E-4084-B685-AEA30DABFFDA";
width = 600;
}
);
},
{
glyphname = "behDotless-ar.init";
layers = (
{
anchors = (
{
name = bottom;
position = "{121, -13}";
},
{
name = ring;
position = "{115, 0}";
},
{
name = top;
position = "{111, 404}";
}
);
layerId = "C1068CC4-E81B-47E6-9D26-F0E70787A68A";
paths = (
{
closed = 1;
nodes = (
"18 -7 LINE",
"209 45 LINE",
"198 86 LINE",
"198 392 LINE",
"47 351 LINE",
"47 158 LINE",
"-21 139 LINE"
);
},
{
closed = 1;
nodes = (
"158 117 LINE",
"163 97 LINE",
"37 64 LINE",
"32 83 LINE",
"112 105 LINE",
"112 317 LINE",
"132 322 LINE",
"132 110 LINE"
);
}
);
width = 224;
},
{
layerId = "8F9EA7C7-FA6E-4084-B685-AEA30DABFFDA";
width = 600;
}
);
},
{
glyphname = "hah-ar";
layers = (
{
anchors = (
{
name = bottom;
position = "{304, -234}";
},
{
name = center;
position = "{426, -56}";
},
{
name = top;
position = "{441, 386}";
}
);
layerId = "C1068CC4-E81B-47E6-9D26-F0E70787A68A";
paths = (
{
closed = 1;
nodes = (
"-35 -4 LINE",
"578 54 LINE",
"568 5 LINE",
"505 239 LINE",
"546 202 LINE",
"-66 145 LINE",
"4 195 LINE",
"67 -39 LINE"
);
},
{
closed = 1;
nodes = (
"106 -175 LINE",
"306 -38 LINE",
"345 -147 LINE",
"199 61 LINE",
"148 70 LINE",
"55 5 LINE",
"220 -234 LINE"
);
},
{
closed = 1;
nodes = (
"533 385 LINE",
"545 334 LINE",
"64 379 LINE",
"112 418 LINE",
"90 179 LINE",
"62 228 LINE",
"532 183 LINE",
"511 145 LINE"
);
},
{
closed = 1;
nodes = (
"154 347 LINE",
"126 308 LINE",
"482 275 LINE",
"478 323 LINE",
"468 213 LINE",
"480 255 LINE",
"125 288 LINE",
"144 237 LINE"
);
},
{
closed = 1;
nodes = (
"483 129 LINE",
"488 109 LINE",
"79 71 LINE",
"92 59 LINE",
"81 100 LINE",
"77 91 LINE"
);
},
{
closed = 1;
nodes = (
"223 -37 LINE",
"133 -98 LINE",
"190 -76 LINE",
"95 61 LINE",
"97 -25 LINE",
"187 36 LINE",
"111 72 LINE",
"206 -65 LINE"
);
}
);
width = 600;
},
{
layerId = "8F9EA7C7-FA6E-4084-B685-AEA30DABFFDA";
width = 600;
}
);
unicode = 062D;
},
{
glyphname = "hah-ar.init";
layers = (
{
anchors = (
{
name = bottom;
position = "{383, 0}";
},
{
name = top;
position = "{392, 386}";
}
);
layerId = "C1068CC4-E81B-47E6-9D26-F0E70787A68A";
paths = (
{
closed = 1;
nodes = (
"-62 -8 LINE",
"551 50 LINE",
"526 1 LINE",
"463 235 LINE",
"519 198 LINE",
"-93 141 LINE",
"-32 190 LINE",
"30 -43 LINE"
);
},
{
closed = 1;
nodes = (
"491 381 LINE",
"503 330 LINE",
"22 375 LINE",
"70 414 LINE",
"48 175 LINE",
"20 224 LINE",
"490 179 LINE",
"469 141 LINE"
);
},
{
closed = 1;
nodes = (
"112 343 LINE",
"84 304 LINE",
"440 271 LINE",
"436 319 LINE",
"426 209 LINE",
"438 251 LINE",
"83 284 LINE",
"102 233 LINE"
);
},
{
closed = 1;
nodes = (
"441 125 LINE",
"446 105 LINE",
"37 67 LINE",
"55 55 LINE",
"44 96 LINE",
"35 87 LINE"
);
}
);
width = 529;
},
{
layerId = "8F9EA7C7-FA6E-4084-B685-AEA30DABFFDA";
width = 600;
}
);
unicode = FEA3;
},
{
glyphname = "dal-ar";
layers = (
{
anchors = (
{
name = bottom;
position = "{186, -50}";
},
{
name = top;
position = "{264, 386}";
}
);
layerId = "C1068CC4-E81B-47E6-9D26-F0E70787A68A";
paths = (
{
closed = 1;
nodes = (
"74 104 LINE",
"269 122 LINE",
"263 118 LINE",
"263 318 LINE",
"283 323 LINE",
"283 119 LINE",
"281 123 LINE",
"316 126 LINE",
"300 166 LINE",
"300 56 LINE",
"320 106 LINE",
"279 102 LINE",
"283 106 LINE",
"283 86 LINE",
"263 84 LINE",
"263 105 LINE",
"268 101 LINE",
"76 83 LINE"
);
},
{
closed = 1;
nodes = (
"17 199 LINE",
"34 14 LINE",
"352 44 LINE",
"348 92 LINE",
"348 392 LINE",
"197 351 LINE",
"197 181 LINE",
"-161 148 LINE"
);
}
);
width = 372;
},
{
anchors = (
{
name = bottom;
position = "{186, -50}";
},
{
name = top;
position = "{264, 386}";
}
);
associatedMasterId = "C1068CC4-E81B-47E6-9D26-F0E70787A68A";
layerId = "48D41B3E-615D-433B-8973-1ECE82DB4D29";
name = "Aug 3 19, 19:55";
paths = (
{
closed = 1;
nodes = (
"74 104 LINE",
"269 122 LINE",
"263 118 LINE",
"263 318 LINE",
"283 323 LINE",
"283 119 LINE",
"281 123 LINE",
"316 126 LINE",
"300 166 LINE",
"300 56 LINE",
"320 106 LINE",
"279 102 LINE",
"283 106 LINE",
"283 86 LINE",
"263 84 LINE",
"263 105 LINE",
"268 101 LINE",
"76 83 LINE"
);
},
{
closed = 1;
nodes = (
"17 199 LINE",
"34 14 LINE",
"352 44 LINE",
"348 92 LINE",
"348 392 LINE",
"197 351 LINE",
"197 181 LINE",
"-161 148 LINE"
);
}
);
width = 372;
},
{
layerId = "8F9EA7C7-FA6E-4084-B685-AEA30DABFFDA";
width = 600;
}
);
unicode = 062F;
},
{
glyphname = "reh-ar";
layers = (
{
anchors = (
{
name = bottom;
position = "{69, -220}";
},
{
name = top;
position = "{79, 404}";
}
);
layerId = "C1068CC4-E81B-47E6-9D26-F0E70787A68A";
paths = (
{
closed = 1;
nodes = (
"166 -146 LINE",
"166 392 LINE",
"15 351 LINE",
"15 -187 LINE"
);
},
{
closed = 1;
nodes = (
"101 324 LINE",
"101 -114 LINE",
"81 -120 LINE",
"81 319 LINE"
);
}
);
width = 181;
},
{
layerId = "8F9EA7C7-FA6E-4084-B685-AEA30DABFFDA";
width = 600;
}
);
unicode = 0631;
},
{
glyphname = "seen-ar";
layers = (
{
anchors = (
{
name = bottom;
position = "{716, -60}";
},
{
name = top;
position = "{603, 380}";
}
);
layerId = "C1068CC4-E81B-47E6-9D26-F0E70787A68A";
paths = (
{
closed = 1;
nodes = (
"883 90 LINE",
"883 392 LINE",
"732 351 LINE",
"732 162 LINE",
"664 143 LINE",
"703 -3 LINE",
"894 49 LINE"
);
},
{
closed = 1;
nodes = (
"797 332 LINE",
"817 337 LINE",
"817 110 LINE",
"852 119 LINE",
"823 126 LINE",
"842 52 LINE",
"854 98 LINE",
"678 53 LINE",
"746 20 LINE",
"719 127 LINE",
"674 71 LINE",
"797 105 LINE"
);
},
{
closed = 1;
nodes = (
"600 282 LINE",
"620 287 LINE",
"620 110 LINE",
"655 119 LINE",
"626 126 LINE",
"645 52 LINE",
"657 98 LINE",
"512 61 LINE",
"549 20 LINE",
"522 127 LINE",
"477 71 LINE",
"600 105 LINE"
);
},
{
closed = 1;
nodes = (
"488 63 LINE",
"485 63 LINE",
"478 48 LINE",
"492 49 LINE",
"506 -3 LINE",
"697 49 LINE",
"686 90 LINE",
"686 342 LINE",
"535 301 LINE",
"535 162 LINE",
"467 143 LINE"
);
},
{
closed = 1;
nodes = (
"192 -131 LINE",
"503 -101 LINE",
"489 49 LINE",
"489 292 LINE",
"338 251 LINE",
"338 35 LINE",
"206 23 LINE",
"58 61 LINE",
"20 -84 LINE"
);
},
{
closed = 1;
nodes = (
"87 -17 LINE",
"190 -44 LINE",
"403 -24 LINE",
"403 232 LINE",
"423 237 LINE",
"423 -22 LINE",
"456 -19 LINE",
"458 -38 LINE",
"187 -64 LINE",
"83 -35 LINE"
);
}
);
width = 914;
},
{
layerId = "8F9EA7C7-FA6E-4084-B685-AEA30DABFFDA";
width = 600;
}
);
unicode = 0633;
},
{
glyphname = "seen-ar.init";
layers = (
{
anchors = (
{
name = bottom;
position = "{311, -60}";
},
{
name = top;
position = "{311, 380}";
}
);
layerId = "C1068CC4-E81B-47E6-9D26-F0E70787A68A";
paths = (
{
closed = 1;
nodes = (
"591 90 LINE",
"591 392 LINE",
"440 351 LINE",
"440 162 LINE",
"372 143 LINE",
"411 -3 LINE",
"602 49 LINE"
);
},
{
closed = 1;
nodes = (
"505 332 LINE",
"525 337 LINE",
"525 110 LINE",
"560 119 LINE",
"531 126 LINE",
"550 52 LINE",
"562 98 LINE",
"386 53 LINE",
"454 20 LINE",
"427 127 LINE",
"382 71 LINE",
"505 105 LINE"
);
},
{
closed = 1;
nodes = (
"394 90 LINE",
"394 342 LINE",
"243 301 LINE",
"243 162 LINE",
"175 143 LINE",
"214 -3 LINE",
"405 49 LINE"
);
},
{
closed = 1;
nodes = (
"308 282 LINE",
"328 287 LINE",
"328 110 LINE",
"363 119 LINE",
"334 126 LINE",
"353 52 LINE",
"365 98 LINE",
"189 53 LINE",
"257 20 LINE",
"230 127 LINE",
"185 71 LINE",
"308 105 LINE"
);
},
{
closed = 1;
nodes = (
"197 90 LINE",
"197 292 LINE",
"46 251 LINE",
"46 162 LINE",
"-22 143 LINE",
"17 -3 LINE",
"208 49 LINE"
);
},
{
closed = 1;
nodes = (
"111 232 LINE",
"131 237 LINE",
"131 110 LINE",
"166 119 LINE",
"137 126 LINE",
"156 52 LINE",
"168 98 LINE",
"31 63 LINE",
"60 20 LINE",
"33 127 LINE",
"28 82 LINE",
"111 105 LINE"
);
}
);
width = 622;
},
{
layerId = "8F9EA7C7-FA6E-4084-B685-AEA30DABFFDA";
width = 600;
}
);
unicode = FEB3;
},
{
glyphname = "sad-ar";
layers = (
{
anchors = (
{
name = bottom;
position = "{898, 0}";
},
{
name = top;
position = "{812, 386}";
}
);
layerId = "C1068CC4-E81B-47E6-9D26-F0E70787A68A";
paths = (
{
closed = 1;
nodes = (
"940 276 LINE",
"938 256 LINE",
"606 286 LINE",
"606 165 LINE",
"586 163 LINE",
"586 288 LINE",
"575 289 LINE",
"580 347 LINE",
"541 313 LINE"
);
},
{
closed = 1;
nodes = (
"521 229 LINE",
"521 136 LINE",
"672 136 LINE",
"672 214 LINE",
"981 185 LINE",
"994 336 LINE",
"534 379 LINE",
"516 179 LINE",
"498 231 LINE"
);
},
{
closed = 1;
nodes = (
"426 82 LINE",
"948 131 LINE",
"953 111 LINE",
"435 63 LINE",
"540 50 LINE",
"517 131 LINE"
);
},
{
closed = 1;
nodes = (
"82 -17 LINE",
"185 -44 LINE",
"398 -24 LINE",
"398 272 LINE",
"418 277 LINE",
"418 -22 LINE",
"451 -19 LINE",
"453 -38 LINE",
"182 -64 LINE",
"78 -35 LINE"
);
},
{
closed = 1;
nodes = (
"187 -131 LINE",
"498 -101 LINE",
"484 49 LINE",
"492 50 LINE",
"504 3 LINE",
"1022 51 LINE",
"982 199 LINE",
"484 152 LINE",
"484 332 LINE",
"333 291 LINE",
"333 35 LINE",
"201 23 LINE",
"53 61 LINE",
"15 -84 LINE"
);
}
);
width = 1037;
},
{
layerId = "8F9EA7C7-FA6E-4084-B685-AEA30DABFFDA";
width = 600;
}
);
unicode = 0635;
},
{
glyphname = "sad-ar.init";
layers = (
{
anchors = (
{
name = bottom;
position = "{609, 0}";
},
{
name = top;
position = "{523, 386}";
}
);
layerId = "C1068CC4-E81B-47E6-9D26-F0E70787A68A";
paths = (
{
closed = 1;
nodes = (
"-23 139 LINE",
"18 -15 LINE",
"732 52 LINE",
"693 199 LINE",
"195 153 LINE",
"195 332 LINE",
"44 291 LINE",
"44 138 LINE",
"-24 132 LINE"
);
},
{
closed = 1;
nodes = (
"651 276 LINE",
"649 256 LINE",
"317 286 LINE",
"317 165 LINE",
"297 163 LINE",
"297 288 LINE",
"286 289 LINE",
"291 347 LINE",
"252 313 LINE"
);
},
{
closed = 1;
nodes = (
"232 229 LINE",
"232 126 LINE",
"383 126 LINE",
"383 214 LINE",
"692 185 LINE",
"705 336 LINE",
"245 379 LINE",
"227 179 LINE",
"209 231 LINE"
);
},
{
closed = 1;
nodes = (
"109 79 LINE",
"109 272 LINE",
"129 277 LINE",
"129 81 LINE",
"659 131 LINE",
"664 111 LINE",
"51 54 LINE",
"44 79 LINE",
"20 71 LINE"
);
}
);
width = 747;
},
{
layerId = "8F9EA7C7-FA6E-4084-B685-AEA30DABFFDA";
width = 600;
}
);
unicode = FEBB;
},
{
glyphname = "tah-ar";
layers = (
{
anchors = (
{
name = bottom;
position = "{609, 0}";
},
{
name = top;
position = "{523, 386}";
}
);
layerId = "C1068CC4-E81B-47E6-9D26-F0E70787A68A";
paths = (
{
closed = 1;
nodes = (
"717 385 LINE",
"722 334 LINE",
"191 384 LINE",
"242 418 LINE",
"220 179 LINE",
"209 231 LINE",
"709 183 LINE",
"695 145 LINE"
);
},
{
closed = 1;
nodes = (
"658 275 LINE",
"656 255 LINE",
"248 292 LINE",
"275 243 LINE",
"284 346 LINE",
"259 312 LINE"
);
},
{
closed = 1;
nodes = (
"-2 200 LINE",
"54 -12 LINE",
"739 53 LINE",
"700 199 LINE",
"232 156 LINE",
"232 521 LINE",
"257 528 LINE",
"218 674 LINE",
"42 626 LINE",
"81 480 LINE",
"81 142 LINE",
"-24 132 LINE"
);
},
{
closed = 1;
nodes = (
"70 75 LINE",
"147 82 LINE",
"147 566 LINE",
"132 562 LINE",
"127 581 LINE",
"179 595 LINE",
"184 577 LINE",
"167 572 LINE",
"167 84 LINE",
"666 131 LINE",
"671 111 LINE",
"87 57 LINE",
"80 83 LINE"
);
}
);
width = 754;
},
{
layerId = "8F9EA7C7-FA6E-4084-B685-AEA30DABFFDA";
width = 600;
}
);
unicode = 0637;
},
{
glyphname = "ain-ar";
layers = (
{
anchors = (
{
name = bottom;
position = "{300, -200}";
},
{
name = top;
position = "{297, 516}";
}
);
layerId = "C1068CC4-E81B-47E6-9D26-F0E70787A68A";
paths = (
{
closed = 1;
nodes = (
"494 132 LINE",
"453 172 LINE",
"482 68 LINE",
"499 114 LINE",
"104 77 LINE",
"99 96 LINE"
);
},
{
closed = 1;
nodes = (
"183 266 LINE",
"192 284 LINE",
"452 163 LINE",
"399 247 LINE",
"355 147 LINE",
"444 145 LINE"
);
},
{
closed = 1;
nodes = (
"267 427 LINE",
"409 402 LINE",
"401 383 LINE",
"241 411 LINE",
"242 379 LINE"
);
},
{
closed = 1;
nodes = (
"115 33 LINE",
"84 -9 LINE",
"174 52 LINE",
"131 44 LINE",
"194 -46 LINE",
"178 -57 LINE"
);
},
{
closed = 1;
nodes = (
"4 195 LINE",
"55 5 LINE",
"156 -141 LINE",
"281 -55 LINE",
"227 21 LINE",
"555 52 LINE",
"516 199 LINE",
"448 193 LINE",
"465 229 LINE",
"417 251 LINE",
"415 249 LINE",
"416 251 LINE",
"198 353 LINE",
"440 309 LINE",
"500 453 LINE",
"231 500 LINE",
"94 234 LINE",
"228 172 LINE",
"-66 145 LINE"
);
}
);
width = 600;
},
{
anchors = (
{
name = bottom;
position = "{300, -200}";
},
{
name = top;
position = "{297, 516}";
}
);
associatedMasterId = "C1068CC4-E81B-47E6-9D26-F0E70787A68A";
layerId = "85B23A6F-2E8C-4489-87A0-98DCACE3DD63";
name = "Aug 3 19, 21:39";
paths = (
{
closed = 1;
nodes = (
"494 132 LINE",
"453 172 LINE",
"482 68 LINE",
"499 114 LINE",
"104 77 LINE",
"99 96 LINE"
);
},
{
closed = 1;
nodes = (
"183 266 LINE",
"192 284 LINE",
"452 163 LINE",
"399 247 LINE",
"355 147 LINE",
"444 145 LINE"
);
},
{
closed = 1;
nodes = (
"267 427 LINE",
"409 402 LINE",
"401 383 LINE",
"241 411 LINE",
"242 379 LINE"
);
},
{
closed = 1;
nodes = (
"115 33 LINE",
"104 -29 LINE",
"194 32 LINE",
"131 44 LINE",
"194 -46 LINE",
"178 -57 LINE"
);
},
{
closed = 1;
nodes = (
"4 195 LINE",
"55 5 LINE",
"156 -141 LINE",
"281 -55 LINE",
"227 21 LINE",
"555 52 LINE",
"516 199 LINE",
"448 193 LINE",
"465 229 LINE",
"417 251 LINE",
"415 249 LINE",
"416 251 LINE",
"198 353 LINE",
"440 309 LINE",
"500 453 LINE",
"231 500 LINE",
"94 234 LINE",
"228 172 LINE",
"-66 145 LINE"
);
}
);
width = 600;
},
{
layerId = "8F9EA7C7-FA6E-4084-B685-AEA30DABFFDA";
width = 600;
}
);
unicode = 0639;
},
{
glyphname = "ain-ar.fina";
layers = (
{
anchors = (
{
name = bottom;
position = "{289, -200}";
},
{
name = top;
position = "{297, 516}";
}
);
layerId = "C1068CC4-E81B-47E6-9D26-F0E70787A68A";
paths = (
{
closed = 1;
nodes = (
"494 132 LINE",
"453 172 LINE",
"482 68 LINE",
"499 114 LINE",
"104 77 LINE",
"99 96 LINE"
);
},
{
closed = 1;
nodes = (
"115 33 LINE",
"84 -9 LINE",
"174 52 LINE",
"131 44 LINE",
"194 -46 LINE",
"178 -57 LINE"
);
},
{
closed = 1;
nodes = (
"4 195 LINE",
"55 5 LINE",
"156 -141 LINE",
"281 -55 LINE",
"227 21 LINE",
"555 52 LINE",
"516 199 LINE",
"473 195 LINE",
"514 280 LINE",
"442 313 LINE",
"500 453 LINE",
"231 500 LINE",
"93 234 LINE",
"228 172 LINE",
"-66 145 LINE"
);
},
{
closed = 1;
nodes = (
"366 322 LINE",
"348 283 LINE",
"197 353 LINE"
);
},
{
closed = 1;
nodes = (
"267 427 LINE",
"409 402 LINE",
"401 383 LINE",
"241 411 LINE",
"242 379 LINE"
);
},
{
closed = 1;
nodes = (
"192 284 LINE",
"380 197 LINE",
"411 262 LINE",
"429 254 LINE",
"389 170 LINE",
"183 266 LINE"
);
}
);
width = 524;
},
{
layerId = "8F9EA7C7-FA6E-4084-B685-AEA30DABFFDA";
width = 600;
}
);
unicode = FECA;
},
{
glyphname = "ain-ar.medi";
layers = (
{
anchors = (
{
name = bottom;
position = "{233, -50}";
},
{
name = top;
position = "{240, 516}";
}
);
layerId = "C1068CC4-E81B-47E6-9D26-F0E70787A68A";
paths = (
{
closed = 1;
nodes = (
"453 476 LINE",
"504 442 LINE",
"174 500 LINE",
"92 343 LINE",
"46 370 LINE",
"430 300 LINE",
"358 249 LINE"
);
},
{
closed = 1;
nodes = (
"61 98 LINE",
"427 131 LINE",
"408 170 LINE",
"437 66 LINE",
"432 113 LINE",
"66 79 LINE"
);
},
{
closed = 1;
nodes = (
"210 427 LINE",
"352 402 LINE",
"344 383 LINE",
"184 411 LINE",
"185 379 LINE"
);
},
{
closed = 1;
nodes = (
"-34 201 LINE",
"19 6 LINE",
"508 53 LINE",
"468 200 LINE",
"416 195 LINE",
"457 280 LINE",
"319 343 LINE",
"291 283 LINE",
"105 369 LINE",
"36 234 LINE",
"171 172 LINE",
"-123 145 LINE"
);
},
{
closed = 1;
nodes = (
"135 284 LINE",
"323 197 LINE",
"354 262 LINE",
"372 254 LINE",
"332 170 LINE",
"126 266 LINE"
);
}
);
width = 457;
},
{
layerId = "8F9EA7C7-FA6E-4084-B685-AEA30DABFFDA";
width = 600;
}
);
unicode = FECC;
},
{
glyphname = "ain-ar.init";
layers = (
{
anchors = (
{
name = bottom;
position = "{273, -50}";
},
{
name = top;
position = "{270, 516}";
}
);
layerId = "C1068CC4-E81B-47E6-9D26-F0E70787A68A";
paths = (
{
closed = 1;
nodes = (
"412 127 LINE",
"417 109 LINE",
"67 76 LINE",
"62 95 LINE"
);
},
{
closed = 1;
nodes = (
"156 266 LINE",
"165 284 LINE",
"425 163 LINE",
"372 247 LINE",
"328 147 LINE",
"417 145 LINE"
);
},
{
closed = 1;
nodes = (
"-33 195 LINE",
"19 4 LINE",
"502 49 LINE",
"463 197 LINE",
"421 193 LINE",
"438 229 LINE",
"170 353 LINE",
"413 309 LINE",
"473 453 LINE",
"204 500 LINE",
"66 234 LINE",
"201 172 LINE",
"-93 145 LINE"
);
},
{
closed = 1;
nodes = (
"240 427 LINE",
"382 402 LINE",
"374 383 LINE",
"214 411 LINE",
"215 379 LINE"
);
}
);
width = 517;
},
{
layerId = "8F9EA7C7-FA6E-4084-B685-AEA30DABFFDA";
width = 600;
}
);
unicode = FECB;
},
{
glyphname = "fehDotless-ar";
layers = (
{
anchors = (
{
name = bottom;
position = "{472, -50}";
},
{
name = top;
position = "{560, 441}";
}
);
layerId = "C1068CC4-E81B-47E6-9D26-F0E70787A68A";
paths = (
{
closed = 1;
nodes = (
"444 261 LINE",
"502 245 LINE",
"502 181 LINE",
"444 176 LINE"
);
},
{
closed = 1;
nodes = (
"192 0 LINE",
"657 44 LINE",
"653 92 LINE",
"653 306 LINE",
"667 357 LINE",
"375 437 LINE",
"339 302 LINE",
"293 302 LINE",
"293 162 LINE",
"204 154 LINE",
"58 192 LINE",
"20 47 LINE"
);
},
{
closed = 1;
nodes = (
"599 125 LINE",
"601 106 LINE",
"187 66 LINE",
"83 95 LINE",
"87 113 LINE",
"190 86 LINE",
"359 102 LINE",
"359 252 LINE",
"379 252 LINE",
"379 104 LINE",
"568 122 LINE",
"568 295 LINE",
"402 341 LINE",
"408 360 LINE",
"600 307 LINE",
"595 288 LINE",
"588 290 LINE",
"588 124 LINE"
);
}
);
width = 677;
},
{
layerId = "8F9EA7C7-FA6E-4084-B685-AEA30DABFFDA";
width = 600;
}
);
unicode = 06A1;
},
{
glyphname = "fehDotless-ar.init";
layers = (
{
anchors = (
{
name = bottom;
position = "{225, -50}";
},
{
name = top;
position = "{313, 434}";
}
);
layerId = "C1068CC4-E81B-47E6-9D26-F0E70787A68A";
paths = (
{
closed = 1;
nodes = (
"112 95 LINE",
"112 245 LINE",
"132 245 LINE",
"132 97 LINE",
"321 115 LINE",
"321 288 LINE",
"155 334 LINE",
"161 353 LINE",
"353 300 LINE",
"348 281 LINE",
"341 283 LINE",
"341 117 LINE",
"346 117 LINE",
"351 97 LINE",
"48 69 LINE",
"43 89 LINE"
);
},
{
closed = 1;
nodes = (
"-35 181 LINE",
"14 0 LINE",
"418 38 LINE",
"406 83 LINE",
"406 299 LINE",
"420 350 LINE",
"128 430 LINE",
"92 295 LINE",
"46 295 LINE",
"46 155 LINE",
"-103 141 LINE"
);
},
{
closed = 1;
nodes = (
"197 254 LINE",
"255 238 LINE",
"255 174 LINE",
"197 169 LINE"
);
}
);
width = 435;
},
{
anchors = (
{
name = bottom;
position = "{225, -50}";
},
{
name = top;
position = "{240, 441}";
}
);
associatedMasterId = "C1068CC4-E81B-47E6-9D26-F0E70787A68A";
layerId = "653F8E91-04BD-41BB-A1F8-ACE3F70A860F";
name = "Aug 3 19, 22:40";
paths = (
{
closed = 1;
nodes = (
"112 95 LINE",
"112 245 LINE",
"132 245 LINE",
"132 97 LINE",
"321 115 LINE",
"321 288 LINE",
"155 334 LINE",
"161 353 LINE",
"353 300 LINE",
"348 281 LINE",
"341 283 LINE",
"341 117 LINE",
"346 117 LINE",
"351 97 LINE",
"48 69 LINE",
"43 89 LINE"
);
},
{
closed = 1;
nodes = (
"-35 181 LINE",
"14 0 LINE",
"418 38 LINE",
"406 83 LINE",
"406 299 LINE",
"420 350 LINE",
"128 430 LINE",
"92 295 LINE",
"46 295 LINE",
"46 155 LINE",
"-103 141 LINE"
);
},
{
closed = 1;
nodes = (
"197 254 LINE",
"255 238 LINE",
"255 174 LINE",
"197 169 LINE"
);
}
);
width = 435;
},
{
layerId = "8F9EA7C7-FA6E-4084-B685-AEA30DABFFDA";
width = 600;
}
);
},
{
glyphname = "qafDotless-ar";
layers = (
{
anchors = (
{
name = bottom;
position = "{257, -200}";
},
{
name = top;
position = "{391, 441}";
}
);
layerId = "C1068CC4-E81B-47E6-9D26-F0E70787A68A";
paths = (
{
closed = 1;
nodes = (
"187 -131 LINE",
"498 -101 LINE",
"484 49 LINE",
"484 306 LINE",
"498 357 LINE",
"206 437 LINE",
"167 291 LINE",
"333 245 LINE",
"333 35 LINE",
"201 23 LINE",
"53 61 LINE",
"15 -84 LINE"
);
},
{
closed = 1;
nodes = (
"82 -17 LINE",
"185 -44 LINE",
"398 -24 LINE",
"398 295 LINE",
"189 353 LINE",
"221 298 LINE",
"238 360 LINE",
"430 307 LINE",
"425 288 LINE",
"418 290 LINE",
"418 -22 LINE",
"451 -19 LINE",
"453 -38 LINE",
"182 -64 LINE",
"78 -35 LINE"
);
},
{
closed = 1;
nodes = (
"320 36 LINE",
"350 145 LINE",
"275 166 LINE",
"275 302 LINE",
"124 302 LINE",
"124 74 LINE",
"71 108 LINE"
);
},
{
closed = 1;
nodes = (
"173 148 LINE",
"190 143 LINE",
"190 252 LINE",
"210 252 LINE",
"210 137 LINE",
"288 115 LINE",
"284 96 LINE",
"168 129 LINE"
);
}
);
width = 513;
},
{
layerId = "8F9EA7C7-FA6E-4084-B685-AEA30DABFFDA";
width = 600;
}
);
unicode = 066F;
},
{
glyphname = "kafDotless-ar";
layers = (
{
anchors = (
{
name = bottom;
position = "{577, -50}";
},
{
name = top;
position = "{208, 233}";
}
);
layerId = "C1068CC4-E81B-47E6-9D26-F0E70787A68A";
paths = (
{
closed = 1;
nodes = (
"187 0 LINE",
"652 44 LINE",
"648 90 LINE",
"648 620 LINE",
"497 579 LINE",
"497 181 LINE",
"200 154 LINE",
"53 192 LINE",
"15 47 LINE"
);
},
{
closed = 1;
nodes = (
"82 114 LINE",
"185 87 LINE",
"562 123 LINE",
"562 558 LINE",
"535 521 LINE",
"603 539 LINE",
"582 563 LINE",
"582 125 LINE",
"604 127 LINE",
"606 108 LINE",
"182 67 LINE",
"78 96 LINE"
);
}
);
width = 667;
},
{
layerId = "8F9EA7C7-FA6E-4084-B685-AEA30DABFFDA";
width = 600;
}
);
},
{
glyphname = "kaf-ar.init";
layers = (
{
anchors = (
{
name = bottom;
position = "{263, -50}";
},
{
name = top;
position = "{110, 548}";
}
);
layerId = "C1068CC4-E81B-47E6-9D26-F0E70787A68A";
paths = (
{
closed = 1;
nodes = (
"-62 -8 LINE",
"551 50 LINE",
"538 1 LINE",
"475 235 LINE",
"519 198 LINE",
"-93 141 LINE",
"-32 190 LINE",
"30 -43 LINE"
);
},
{
closed = 1;
nodes = (
"503 381 LINE",
"525 330 LINE",
"-6 380 LINE",
"67 415 LINE",
"45 175 LINE",
"12 227 LINE",
"512 179 LINE",
"481 141 LINE"
);
},
{
closed = 1;
nodes = (
"109 343 LINE",
"94 305 LINE",
"462 271 LINE",
"447 319 LINE",
"437 209 LINE",
"460 251 LINE",
"99 285 LINE",
"99 233 LINE"
);
},
{
closed = 1;
nodes = (
"453 126 LINE",
"458 106 LINE",
"49 68 LINE",
"55 56 LINE",
"44 97 LINE",
"40 87 LINE"
);
},
{
closed = 1;
nodes = (
"393 466 LINE",
"76 422 LINE",
"98 374 LINE",
"81 472 LINE",
"74 443 LINE",
"389 486 LINE",
"368 523 LINE",
"387 415 LINE"
);
},
{
closed = 1;
nodes = (
"442 406 LINE",
"413 563 LINE",
"232 538 LINE",
"237 509 LINE",
"27 479 LINE",
"60 293 LINE",
"1 344 LINE"
);
}
);
width = 550;
},
{
layerId = "8F9EA7C7-FA6E-4084-B685-AEA30DABFFDA";
width = 600;
}
);
unicode = FEDB;
},
{
glyphname = "keheh-ar";
layers = (
{
anchors = (
{
name = bottom;
position = "{457, -50}";
},
{
name = top;
position = "{278, 548}";
}
);
layerId = "C1068CC4-E81B-47E6-9D26-F0E70787A68A";
paths = (
{
closed = 1;
nodes = (
"671 381 LINE",
"693 330 LINE",
"162 380 LINE",
"235 415 LINE",
"213 175 LINE",
"180 227 LINE",
"680 179 LINE",
"649 141 LINE"
);
},
{
closed = 1;
nodes = (
"277 343 LINE",
"262 305 LINE",
"630 271 LINE",
"615 319 LINE",
"605 209 LINE",
"628 251 LINE",
"267 285 LINE",
"267 233 LINE"
);
},
{
closed = 1;
nodes = (
"561 466 LINE",
"244 422 LINE",
"266 374 LINE",
"249 472 LINE",
"242 443 LINE",
"557 486 LINE",
"536 523 LINE",
"555 415 LINE"
);
},
{
closed = 1;
nodes = (
"610 406 LINE",
"581 563 LINE",
"400 538 LINE",
"405 509 LINE",
"195 479 LINE",
"228 293 LINE",
"169 344 LINE"
);
},
{
closed = 1;
nodes = (
"626 106 LINE",
"182 65 LINE",
"78 94 LINE",
"82 112 LINE",
"185 85 LINE",
"621 126 LINE"
);
},
{
closed = 1;
nodes = (
"187 0 LINE",
"693 48 LINE",
"654 195 LINE",
"203 153 LINE",
"53 192 LINE",
"15 47 LINE"
);
}
);
width = 708;
},
{
layerId = "8F9EA7C7-FA6E-4084-B685-AEA30DABFFDA";
width = 600;
}
);
unicode = 06A9;
},
{
glyphname = "gaf-ar.medi";
layers = (
{
anchors = (
{
name = bottom;
position = "{275, -50}";
},
{
name = top;
position = "{162, 626}";
}
);
components = (
{
name = "keheh-ar.medi";
}
);
layerId = "C1068CC4-E81B-47E6-9D26-F0E70787A68A";
paths = (
{
closed = 1;
nodes = (
"2 548 LINE",
"226 580 LINE",
"213 551 LINE",
"201 620 LINE",
"222 598 LINE",
"7 568 LINE",
"13 587 LINE",
"22 534 LINE"
);
}
);
width = 497;
},
{
layerId = "8F9EA7C7-FA6E-4084-B685-AEA30DABFFDA";
width = 600;
}
);
unicode = FB95;
},
{
glyphname = "lam-ar";
layers = (
{
anchors = (
{
name = bottom;
position = "{398, -184}";
},
{
name = top;
position = "{380, 700}";
}
);
layerId = "C1068CC4-E81B-47E6-9D26-F0E70787A68A";
paths = (
{
closed = 1;
nodes = (
"192 -131 LINE",
"483 -103 LINE",
"469 46 LINE",
"469 521 LINE",
"494 528 LINE",
"455 674 LINE",
"279 626 LINE",
"318 480 LINE",
"318 33 LINE",
"206 23 LINE",
"58 61 LINE",
"20 -84 LINE"
);
},
{
closed = 1;
nodes = (
"87 -17 LINE",
"190 -44 LINE",
"384 -26 LINE",
"384 566 LINE",
"369 562 LINE",
"364 581 LINE",
"466 609 LINE",
"408 628 LINE",
"427 551 LINE",
"472 591 LINE",
"404 572 LINE",
"404 -24 LINE",
"436 -21 LINE",
"438 -40 LINE",
"187 -64 LINE",
"83 -35 LINE"
);
}
);
width = 514;
},
{
layerId = "8F9EA7C7-FA6E-4084-B685-AEA30DABFFDA";
width = 600;
}
);
unicode = 0644;
},
{
glyphname = "lam-ar.init";
layers = (
{
anchors = (
{
name = bottom;
position = "{126, -50}";
},
{
name = ring;
position = "{114, 0}";
},
{
name = top;
position = "{108, 667}";
}
);
layerId = "C1068CC4-E81B-47E6-9D26-F0E70787A68A";
paths = (
{
closed = 1;
nodes = (
"17 -7 LINE",
"208 45 LINE",
"197 86 LINE",
"197 620 LINE",
"46 579 LINE",
"46 158 LINE",
"-22 139 LINE"
);
},
{
closed = 1;
nodes = (
"157 117 LINE",
"162 97 LINE",
"36 64 LINE",
"31 83 LINE",
"111 105 LINE",
"111 545 LINE",
"131 550 LINE",
"131 110 LINE"
);
}
);
width = 228;
},
{
layerId = "8F9EA7C7-FA6E-4084-B685-AEA30DABFFDA";
width = 600;
}
);
unicode = FEDF;
},
{
glyphname = "meem-ar";
layers = (
{
anchors = (
{
name = bottom;
position = "{349, -136}";
},
{
name = top;
position = "{214, 480}";
}
);
layerId = "C1068CC4-E81B-47E6-9D26-F0E70787A68A";
paths = (
{
closed = 1;
nodes = (
"439 86 LINE",
"439 328 LINE",
"288 328 LINE",
"288 158 LINE",
"220 139 LINE",
"259 -7 LINE",
"450 45 LINE"
);
},
{
closed = 1;
nodes = (
"353 292 LINE",
"373 292 LINE",
"373 106 LINE",
"405 115 LINE",
"379 122 LINE",
"398 48 LINE",
"410 94 LINE",
"234 49 LINE",
"302 16 LINE",
"275 123 LINE",
"230 67 LINE",
"353 101 LINE"
);
},
{
closed = 1;
nodes = (
"69 412 LINE",
"91 326 LINE",
"91 154 LINE",
"15 133 LINE",
"15 -187 LINE",
"166 -146 LINE",
"166 17 LINE",
"269 45 LINE",
"242 146 LINE",
"242 267 LINE",
"386 304 LINE",
"349 450 LINE",
"-11 357 LINE"
);
},
{
closed = 1;
nodes = (
"81 80 LINE",
"156 101 LINE",
"156 305 LINE",
"138 300 LINE",
"152 285 LINE",
"135 352 LINE",
"137 320 LINE",
"331 374 LINE",
"308 413 LINE",
"335 306 LINE",
"335 355 LINE",
"176 311 LINE",
"176 106 LINE",
"241 124 LINE",
"189 156 LINE",
"216 48 LINE",
"247 103 LINE",
"101 65 LINE",
"101 -114 LINE",
"81 -120 LINE"
);
}
);
width = 465;
},
{
layerId = "8F9EA7C7-FA6E-4084-B685-AEA30DABFFDA";
width = 600;
}
);
unicode = 0645;
},
{
glyphname = "meem-ar.init";
layers = (
{
anchors = (
{
name = bottom;
position = "{210, -50}";
},
{
name = top;
position = "{210, 480}";
}
);
layerId = "C1068CC4-E81B-47E6-9D26-F0E70787A68A";
paths = (
{
closed = 1;
nodes = (
"393 86 LINE",
"393 328 LINE",
"242 328 LINE",
"242 158 LINE",
"174 139 LINE",
"213 -7 LINE",
"404 45 LINE"
);
},
{
closed = 1;
nodes = (
"307 292 LINE",
"327 292 LINE",
"327 106 LINE",
"359 115 LINE",
"333 122 LINE",
"352 48 LINE",
"364 94 LINE",
"188 49 LINE",
"256 16 LINE",
"229 123 LINE",
"184 67 LINE",
"307 101 LINE"
);
},
{
closed = 1;
nodes = (
"18 -11 LINE",
"223 45 LINE",
"196 146 LINE",
"196 267 LINE",
"365 311 LINE",
"352 256 LINE",
"293 490 LINE",
"328 457 LINE",
"-57 357 LINE",
"23 412 LINE",
"62 259 LINE",
"45 341 LINE",
"45 153 LINE",
"-21 135 LINE"
);
},
{
closed = 1;
nodes = (
"130 106 LINE",
"195 124 LINE",
"143 156 LINE",
"170 48 LINE",
"201 103 LINE",
"42 62 LINE",
"74 20 LINE",
"47 127 LINE",
"36 80 LINE",
"110 101 LINE",
"110 305 LINE",
"92 300 LINE",
"106 285 LINE",
"89 352 LINE",
"91 320 LINE",
"285 374 LINE",
"262 413 LINE",
"289 306 LINE",
"289 355 LINE",
"130 311 LINE"
);
}
);
width = 419;
},
{
layerId = "8F9EA7C7-FA6E-4084-B685-AEA30DABFFDA";
width = 600;
}
);
unicode = FEE3;
},
{
glyphname = "noonghunna-ar";
layers = (
{
anchors = (
{
name = bottom;
position = "{398, -184}";
},
{
name = top;
position = "{154, 223}";
}
);
layerId = "C1068CC4-E81B-47E6-9D26-F0E70787A68A";
paths = (
{
closed = 1;
nodes = (
"192 -131 LINE",
"483 -103 LINE",
"469 46 LINE",
"469 392 LINE",
"318 351 LINE",
"318 33 LINE",
"206 23 LINE",
"58 61 LINE",
"20 -84 LINE"
);
},
{
closed = 1;
nodes = (
"87 -17 LINE",
"190 -44 LINE",
"384 -26 LINE",
"384 317 LINE",
"404 322 LINE",
"404 -24 LINE",
"436 -21 LINE",
"438 -40 LINE",
"187 -64 LINE",
"83 -35 LINE"
);
}
);
width = 503;
},
{
layerId = "8F9EA7C7-FA6E-4084-B685-AEA30DABFFDA";
width = 600;
}
);
unicode = 06BA;
},
{
glyphname = "heh-ar";
layers = (
{
anchors = (
{
name = bottom;
position = "{212, -50}";
},
{
name = top;
position = "{201, 448}";
}
);
background = {
paths = (
{
closed = 1;
nodes = (
"166 225 LINE",
"15 225 LINE",
"15 130 LINE",
"166 130 LINE"
);
},
{
closed = 1;
nodes = (
"338 422 LINE",
"295 271 LINE",
"98 410 LINE",
"213 511 LINE",
"15 225 LINE",
"139 140 LINE"
);
},
{
closed = 1;
nodes = (
"378 367 LINE",
"310 348 LINE",
"310 91 LINE",
"337 107 LINE",
"269 89 LINE",
"290 86 LINE",
"290 342 LINE",
"275 338 LINE",
"270 357 LINE",
"372 385 LINE",
"314 404 LINE",
"333 327 LINE"
);
},
{
closed = 1;
nodes = (
"5 168 LINE",
"55 -15 LINE",
"408 82 LINE",
"375 206 LINE",
"375 297 LINE",
"400 304 LINE",
"361 450 LINE",
"185 402 LINE",
"224 256 LINE",
"224 188 LINE",
"-50 113 LINE"
);
},
{
closed = 0;
nodes = (
"55 -15 LINE",
"408 82 LINE"
);
}
);
};
layerId = "C1068CC4-E81B-47E6-9D26-F0E70787A68A";
paths = (
{
closed = 1;
nodes = (
"55 -15 LINE",
"408 82 LINE",
"375 206 LINE",
"375 297 LINE",
"400 304 LINE",
"361 450 LINE",
"185 402 LINE",
"202 337 LINE",
"128 389 LINE",
"15 225 LINE",
"15 131 LINE"
);
},
{
closed = 1;
nodes = (
"166 178 LINE",
"223 259 LINE",
"224 256 LINE",
"224 188 LINE",
"166 172 LINE"
);
},
{
closed = 1;
nodes = (
"290 138 LINE",
"290 342 LINE",
"275 338 LINE",
"270 357 LINE",
"372 385 LINE",
"314 404 LINE",
"333 327 LINE",
"378 367 LINE",
"310 348 LINE",
"310 144 LINE",
"339 152 LINE",
"315 209 LINE",
"342 102 LINE",
"343 133 LINE",
"93 64 LINE",
"88 83 LINE"
);
},
{
closed = 1;
nodes = (
"81 208 LINE",
"148 302 LINE",
"164 290 LINE",
"101 202 LINE",
"101 136 LINE",
"81 130 LINE"
);
}
);
width = 423;
},
{
layerId = "8F9EA7C7-FA6E-4084-B685-AEA30DABFFDA";
width = 600;
}
);
unicode = 0647;
},
{
glyphname = "heh-ar.fina";
layers = (
{
anchors = (
{
name = bottom;
position = "{204, -50}";
},
{
name = top;
position = "{234, 448}";
}
);
layerId = "C1068CC4-E81B-47E6-9D26-F0E70787A68A";
paths = (
{
closed = 1;
nodes = (
"166 178 LINE",
"223 259 LINE",
"224 256 LINE",
"224 188 LINE",
"166 172 LINE"
);
},
{
closed = 1;
nodes = (
"81 208 LINE",
"148 302 LINE",
"164 290 LINE",
"101 202 LINE",
"101 136 LINE",
"81 130 LINE"
);
},
{
closed = 1;
nodes = (
"55 -15 LINE",
"261 42 LINE",
"271 4 LINE",
"435 49 LINE",
"396 195 LINE",
"379 190 LINE",
"375 206 LINE",
"375 297 LINE",
"400 304 LINE",
"361 450 LINE",
"185 402 LINE",
"202 337 LINE",
"128 389 LINE",
"15 225 LINE",
"15 131 LINE"
);
},
{
closed = 1;
nodes = (
"290 139 LINE",
"290 342 LINE",
"275 338 LINE",
"270 357 LINE",
"372 385 LINE",
"314 404 LINE",
"333 327 LINE",
"378 367 LINE",
"310 348 LINE",
"310 104 LINE",
"366 119 LINE",
"370 100 LINE",
"286 77 LINE",
"281 96 LINE",
"290 98 LINE",
"290 119 LINE",
"93 64 LINE",
"88 83 LINE"
);
}
);
width = 408;
},
{
layerId = "8F9EA7C7-FA6E-4084-B685-AEA30DABFFDA";
width = 600;
}
);
unicode = FEEA;
},
{
glyphname = "heh-ar.medi";
layers = (
{
anchors = (
{
name = bottom;
position = "{203, -289}";
},
{
name = top;
position = "{203, 433}";
}
);
layerId = "C1068CC4-E81B-47E6-9D26-F0E70787A68A";
paths = (
{
closed = 1;
nodes = (
"195 209 LINE",
"200 208 LINE",
"239 153 LINE",
"195 141 LINE"
);
},
{
closed = 1;
nodes = (
"195 -16 LINE",
"241 -3 LINE",
"199 -63 LINE",
"195 -64 LINE"
);
},
{
closed = 1;
nodes = (
"-32 171 LINE",
"20 -14 LINE",
"44 -7 LINE",
"44 -105 LINE",
"26 -110 LINE",
"66 -256 LINE",
"293 -193 LINE",
"404 -33 LINE",
"404 41 LINE",
"443 52 LINE",
"404 198 LINE",
"393 195 LINE",
"293 339 LINE",
"66 401 LINE",
"26 256 LINE",
"44 251 LINE",
"44 149 LINE",
"-78 116 LINE"
);
},
{
closed = 1;
nodes = (
"110 99 LINE",
"110 301 LINE",
"100 304 LINE",
"105 322 LINE",
"219 291 LINE",
"214 272 LINE",
"130 295 LINE",
"130 -150 LINE",
"239 -120 LINE",
"319 -7 LINE",
"319 87 LINE",
"224 60 LINE",
"219 79 LINE",
"345 114 LINE",
"249 253 LINE",
"265 264 LINE",
"365 120 LINE",
"370 101 LINE",
"339 92 LINE",
"339 -12 LINE",
"253 -136 LINE",
"105 -177 LINE",
"100 -158 LINE",
"110 -155 LINE",
"110 79 LINE",
"60 65 LINE",
"47 113 LINE",
"36 79 LINE"
);
},
{
closed = 1;
nodes = (
"235 19 LINE",
"224 60 LINE",
"191 51 LINE"
);
},
{
closed = 1;
nodes = (
"211 77 LINE",
"219 79 LINE",
"208 124 LINE"
);
}
);
width = 405;
},
{
associatedMasterId = "C1068CC4-E81B-47E6-9D26-F0E70787A68A";
layerId = "8EEFB074-D60C-4E8B-A8B9-F0E83DBB92FA";
name = "Aug 6 19, 11:12";
paths = (
{
closed = 1;
nodes = (
"36 79 LINE",
"152 111 LINE",
"127 166 LINE",
"155 61 LINE",
"156 92 LINE",
"44 61 LINE",
"76 6 LINE",
"47 113 LINE"
);
},
{
closed = 1;
nodes = (
"105 322 LINE",
"237 286 LINE",
"230 333 LINE",
"201 226 LINE",
"233 267 LINE",
"130 295 LINE",
"130 173 LINE",
"110 167 LINE",
"110 301 LINE",
"100 304 LINE"
);
},
{
closed = 1;
nodes = (
"110 -155 LINE",
"110 10 LINE",
"130 16 LINE",
"130 -150 LINE",
"245 -118 LINE",
"208 -104 LINE",
"225 -168 LINE",
"249 -137 LINE",
"105 -177 LINE",
"100 -158 LINE"
);
},
{
closed = 1;
nodes = (
"195 209 LINE",
"200 208 LINE",
"239 153 LINE",
"195 141 LINE"
);
},
{
closed = 1;
nodes = (
"195 -16 LINE",
"241 -3 LINE",
"199 -63 LINE",
"195 -64 LINE"
);
},
{
closed = 1;
nodes = (
"-32 171 LINE",
"20 -14 LINE",
"44 -7 LINE",
"44 -105 LINE",
"26 -110 LINE",
"66 -256 LINE",
"293 -193 LINE",
"404 -33 LINE",
"404 41 LINE",
"443 52 LINE",
"404 198 LINE",
"393 195 LINE",
"293 339 LINE",
"66 401 LINE",
"26 256 LINE",
"44 251 LINE",
"44 149 LINE",
"-78 116 LINE"
);
},
{
closed = 1;
nodes = (
"345 114 LINE",
"249 253 LINE",
"265 264 LINE",
"365 120 LINE",
"370 101 LINE",
"339 92 LINE",
"339 -12 LINE",
"265 -118 LINE",
"249 -107 LINE",
"319 -7 LINE",
"319 87 LINE",
"234 63 LINE",
"218 124 LINE",
"211 77 LINE"
);
}
);
width = 600;
},
{
anchors = (
{
name = bottom;
position = "{203, -289}";
},
{
name = top;
position = "{203, 433}";
}
);
associatedMasterId = "C1068CC4-E81B-47E6-9D26-F0E70787A68A";
layerId = "5CFE32C4-6D74-4F3C-A1A1-7D19EE7ECD24";
name = "Aug 6 19, 11:19";
paths = (
{
closed = 1;
nodes = (
"195 209 LINE",
"200 208 LINE",
"239 153 LINE",
"195 141 LINE"
);
},
{
closed = 1;
nodes = (
"195 -16 LINE",
"241 -3 LINE",
"199 -63 LINE",
"195 -64 LINE"
);
},
{
closed = 1;
nodes = (
"-32 171 LINE",
"20 -14 LINE",
"44 -7 LINE",
"44 -105 LINE",
"26 -110 LINE",
"66 -256 LINE",
"293 -193 LINE",
"404 -33 LINE",
"404 41 LINE",
"443 52 LINE",
"404 198 LINE",
"393 195 LINE",
"293 339 LINE",
"66 401 LINE",
"26 256 LINE",
"44 251 LINE",
"44 149 LINE",
"-78 116 LINE"
);
},
{
closed = 1;
nodes = (
"345 114 LINE",
"249 253 LINE",
"265 264 LINE",
"365 120 LINE",
"370 101 LINE",
"339 92 LINE",
"339 -12 LINE",
"265 -118 LINE",
"249 -107 LINE",
"319 -7 LINE",
"319 87 LINE",
"191 51 LINE",
"235 19 LINE",
"208 124 LINE",
"211 77 LINE"
);
},
{
closed = 1;
nodes = (
"110 99 LINE",
"110 301 LINE",
"100 304 LINE",
"105 322 LINE",
"219 291 LINE",
"214 272 LINE",
"130 295 LINE",
"130 105 LINE",
"186 119 LINE",
"150 151 LINE",
"179 47 LINE",
"190 103 LINE",
"130 85 LINE",
"130 -150 LINE",
"214 -127 LINE",
"219 -145 LINE",
"105 -177 LINE",
"100 -158 LINE",
"110 -155 LINE",
"110 79 LINE",
"60 65 LINE",
"47 113 LINE",
"36 79 LINE"
);
}
);
width = 405;
},
{
layerId = "8F9EA7C7-FA6E-4084-B685-AEA30DABFFDA";
width = 600;
}
);
unicode = FEEC;
},
{
glyphname = "heh-ar.init";
layers = (
{
anchors = (
{
name = bottom;
position = "{286, -50}";
},
{
name = top;
position = "{286, 500}";
}
);
layerId = "C1068CC4-E81B-47E6-9D26-F0E70787A68A";
paths = (
{
closed = 1;
nodes = (
"195 201 LINE",
"252 282 LINE",
"253 279 LINE",
"253 211 LINE",
"195 195 LINE"
);
},
{
closed = 1;
nodes = (
"319 161 LINE",
"319 365 LINE",
"304 361 LINE",
"299 380 LINE",
"401 408 LINE",
"343 427 LINE",
"362 350 LINE",
"407 390 LINE",
"339 371 LINE",
"339 167 LINE",
"368 175 LINE",
"344 232 LINE",
"371 125 LINE",
"372 156 LINE",
"46 66 LINE",
"61 43 LINE",
"34 150 LINE",
"45 86 LINE"
);
},
{
closed = 1;
nodes = (
"110 231 LINE",
"177 325 LINE",
"193 313 LINE",
"130 225 LINE",
"130 159 LINE",
"110 153 LINE"
);
},
{
closed = 1;
nodes = (
"555 169 LINE",
"555 149 LINE",
"322 85 LINE",
"337 62 LINE",
"319 132 LINE",
"321 105 LINE"
);
},
{
closed = 1;
nodes = (
"17 -11 LINE",
"278 61 LINE",
"293 8 LINE",
"607 95 LINE",
"607 251 LINE",
"412 198 LINE",
"404 229 LINE",
"404 320 LINE",
"429 327 LINE",
"390 473 LINE",
"214 425 LINE",
"231 360 LINE",
"157 412 LINE",
"44 248 LINE",
"44 154 LINE",
"-31 133 LINE",
"-40 197 LINE"
);
},
{
closed = 1;
nodes = (
"369 327 LINE",
"483 166 LINE",
"607 251 LINE",
"409 537 LINE",
"524 436 LINE"
);
},
{
closed = 1;
nodes = (
"517 230 LINE",
"449 329 LINE",
"464 340 LINE",
"586 165 LINE",
"587 277 LINE"
);
}
);
width = 622;
},
{
layerId = "8F9EA7C7-FA6E-4084-B685-AEA30DABFFDA";
width = 600;
}
);
unicode = FEEB;
},
{
glyphname = "hehgoal-ar.fina";
layers = (
{
anchors = (
{
name = bottom;
position = "{203, -50}";
},
{
name = top;
position = "{228, 420}";
}
);
layerId = "C1068CC4-E81B-47E6-9D26-F0E70787A68A";
paths = (
{
closed = 1;
nodes = (
"55 -15 LINE",
"205 26 LINE",
"167 168 LINE",
"196 210 LINE",
"256 226 LINE",
"256 157 LINE",
"230 150 LINE",
"270 4 LINE",
"434 49 LINE",
"407 150 LINE",
"407 267 LINE",
"432 274 LINE",
"393 420 LINE",
"102 340 LINE",
"15 214 LINE",
"15 131 LINE"
);
},
{
closed = 1;
nodes = (
"81 196 LINE",
"142 283 LINE",
"353 341 LINE",
"358 322 LINE",
"342 318 LINE",
"342 113 LINE",
"356 117 LINE",
"369 64 LINE",
"385 104 LINE",
"299 80 LINE",
"294 100 LINE",
"322 107 LINE",
"322 312 LINE",
"155 266 LINE",
"101 190 LINE",
"101 148 LINE",
"128 50 LINE",
"183 73 LINE",
"107 52 LINE",
"81 147 LINE"
);
}
);
width = 407;
},
{
layerId = "8F9EA7C7-FA6E-4084-B685-AEA30DABFFDA";
width = 600;
}
);
unicode = FBA7;
},
{
glyphname = "hehgoal-ar.medi";
layers = (
{
anchors = (
{
name = bottom;
position = "{203, -289}";
},
{
name = top;
position = "{203, 433}";
}
);
layerId = "C1068CC4-E81B-47E6-9D26-F0E70787A68A";
paths = (
{
closed = 1;
nodes = (
"-35 182 LINE",
"21 -14 LINE",
"44 -7 LINE",
"44 -105 LINE",
"26 -110 LINE",
"66 -256 LINE",
"293 -193 LINE",
"404 -33 LINE",
"404 42 LINE",
"443 52 LINE",
"404 198 LINE",
"231 151 LINE",
"253 70 LINE",
"253 14 LINE",
"199 -62 LINE",
"195 -63 LINE",
"195 34 LINE",
"156 180 LINE",
"-37 127 LINE"
);
},
{
closed = 1;
nodes = (
"124 103 LINE",
"130 83 LINE",
"130 -150 LINE",
"239 -120 LINE",
"319 -7 LINE",
"319 87 LINE",
"298 81 LINE",
"316 54 LINE",
"289 159 LINE",
"290 99 LINE",
"365 120 LINE",
"370 101 LINE",
"339 92 LINE",
"339 -12 LINE",
"253 -136 LINE",
"105 -177 LINE",
"100 -158 LINE",
"110 -155 LINE",
"110 79 LINE",
"60 65 LINE",
"55 84 LINE"
);
}
);
width = 405;
},
{
layerId = "8F9EA7C7-FA6E-4084-B685-AEA30DABFFDA";
width = 600;
}
);
unicode = FBA9;
},
{
glyphname = "hehgoal-ar.init";
layers = (
{
anchors = (
{
name = bottom;
position = "{112, -200}";
},
{
name = top;
position = "{112, 500}";
}
);
components = (
{
name = "behDotless-ar.init";
}
);
layerId = "C1068CC4-E81B-47E6-9D26-F0E70787A68A";
paths = (
{
closed = 1;
nodes = (
"82 -11 LINE",
"82 -130 LINE",
"169 -154 LINE",
"185 -97 LINE",
"146 -86 LINE",
"146 -13 LINE",
"67 -35 LINE"
);
},
{
closed = 1;
nodes = (
"104 -50 LINE",
"124 -44 LINE",
"124 -100 LINE",
"157 -110 LINE",
"152 -127 LINE",
"104 -115 LINE"
);
}
);
width = 224;
},
{
layerId = "8F9EA7C7-FA6E-4084-B685-AEA30DABFFDA";
width = 600;
}
);
unicode = FBA8;
},
{
glyphname = "waw-ar";
layers = (
{
anchors = (
{
name = bottom;
position = "{202, -269}";
},
{
name = center;
position = "{202, 250}";
},
{
name = top;
position = "{238, 449}";
}
);
layerId = "C1068CC4-E81B-47E6-9D26-F0E70787A68A";
paths = (
{
closed = 1;
nodes = (
"374 -146 LINE",
"374 306 LINE",
"388 357 LINE",
"96 437 LINE",
"57 291 LINE",
"223 245 LINE",
"223 -187 LINE"
);
},
{
closed = 1;
nodes = (
"288 -120 LINE",
"288 295 LINE",
"79 353 LINE",
"111 298 LINE",
"128 360 LINE",
"320 307 LINE",
"315 288 LINE",
"308 290 LINE",
"308 -114 LINE"
);
},
{
closed = 1;
nodes = (
"211 36 LINE",
"241 145 LINE",
"166 166 LINE",
"166 302 LINE",
"15 302 LINE",
"15 74 LINE",
"-38 108 LINE"
);
},
{
closed = 1;
nodes = (
"64 148 LINE",
"81 143 LINE",
"81 252 LINE",
"101 252 LINE",
"101 137 LINE",
"179 115 LINE",
"175 96 LINE",
"59 129 LINE"
);
}
);
width = 403;
},
{
layerId = "8F9EA7C7-FA6E-4084-B685-AEA30DABFFDA";
width = 600;
}
);
unicode = 0648;
},
{
glyphname = "alefMaksura-ar";
layers = (
{
anchors = (
{
name = bottom;
position = "{405, -168}";
},
{
name = top;
position = "{107, 116}";
}
);
layerId = "C1068CC4-E81B-47E6-9D26-F0E70787A68A";
paths = (
{
closed = 1;
nodes = (
"604 387 LINE",
"695 332 LINE",
"229 460 LINE",
"395 490 LINE",
"332 258 LINE",
"201 311 LINE",
"656 186 LINE",
"541 155 LINE"
);
},
{
closed = 1;
nodes = (
"562 -16 LINE",
"567 -36 LINE",
"132 -77 LINE",
"225 -76 LINE",
"78 -35 LINE",
"82 -17 LINE",
"229 -55 LINE",
"135 -57 LINE"
);
},
{
closed = 1;
nodes = (
"15 -84 LINE",
"211 -137 LINE",
"631 -97 LINE",
"592 49 LINE",
"228 16 LINE",
"53 61 LINE"
);
},
{
closed = 1;
nodes = (
"441 38 LINE",
"441 33 LINE",
"592 33 LINE",
"592 153 LINE",
"454 191 LINE",
"454 302 LINE",
"303 302 LINE",
"303 76 LINE"
);
},
{
closed = 1;
nodes = (
"369 254 LINE",
"389 254 LINE",
"389 141 LINE",
"567 92 LINE",
"548 151 LINE",
"548 44 LINE",
"565 72 LINE",
"369 126 LINE"
);
},
{
closed = 1;
nodes = (
"406 343 LINE",
"532 308 LINE",
"527 289 LINE",
"401 324 LINE"
);
}
);
width = 646;
},
{
layerId = "8F9EA7C7-FA6E-4084-B685-AEA30DABFFDA";
width = 600;
}
);
unicode = 0649;
},
{
glyphname = "alefMaksura-ar.fina";
layers = (
{
anchors = (
{
name = bottom;
position = "{405, -168}";
},
{
name = top;
position = "{107, 116}";
}
);
layerId = "C1068CC4-E81B-47E6-9D26-F0E70787A68A";
paths = (
{
closed = 1;
nodes = (
"562 -16 LINE",
"567 -36 LINE",
"132 -77 LINE",
"225 -76 LINE",
"78 -35 LINE",
"82 -17 LINE",
"229 -55 LINE",
"135 -57 LINE"
);
},
{
closed = 1;
nodes = (
"15 -84 LINE",
"211 -137 LINE",
"631 -97 LINE",
"592 49 LINE",
"228 16 LINE",
"53 61 LINE"
);
},
{
closed = 1;
nodes = (
"383 185 LINE",
"346 153 LINE",
"567 92 LINE",
"548 151 LINE",
"548 44 LINE",
"565 72 LINE",
"326 138 LINE",
"359 99 LINE"
);
},
{
closed = 1;
nodes = (
"559 6 LINE",
"566 33 LINE",
"592 33 LINE",
"592 128 LINE",
"598 152 LINE",
"342 222 LINE",
"299 63 LINE",
"158 116 LINE"
);
}
);
width = 588;
},
{
layerId = "8F9EA7C7-FA6E-4084-B685-AEA30DABFFDA";
width = 600;
}
);
unicode = FEF0;
},
{
glyphname = "yehbarree-ar";
layers = (
{
anchors = (
{
name = bottom;
position = "{203, -191}";
},
{
name = top;
position = "{122, 208}";
}
);
layerId = "C1068CC4-E81B-47E6-9D26-F0E70787A68A";
paths = (
{
closed = 1;
nodes = (
"467 -185 LINE",
"560 -159 LINE",
"523 -17 LINE",
"459 -34 LINE",
"198 -9 LINE",
"192 13 LINE",
"574 49 LINE",
"535 196 LINE",
"15 148 LINE",
"98 -167 LINE",
"-1 -141 LINE"
);
},
{
closed = 1;
nodes = (
"493 127 LINE",
"499 107 LINE",
"117 72 LINE",
"154 -70 LINE",
"460 -99 LINE",
"498 -89 LINE",
"503 -108 LINE",
"460 -119 LINE",
"138 -89 LINE",
"91 90 LINE"
);
}
);
width = 589;
},
{
layerId = "8F9EA7C7-FA6E-4084-B685-AEA30DABFFDA";
width = 600;
}
);
unicode = 06D2;
},
{
glyphname = "lam_alef-ar";
layers = (
{
anchors = (
{
name = " top_1  ";
position = "{448, 700}";
},
{
name = bottom_1;
position = "{488, -50}";
},
{
name = bottom_2;
position = "{144, -50}";
},
{
name = caret_1;
position = "{299, -50}";
},
{
name = top_2;
position = "{115, 670}";
}
);
layerId = "C1068CC4-E81B-47E6-9D26-F0E70787A68A";
paths = (
{
closed = 1;
nodes = (
"457 606 LINE",
"457 386 LINE",
"437 381 LINE",
"437 601 LINE"
);
},
{
closed = 1;
nodes = (
"330 266 LINE",
"397 172 LINE",
"264 160 LINE"
);
},
{
closed = 1;
nodes = (
"187 0 LINE",
"583 37 LINE",
"570 187 LINE",
"463 338 LINE",
"522 354 LINE",
"522 674 LINE",
"371 633 LINE",
"371 467 LINE",
"226 672 LINE",
"225 674 LINE",
"49 626 LINE",
"88 480 LINE",
"163 500 LINE",
"234 401 LINE",
"99 180 LINE",
"53 192 LINE",
"15 47 LINE"
);
},
{
closed = 1;
nodes = (
"68 52 LINE",
"85 115 LINE",
"129 102 LINE",
"313 402 LINE",
"189 576 LINE",
"119 557 LINE",
"114 576 LINE",
"197 599 LINE",
"488 190 LINE",
"472 178 LINE",
"325 385 LINE",
"149 97 LINE",
"185 87 LINE",
"524 119 LINE",
"526 99 LINE",
"182 67 LINE",
"35 108 LINE"
);
}
);
width = 600;
},
{
layerId = "8F9EA7C7-FA6E-4084-B685-AEA30DABFFDA";
width = 600;
}
);
unicode = FEFB;
},
{
glyphname = "lam_alef-ar.fina";
layers = (
{
anchors = (
{
name = bottom_1;
position = "{327, -50}";
},
{
name = bottom_2;
position = "{118, -50}";
},
{
name = caret_1;
position = "{222, 0}";
},
{
name = top_1;
position = "{309, 682}";
},
{
name = top_2;
position = "{118, 510}";
}
);
layerId = "C1068CC4-E81B-47E6-9D26-F0E70787A68A";
paths = (
{
closed = 1;
nodes = (
"218 -7 LINE",
"409 45 LINE",
"398 86 LINE",
"398 674 LINE",
"247 633 LINE",
"247 158 LINE",
"179 139 LINE"
);
},
{
closed = 1;
nodes = (
"358 117 LINE",
"363 97 LINE",
"237 64 LINE",
"232 83 LINE",
"312 105 LINE",
"312 599 LINE",
"332 604 LINE",
"332 110 LINE"
);
},
{
closed = 1;
nodes = (
"201 150 LINE",
"201 500 LINE",
"50 459 LINE",
"50 158 LINE",
"-18 139 LINE",
"21 -7 LINE",
"228 49 LINE"
);
},
{
closed = 1;
nodes = (
"204 129 LINE",
"166 165 LINE",
"193 57 LINE",
"210 108 LINE",
"40 64 LINE",
"35 83 LINE",
"115 105 LINE",
"115 425 LINE",
"135 430 LINE",
"135 110 LINE"
);
}
);
width = 398;
},
{
layerId = "8F9EA7C7-FA6E-4084-B685-AEA30DABFFDA";
width = 600;
}
);
unicode = FEFC;
},
{
glyphname = zero;
layers = (
{
layerId = "C1068CC4-E81B-47E6-9D26-F0E70787A68A";
paths = (
{
closed = 1;
nodes = (
"71 420 LINE",
"87 480 LINE",
"334 411 LINE",
"334 177 LINE",
"314 177 LINE",
"314 396 LINE",
"59 467 LINE"
);
},
{
closed = 1;
nodes = (
"388 -25 LINE",
"427 121 LINE",
"197 184 LINE",
"197 381 LINE",
"46 381 LINE",
"46 198 LINE",
"4 43 LINE",
"-53 96 LINE"
);
},
{
closed = 1;
nodes = (
"70 87 LINE",
"86 147 LINE",
"112 140 LINE",
"112 351 LINE",
"132 351 LINE",
"132 134 LINE",
"366 69 LINE",
"360 49 LINE",
"58 134 LINE"
);
},
{
closed = 1;
nodes = (
"248 347 LINE",
"248 144 LINE",
"399 144 LINE",
"399 459 LINE",
"399 462 LINE",
"56 556 LINE",
"7 376 LINE",
"-52 429 LINE"
);
}
);
width = 446;
},
{
layerId = "8F9EA7C7-FA6E-4084-B685-AEA30DABFFDA";
width = 600;
}
);
unicode = 0030;
},
{
glyphname = one;
layers = (
{
layerId = "C1068CC4-E81B-47E6-9D26-F0E70787A68A";
paths = (
{
closed = 1;
nodes = (
"67 389 LINE",
"84 455 LINE",
"170 432 LINE",
"165 412 LINE",
"165 104 LINE",
"199 95 LINE",
"194 75 LINE",
"108 98 LINE",
"113 118 LINE",
"145 109 LINE",
"145 417 LINE",
"43 445 LINE"
);
},
{
closed = 1;
nodes = (
"79 367 LINE",
"79 164 LINE",
"48 48 LINE",
"224 0 LINE",
"263 146 LINE",
"230 155 LINE",
"230 482 LINE",
"54 530 LINE",
"15 384 LINE"
);
}
);
width = 278;
},
{
layerId = "8F9EA7C7-FA6E-4084-B685-AEA30DABFFDA";
width = 600;
}
);
unicode = 0031;
},
{
glyphname = two;
layers = (
{
layerId = "C1068CC4-E81B-47E6-9D26-F0E70787A68A";
paths = (
{
closed = 1;
nodes = (
"457 190 LINE",
"541 139 LINE",
"60 184 LINE",
"209 223 LINE",
"187 -16 LINE",
"58 33 LINE",
"528 -12 LINE",
"435 -50 LINE"
);
},
{
closed = 1;
nodes = (
"-10 106 LINE",
"132 -14 LINE",
"445 354 LINE",
"458 489 LINE",
"61 526 LINE",
"47 374 LINE",
"47 286 LINE",
"198 323 LINE",
"198 362 LINE",
"250 357 LINE",
"-20 41 LINE"
);
},
{
closed = 1;
nodes = (
"101 457 LINE",
"408 429 LINE",
"406 408 LINE",
"122 75 LINE",
"107 88 LINE",
"382 411 LINE",
"133 434 LINE",
"133 354 LINE",
"113 349 LINE",
"113 436 LINE",
"99 437 LINE"
);
},
{
closed = 1;
nodes = (
"248 100 LINE",
"397 87 LINE",
"395 67 LINE",
"246 80 LINE"
);
}
);
width = 473;
},
{
layerId = "8F9EA7C7-FA6E-4084-B685-AEA30DABFFDA";
width = 600;
}
);
unicode = 0032;
},
{
glyphname = three;
layers = (
{
layerId = "C1068CC4-E81B-47E6-9D26-F0E70787A68A";
paths = (
{
closed = 1;
nodes = (
"140 379 LINE",
"99 476 LINE",
"100 442 LINE",
"292 476 LINE",
"248 527 LINE",
"302 425 LINE",
"295 456 LINE",
"109 423 LINE"
);
},
{
closed = 1;
nodes = (
"280 36 LINE",
"287 67 LINE",
"233 -35 LINE",
"277 16 LINE",
"85 50 LINE",
"84 16 LINE",
"125 113 LINE",
"94 69 LINE"
);
},
{
closed = 1;
nodes = (
"364 338 LINE",
"326 379 LINE",
"370 294 LINE",
"372 320 LINE",
"205 242 LINE",
"357 172 LINE",
"355 198 LINE",
"311 113 LINE",
"349 154 LINE",
"216 216 LINE",
"177 298 LINE",
"155 241 LINE"
);
},
{
closed = 1;
nodes = (
"285 -51 LINE",
"422 216 LINE",
"363 243 LINE",
"438 277 LINE",
"300 543 LINE",
"31 496 LINE",
"91 352 LINE",
"334 396 LINE",
"118 296 LINE",
"183 160 LINE",
"319 97 LINE",
"76 141 LINE",
"5 -26 LINE",
"-45 8 LINE"
);
}
);
width = 453;
},
{
associatedMasterId = "C1068CC4-E81B-47E6-9D26-F0E70787A68A";
layerId = "33BD757C-222A-4167-A157-84F642C69625";
name = "Aug 10 19, 12:31";
paths = (
{
closed = 1;
nodes = (
"366 104 LINE",
"413 80 LINE",
"29 150 LINE",
"101 201 LINE",
"5 -26 LINE",
"-45 8 LINE",
"285 -51 LINE"
);
},
{
closed = 1;
nodes = (
"44 343 LINE",
"428 413 LINE",
"382 386 LINE",
"300 543 LINE",
"-30 485 LINE",
"21 519 LINE",
"116 292 LINE"
);
},
{
closed = 1;
nodes = (
"140 379 LINE",
"99 476 LINE",
"100 442 LINE",
"292 476 LINE",
"248 527 LINE",
"302 425 LINE",
"295 456 LINE",
"109 423 LINE"
);
},
{
closed = 1;
nodes = (
"280 36 LINE",
"287 67 LINE",
"233 -35 LINE",
"277 16 LINE",
"85 50 LINE",
"84 16 LINE",
"125 113 LINE",
"94 69 LINE"
);
},
{
closed = 1;
nodes = (
"354 81 LINE",
"422 216 LINE",
"363 243 LINE",
"438 277 LINE",
"369 412 LINE",
"118 296 LINE",
"183 160 LINE"
);
},
{
closed = 1;
nodes = (
"191 270 LINE",
"187 256 LINE",
"364 338 LINE",
"326 379 LINE",
"370 294 LINE",
"372 320 LINE",
"204 242 LINE"
);
},
{
closed = 1;
nodes = (
"357 172 LINE",
"355 198 LINE",
"311 113 LINE",
"349 154 LINE",
"172 236 LINE",
"220 207 LINE",
"196 259 LINE",
"180 254 LINE"
);
}
);
width = 453;
},
{
layerId = "8F9EA7C7-FA6E-4084-B685-AEA30DABFFDA";
width = 600;
}
);
unicode = 0033;
},
{
glyphname = four;
layers = (
{
layerId = "C1068CC4-E81B-47E6-9D26-F0E70787A68A";
paths = (
{
closed = 1;
nodes = (
"190 254 LINE",
"190 507 LINE",
"39 544 LINE",
"39 254 LINE"
);
},
{
closed = 1;
nodes = (
"105 304 LINE",
"105 478 LINE",
"125 473 LINE",
"125 304 LINE"
);
},
{
closed = 1;
nodes = (
"421 158 LINE",
"419 138 LINE",
"337 146 LINE",
"337 50 LINE",
"317 50 LINE",
"317 148 LINE",
"70 171 LINE",
"72 191 LINE",
"317 168 LINE",
"317 364 LINE",
"337 364 LINE",
"337 166 LINE"
);
},
{
closed = 1;
nodes = (
"251 88 LINE",
"251 0 LINE",
"402 0 LINE",
"402 74 LINE",
"462 68 LINE",
"476 219 LINE",
"402 226 LINE",
"402 414 LINE",
"251 414 LINE",
"251 240 LINE",
"29 261 LINE",
"11 65 LINE",
"-17 114 LINE"
);
}
);
width = 481;
},
{
layerId = "8F9EA7C7-FA6E-4084-B685-AEA30DABFFDA";
width = 600;
}
);
unicode = 0034;
},
{
glyphname = five;
layers = (
{
layerId = "C1068CC4-E81B-47E6-9D26-F0E70787A68A";
paths = (
{
closed = 1;
nodes = (
"366 128 LINE",
"413 104 LINE",
"29 174 LINE",
"101 225 LINE",
"5 -2 LINE",
"-45 32 LINE",
"329 -35 LINE",
"264 -67 LINE"
);
},
{
closed = 1;
nodes = (
"0 359 LINE",
"470 404 LINE",
"382 355 LINE",
"360 594 LINE",
"468 555 LINE",
"-13 510 LINE",
"17 561 LINE",
"39 321 LINE"
);
},
{
closed = 1;
nodes = (
"280 60 LINE",
"287 91 LINE",
"233 -11 LINE",
"277 40 LINE",
"85 74 LINE",
"84 40 LINE",
"125 137 LINE",
"94 93 LINE"
);
},
{
closed = 1;
nodes = (
"85 376 LINE",
"49 338 LINE",
"357 196 LINE",
"355 222 LINE",
"311 137 LINE",
"349 178 LINE",
"45 320 LINE",
"85 268 LINE"
);
},
{
closed = 1;
nodes = (
"23 258 LINE",
"354 105 LINE",
"422 240 LINE",
"121 378 LINE",
"121 381 LINE",
"35 381 LINE",
"34 254 LINE",
"13 208 LINE"
);
},
{
closed = 1;
nodes = (
"319 476 LINE",
"321 456 LINE",
"78 433 LINE",
"76 453 LINE"
);
}
);
width = 437;
},
{
layerId = "8F9EA7C7-FA6E-4084-B685-AEA30DABFFDA";
width = 600;
}
);
unicode = 0035;
},
{
glyphname = six;
layers = (
{
layerId = "C1068CC4-E81B-47E6-9D26-F0E70787A68A";
paths = (
{
closed = 1;
nodes = (
"304 44 LINE",
"309 64 LINE",
"124 115 LINE",
"124 420 LINE",
"264 458 LINE",
"259 477 LINE",
"124 440 LINE",
"124 461 LINE",
"104 456 LINE",
"104 120 LINE",
"84 126 LINE",
"79 107 LINE"
);
},
{
closed = 1;
nodes = (
"313 248 LINE",
"313 158 LINE",
"333 158 LINE",
"333 243 LINE",
"361 235 LINE",
"366 255 LINE",
"240 289 LINE",
"235 270 LINE"
);
},
{
closed = 1;
nodes = (
"209 364 LINE",
"429 304 LINE",
"398 183 LINE",
"398 108 LINE",
"247 108 LINE",
"247 200 LINE",
"172 220 LINE"
);
},
{
closed = 1;
nodes = (
"38 141 LINE",
"38 488 LINE",
"290 554 LINE",
"327 409 LINE",
"189 372 LINE",
"189 165 LINE",
"373 114 LINE",
"333 -31 LINE",
"15 56 LINE"
);
}
);
width = 444;
},
{
layerId = "8F9EA7C7-FA6E-4084-B685-AEA30DABFFDA";
width = 600;
}
);
unicode = 0036;
},
{
glyphname = seven;
layers = (
{
layerId = "C1068CC4-E81B-47E6-9D26-F0E70787A68A";
paths = (
{
closed = 1;
nodes = (
"96 0 LINE",
"405 29 LINE",
"254 -5 LINE",
"367 417 LINE",
"383 397 LINE",
"146 332 LINE",
"210 416 LINE",
"97 -6 LINE"
);
},
{
closed = 1;
nodes = (
"-65 335 LINE",
"405 380 LINE",
"372 331 LINE",
"350 570 LINE",
"403 531 LINE",
"-78 486 LINE",
"11 537 LINE",
"33 297 LINE"
);
},
{
closed = 1;
nodes = (
"311 456 LINE",
"313 436 LINE",
"73 414 LINE",
"71 434 LINE"
);
},
{
closed = 1;
nodes = (
"278 338 LINE",
"203 60 LINE",
"125 53 LINE",
"177 39 LINE",
"250 310 LINE",
"340 335 LINE"
);
}
);
width = 383;
},
{
layerId = "8F9EA7C7-FA6E-4084-B685-AEA30DABFFDA";
width = 600;
}
);
unicode = 0037;
},
{
glyphname = eight;
layers = (
{
layerId = "C1068CC4-E81B-47E6-9D26-F0E70787A68A";
paths = (
{
closed = 1;
nodes = (
"271 61 LINE",
"265 41 LINE",
"80 93 LINE",
"85 113 LINE",
"102 108 LINE",
"102 163 LINE",
"122 167 LINE",
"122 102 LINE"
);
},
{
closed = 1;
nodes = (
"187 201 LINE",
"245 186 LINE",
"245 136 LINE",
"187 152 LINE"
);
},
{
closed = 1;
nodes = (
"161 479 LINE",
"167 499 LINE",
"352 447 LINE",
"347 427 LINE",
"330 432 LINE",
"330 367 LINE",
"310 363 LINE",
"310 438 LINE"
);
},
{
closed = 1;
nodes = (
"295 -35 LINE",
"310 20 LINE",
"396 20 LINE",
"396 169 LINE",
"427 290 LINE",
"328 317 LINE",
"396 331 LINE",
"396 422 LINE",
"417 498 LINE",
"137 575 LINE",
"116 500 LINE",
"36 500 LINE",
"36 241 LINE",
"126 217 LINE",
"36 199 LINE",
"36 118 LINE",
"-4 -28 LINE",
"-153 88 LINE"
);
},
{
closed = 1;
nodes = (
"187 404 LINE",
"245 388 LINE",
"245 339 LINE",
"187 355 LINE"
);
},
{
closed = 1;
nodes = (
"102 450 LINE",
"122 450 LINE",
"122 307 LINE",
"364 240 LINE",
"359 221 LINE",
"331 229 LINE",
"331 70 LINE",
"311 70 LINE",
"311 234 LINE",
"102 291 LINE"
);
}
);
width = 442;
},
{
layerId = "8F9EA7C7-FA6E-4084-B685-AEA30DABFFDA";
width = 600;
}
);
unicode = 0038;
},
{
glyphname = nine;
layers = (
{
layerId = "C1068CC4-E81B-47E6-9D26-F0E70787A68A";
paths = (
{
closed = 1;
nodes = (
"124 422 LINE",
"142 489 LINE",
"361 428 LINE",
"356 409 LINE",
"340 414 LINE",
"340 56 LINE",
"344 37 LINE",
"184 -6 LINE",
"180 13 LINE",
"320 51 LINE",
"320 419 LINE",
"111 477 LINE"
);
},
{
closed = 1;
nodes = (
"142 489 LINE",
"153 527 LINE",
"117 496 LINE"
);
},
{
closed = 1;
nodes = (
"255 369 LINE",
"255 102 LINE",
"117 65 LINE",
"153 -78 LINE",
"406 -10 LINE",
"406 393 LINE",
"429 478 LINE",
"111 565 LINE",
"61 382 LINE",
"15 435 LINE"
);
},
{
closed = 1;
nodes = (
"83 239 LINE",
"112 231 LINE",
"112 376 LINE",
"132 376 LINE",
"132 226 LINE",
"209 205 LINE",
"204 186 LINE",
"78 221 LINE"
);
},
{
closed = 1;
nodes = (
"235 110 LINE",
"272 257 LINE",
"143 291 LINE",
"197 291 LINE",
"197 426 LINE",
"46 426 LINE",
"46 291 LINE",
"2 120 LINE",
"-116 205 LINE"
);
}
);
width = 444;
},
{
layerId = "8F9EA7C7-FA6E-4084-B685-AEA30DABFFDA";
width = 600;
}
);
unicode = 0039;
},
{
glyphname = "zero-ar";
layers = (
{
layerId = "C1068CC4-E81B-47E6-9D26-F0E70787A68A";
paths = (
{
closed = 1;
nodes = (
"240 305 LINE",
"64 353 LINE",
"25 207 LINE",
"201 159 LINE"
);
},
{
closed = 1;
nodes = (
"81 227 LINE",
"108 334 LINE",
"77 282 LINE",
"204 247 LINE",
"184 286 LINE",
"157 179 LINE",
"196 229 LINE",
"76 262 LINE"
);
}
);
width = 265;
},
{
layerId = "8F9EA7C7-FA6E-4084-B685-AEA30DABFFDA";
width = 600;
}
);
unicode = 0660;
},
{
glyphname = "one-ar";
layers = (
{
layerId = "C1068CC4-E81B-47E6-9D26-F0E70787A68A";
paths = (
{
closed = 1;
nodes = (
"216 482 LINE",
"65 523 LINE",
"65 41 LINE",
"216 0 LINE"
);
},
{
closed = 1;
nodes = (
"150 67 LINE",
"130 73 LINE",
"130 455 LINE",
"150 450 LINE"
);
}
);
width = 281;
},
{
layerId = "8F9EA7C7-FA6E-4084-B685-AEA30DABFFDA";
width = 600;
}
);
unicode = 0661;
},
{
glyphname = "two-ar";
layers = (
{
layerId = "C1068CC4-E81B-47E6-9D26-F0E70787A68A";
paths = (
{
closed = 1;
nodes = (
"350 537 LINE",
"461 486 LINE",
"-20 531 LINE",
"35 570 LINE",
"13 331 LINE",
"-22 380 LINE",
"448 335 LINE",
"328 297 LINE"
);
},
{
closed = 1;
nodes = (
"168 347 LINE",
"32 384 LINE",
"17 376 LINE",
"17 41 LINE",
"168 0 LINE"
);
},
{
closed = 1;
nodes = (
"70 402 LINE",
"80 512 LINE",
"65 457 LINE",
"302 435 LINE",
"294 467 LINE",
"284 357 LINE",
"300 415 LINE",
"63 437 LINE"
);
},
{
closed = 1;
nodes = (
"102 67 LINE",
"82 73 LINE",
"82 320 LINE",
"102 315 LINE"
);
}
);
width = 361;
},
{
layerId = "8F9EA7C7-FA6E-4084-B685-AEA30DABFFDA";
width = 600;
}
);
unicode = 0662;
},
{
glyphname = "three-ar";
layers = (
{
layerId = "C1068CC4-E81B-47E6-9D26-F0E70787A68A";
paths = (
{
closed = 1;
nodes = (
"166 500 LINE",
"15 459 LINE",
"15 41 LINE",
"166 0 LINE"
);
},
{
closed = 1;
nodes = (
"404 430 LINE",
"424 435 LINE",
"424 284 LINE",
"459 293 LINE",
"430 300 LINE",
"449 226 LINE",
"461 272 LINE",
"285 227 LINE",
"353 194 LINE",
"326 301 LINE",
"281 245 LINE",
"404 279 LINE"
);
},
{
closed = 1;
nodes = (
"243 430 LINE",
"263 435 LINE",
"263 239 LINE",
"233 273 LINE",
"312 293 LINE",
"283 300 LINE",
"302 226 LINE",
"314 272 LINE",
"138 227 LINE",
"206 194 LINE",
"179 301 LINE",
"134 245 LINE",
"300 291 LINE",
"243 234 LINE"
);
},
{
closed = 1;
nodes = (
"163 171 LINE",
"300 209 LINE",
"310 171 LINE",
"501 223 LINE",
"490 264 LINE",
"490 500 LINE",
"339 459 LINE",
"339 336 LINE",
"313 329 LINE",
"313 500 LINE",
"192 459 LINE",
"192 336 LINE",
"124 317 LINE"
);
},
{
closed = 1;
nodes = (
"100 67 LINE",
"80 73 LINE",
"80 430 LINE",
"100 435 LINE"
);
}
);
width = 516;
},
{
layerId = "8F9EA7C7-FA6E-4084-B685-AEA30DABFFDA";
width = 600;
}
);
unicode = 0663;
},
{
glyphname = "four-ar";
layers = (
{
layerId = "C1068CC4-E81B-47E6-9D26-F0E70787A68A";
paths = (
{
closed = 1;
nodes = (
"252 269 LINE",
"114 333 LINE",
"123 351 LINE",
"269 283 LINE",
"270 322 LINE",
"226 222 LINE"
);
},
{
closed = 1;
nodes = (
"188 474 LINE",
"330 449 LINE",
"322 430 LINE",
"162 458 LINE",
"163 426 LINE"
);
},
{
closed = 1;
nodes = (
"191 214 LINE",
"139 190 LINE",
"130 208 LINE",
"183 233 LINE"
);
},
{
closed = 1;
nodes = (
"178 83 LINE",
"338 111 LINE",
"346 92 LINE",
"204 67 LINE",
"179 115 LINE"
);
},
{
closed = 1;
nodes = (
"99 267 LINE",
"40 240 LINE",
"167 -7 LINE",
"437 41 LINE",
"376 185 LINE",
"220 157 LINE",
"278 184 LINE",
"344 320 LINE",
"207 384 LINE",
"361 356 LINE",
"421 500 LINE",
"152 547 LINE",
"4 261 LINE",
"-32 327 LINE"
);
}
);
width = 462;
},
{
associatedMasterId = "C1068CC4-E81B-47E6-9D26-F0E70787A68A";
layerId = "5B74E352-A378-432A-8B4C-B189F93569C0";
name = "Aug 10 19, 19:30";
paths = (
{
closed = 1;
nodes = (
"243 269 LINE",
"105 333 LINE",
"114 351 LINE",
"260 283 LINE",
"261 322 LINE",
"217 222 LINE"
);
},
{
closed = 1;
nodes = (
"189 494 LINE",
"331 469 LINE",
"323 450 LINE",
"163 478 LINE",
"164 446 LINE"
);
},
{
closed = 1;
nodes = (
"182 214 LINE",
"130 190 LINE",
"121 208 LINE",
"174 233 LINE"
);
},
{
closed = 1;
nodes = (
"179 63 LINE",
"339 91 LINE",
"347 72 LINE",
"205 47 LINE",
"180 95 LINE"
);
},
{
closed = 1;
nodes = (
"90 267 LINE",
"31 240 LINE",
"169 -26 LINE",
"438 21 LINE",
"378 165 LINE",
"135 121 LINE",
"270 184 LINE",
"334 320 LINE",
"119 420 LINE",
"362 376 LINE",
"422 520 LINE",
"153 567 LINE",
"15 301 LINE"
);
}
);
width = 453;
},
{
layerId = "8F9EA7C7-FA6E-4084-B685-AEA30DABFFDA";
width = 600;
}
);
unicode = 0664;
},
{
glyphname = "five-ar";
layers = (
{
layerId = "C1068CC4-E81B-47E6-9D26-F0E70787A68A";
paths = (
{
closed = 1;
nodes = (
"407 -8 LINE",
"421 143 LINE",
"421 365 LINE",
"432 484 LINE",
"114 514 LINE",
"112 492 LINE",
"28 172 LINE",
"11 -16 LINE",
"-22 33 LINE"
);
},
{
closed = 1;
nodes = (
"181 172 LINE",
"225 352 LINE",
"270 347 LINE",
"270 157 LINE",
"106 172 LINE"
);
},
{
closed = 1;
nodes = (
"82 109 LINE",
"336 85 LINE",
"336 341 LINE",
"356 339 LINE",
"356 83 LINE",
"354 63 LINE",
"80 89 LINE"
);
},
{
closed = 1;
nodes = (
"157 436 LINE",
"159 444 LINE",
"366 424 LINE",
"365 404 LINE",
"174 422 LINE",
"116 202 LINE",
"96 202 LINE"
);
}
);
width = 447;
},
{
layerId = "8F9EA7C7-FA6E-4084-B685-AEA30DABFFDA";
width = 600;
}
);
unicode = 0665;
},
{
glyphname = "seven-ar";
layers = (
{
layerId = "C1068CC4-E81B-47E6-9D26-F0E70787A68A";
paths = (
{
closed = 1;
nodes = (
"187 0 LINE",
"393 0 LINE",
"347 -25 LINE",
"511 589 LINE",
"511 500 LINE",
"291 500 LINE",
"347 560 LINE",
"190 -79 LINE"
);
},
{
closed = 1;
nodes = (
"155 560 LINE",
"211 500 LINE",
"-9 500 LINE",
"-9 589 LINE",
"169 -75 LINE",
"137 0 LINE",
"227 0 LINE",
"245 247 LINE",
"312 -79 LINE"
);
},
{
closed = 1;
nodes = (
"202 50 LINE",
"93 455 LINE",
"37 448 LINE",
"115 448 LINE",
"224 43 LINE",
"268 50 LINE"
);
},
{
closed = 1;
nodes = (
"278 43 LINE",
"387 448 LINE",
"465 448 LINE",
"409 455 LINE",
"300 50 LINE",
"234 50 LINE"
);
}
);
width = 502;
},
{
layerId = "8F9EA7C7-FA6E-4084-B685-AEA30DABFFDA";
width = 600;
}
);
unicode = 0667;
},
{
glyphname = "nine-ar";
layers = (
{
layerId = "C1068CC4-E81B-47E6-9D26-F0E70787A68A";
paths = (
{
closed = 1;
nodes = (
"320 29 LINE",
"320 389 LINE",
"111 447 LINE",
"143 392 LINE",
"160 454 LINE",
"395 389 LINE",
"373 445 LINE",
"346 338 LINE",
"390 370 LINE",
"340 384 LINE",
"340 35 LINE"
);
},
{
closed = 1;
nodes = (
"255 339 LINE",
"255 -37 LINE",
"406 0 LINE",
"406 363 LINE",
"429 448 LINE",
"128 531 LINE",
"80 352 LINE",
"15 405 LINE"
);
},
{
closed = 1;
nodes = (
"235 80 LINE",
"272 227 LINE",
"197 247 LINE",
"197 396 LINE",
"46 396 LINE",
"46 261 LINE",
"2 90 LINE",
"-116 175 LINE"
);
},
{
closed = 1;
nodes = (
"83 209 LINE",
"112 201 LINE",
"112 346 LINE",
"132 346 LINE",
"132 196 LINE",
"209 175 LINE",
"204 156 LINE",
"78 191 LINE"
);
}
);
width = 444;
},
{
layerId = "8F9EA7C7-FA6E-4084-B685-AEA30DABFFDA";
width = 600;
}
);
unicode = 0669;
},
{
glyphname = "four-persian";
layers = (
{
layerId = "C1068CC4-E81B-47E6-9D26-F0E70787A68A";
paths = (
{
closed = 1;
nodes = (
"166 500 LINE",
"15 459 LINE",
"15 41 LINE",
"166 0 LINE"
);
},
{
closed = 1;
nodes = (
"459 293 LINE",
"430 300 LINE",
"449 226 LINE",
"461 272 LINE",
"285 227 LINE",
"353 194 LINE",
"326 301 LINE",
"281 245 LINE"
);
},
{
closed = 1;
nodes = (
"100 67 LINE",
"80 73 LINE",
"80 430 LINE",
"100 435 LINE"
);
},
{
closed = 1;
nodes = (
"163 171 LINE",
"300 209 LINE",
"310 171 LINE",
"501 223 LINE",
"462 369 LINE",
"313 328 LINE",
"313 412 LINE",
"384 432 LINE",
"364 507 LINE",
"218 467 LINE",
"218 343 LINE",
"124 317 LINE"
);
},
{
closed = 1;
nodes = (
"255 279 LINE",
"255 447 LINE",
"325 466 LINE",
"330 447 LINE",
"275 431 LINE",
"275 284 LINE",
"286 287 LINE",
"292 266 LINE",
"194 241 LINE",
"179 301 LINE",
"134 245 LINE"
);
}
);
width = 516;
},
{
layerId = "8F9EA7C7-FA6E-4084-B685-AEA30DABFFDA";
width = 600;
}
);
unicode = 06F4;
},
{
glyphname = "five-persian";
layers = (
{
components = (
{
name = "five-ar";
}
);
layerId = "C1068CC4-E81B-47E6-9D26-F0E70787A68A";
paths = (
{
closed = 1;
nodes = (
"214 130 LINE",
"235 128 LINE",
"245 248 LINE",
"224 250 LINE"
);
}
);
width = 447;
},
{
layerId = "8F9EA7C7-FA6E-4084-B685-AEA30DABFFDA";
width = 600;
}
);
unicode = 06F5;
},
{
glyphname = "six-persian";
layers = (
{
layerId = "C1068CC4-E81B-47E6-9D26-F0E70787A68A";
paths = (
{
closed = 1;
nodes = (
"90 247 LINE",
"31 220 LINE",
"99 85 LINE",
"270 164 LINE",
"335 300 LINE",
"120 400 LINE",
"362 356 LINE",
"422 500 LINE",
"153 547 LINE",
"-5 241 LINE",
"-41 307 LINE"
);
},
{
closed = 1;
nodes = (
"243 249 LINE",
"105 313 LINE",
"114 331 LINE",
"260 263 LINE",
"261 302 LINE",
"217 202 LINE"
);
},
{
closed = 1;
nodes = (
"189 474 LINE",
"331 449 LINE",
"323 430 LINE",
"163 458 LINE",
"164 426 LINE"
);
},
{
closed = 1;
nodes = (
"182 194 LINE",
"130 170 LINE",
"121 188 LINE",
"174 213 LINE"
);
}
);
width = 437;
},
{
layerId = "8F9EA7C7-FA6E-4084-B685-AEA30DABFFDA";
width = 600;
}
);
unicode = 06F6;
},
{
glyphname = comma;
layers = (
{
components = (
{
name = "fullstop-ar";
transform = "{1, 0, 0, 1, 18, 0}";
}
);
layerId = "C1068CC4-E81B-47E6-9D26-F0E70787A68A";
paths = (
{
closed = 1;
nodes = (
"92 -80 LINE",
"135 -91 LINE",
"171 44 LINE",
"126 47 LINE"
);
}
);
width = 219;
},
{
associatedMasterId = "C1068CC4-E81B-47E6-9D26-F0E70787A68A";
layerId = "F14F3F70-50D9-4BEC-BAD2-D8E65CE342DE";
name = "Aug 13 19, 13:26";
paths = (
{
closed = 1;
nodes = (
"30 0 LINE",
"143 0 LINE",
"143 113 LINE",
"30 113 LINE"
);
},
{
closed = 1;
nodes = (
"99 -86 LINE",
"143 -86 LINE",
"143 45 LINE",
"99 45 LINE"
);
}
);
width = 173;
},
{
layerId = "8F9EA7C7-FA6E-4084-B685-AEA30DABFFDA";
width = 600;
}
);
unicode = 002C;
},
{
glyphname = exclam;
layers = (
{
layerId = "C1068CC4-E81B-47E6-9D26-F0E70787A68A";
paths = (
{
closed = 1;
nodes = (
"180 194 LINE",
"190 604 LINE",
"39 604 LINE",
"49 194 LINE"
);
},
{
closed = 1;
nodes = (
"198 117 LINE",
"60 155 LINE",
"30 40 LINE",
"167 2 LINE"
);
},
{
closed = 1;
nodes = (
"105 244 LINE",
"105 554 LINE",
"125 554 LINE",
"125 244 LINE"
);
},
{
closed = 1;
nodes = (
"87 97 LINE",
"145 81 LINE",
"139 61 LINE",
"81 77 LINE"
);
}
);
width = 228;
},
{
layerId = "8F9EA7C7-FA6E-4084-B685-AEA30DABFFDA";
width = 600;
}
);
unicode = 0021;
},
{
glyphname = question;
layers = (
{
background = {
paths = (
{
closed = 1;
nodes = (
"415 467 LINE",
"396 414 LINE",
"333 646 LINE",
"387 616 LINE",
"-79 488 LINE",
"6 547 LINE",
"69 315 LINE",
"-40 342 LINE"
);
},
{
closed = 1;
nodes = (
"40 83 LINE",
"406 183 LINE",
"363 127 LINE",
"363 360 LINE",
"369 327 LINE",
"40 232 LINE",
"72 281 LINE",
"132 46 LINE"
);
},
{
closed = 1;
nodes = (
"363 440 LINE",
"212 440 LINE",
"212 262 LINE",
"363 262 LINE"
);
},
{
closed = 1;
nodes = (
"232 162 LINE",
"81 244 LINE",
"81 31 LINE",
"232 72 LINE"
);
},
{
closed = 1;
nodes = (
"300 -49 LINE",
"268 -85 LINE",
"238 31 LINE",
"90 -9 LINE",
"120 -126 LINE",
"66 -114 LINE"
);
}
);
};
layerId = "C1068CC4-E81B-47E6-9D26-F0E70787A68A";
paths = (
{
closed = 1;
nodes = (
"300 -49 LINE",
"268 -85 LINE",
"238 31 LINE",
"90 -9 LINE",
"120 -126 LINE",
"66 -114 LINE"
);
},
{
closed = 1;
nodes = (
"363 452 LINE",
"384 458 LINE",
"344 604 LINE",
"-79 488 LINE",
"6 547 LINE",
"55 368 LINE",
"255 423 LINE",
"212 436 LINE",
"212 302 LINE",
"363 302 LINE"
);
},
{
closed = 1;
nodes = (
"81 31 LINE",
"232 72 LINE",
"232 138 LINE",
"363 176 LINE",
"363 325 LINE",
"81 244 LINE"
);
},
{
closed = 1;
nodes = (
"306 525 LINE",
"311 506 LINE",
"298 503 LINE",
"298 352 LINE",
"278 352 LINE",
"278 497 LINE",
"93 447 LINE",
"81 492 LINE",
"79 463 LINE"
);
},
{
closed = 1;
nodes = (
"303 243 LINE",
"303 222 LINE",
"167 183 LINE",
"167 114 LINE",
"147 109 LINE",
"147 177 LINE",
"137 174 LINE",
"137 240 LINE",
"123 191 LINE"
);
},
{
closed = 1;
nodes = (
"150 -52 LINE",
"145 -34 LINE",
"199 -19 LINE",
"204 -37 LINE"
);
}
);
width = 399;
},
{
layerId = "8F9EA7C7-FA6E-4084-B685-AEA30DABFFDA";
width = 600;
}
);
unicode = 003F;
},
{
glyphname = asterisk;
layers = (
{
layerId = "C1068CC4-E81B-47E6-9D26-F0E70787A68A";
paths = (
{
closed = 1;
nodes = (
"13 523 LINE",
"106 449 LINE",
"30 389 LINE",
"83 320 LINE",
"132 359 LINE",
"132 297 LINE",
"218 297 LINE",
"218 359 LINE",
"267 320 LINE",
"320 389 LINE",
"244 449 LINE",
"320 509 LINE",
"266 576 LINE",
"218 538 LINE",
"218 598 LINE",
"132 598 LINE",
"132 538 LINE",
"84 576 LINE",
"9 483 LINE"
);
}
);
width = 350;
},
{
associatedMasterId = "C1068CC4-E81B-47E6-9D26-F0E70787A68A";
layerId = "21EDA498-DBB0-4305-A051-0CAED510F5F9";
name = "Aug 13 19, 13:18";
paths = (
{
closed = 1;
nodes = (
"8 542 LINE",
"125 449 LINE",
"30 374 LINE",
"96 288 LINE",
"157 337 LINE",
"157 259 LINE",
"265 259 LINE",
"265 337 LINE",
"326 288 LINE",
"392 374 LINE",
"297 449 LINE",
"392 524 LINE",
"325 608 LINE",
"265 560 LINE",
"265 636 LINE",
"157 636 LINE",
"157 560 LINE",
"97 608 LINE",
"4 492 LINE"
);
},
{
closed = 1;
nodes = (
"195 448 LINE",
"86 535 LINE",
"98 551 LINE",
"201 469 LINE",
"201 596 LINE",
"221 596 LINE",
"221 469 LINE",
"324 551 LINE",
"336 535 LINE",
"227 448 LINE",
"334 364 LINE",
"321 347 LINE",
"221 428 LINE",
"221 299 LINE",
"201 299 LINE",
"201 428 LINE",
"101 347 LINE",
"66 393 LINE",
"61 342 LINE"
);
}
);
width = 422;
},
{
layerId = "8F9EA7C7-FA6E-4084-B685-AEA30DABFFDA";
width = 600;
}
);
unicode = 002A;
},
{
glyphname = numbersign;
layers = (
{
layerId = "C1068CC4-E81B-47E6-9D26-F0E70787A68A";
paths = (
{
closed = 1;
nodes = (
"86 349 LINE",
"559 349 LINE",
"595 452 LINE",
"121 452 LINE"
);
},
{
closed = 1;
nodes = (
"30 196 LINE",
"504 196 LINE",
"539 299 LINE",
"66 299 LINE"
);
},
{
closed = 1;
nodes = (
"173.341 41.578 LINE",
"347.51 519.687 LINE",
"259.401 579.109 LINE",
"68.157 55.238 LINE",
"81.135 127.638 LINE",
"185.636 57.287 LINE"
);
},
{
closed = 1;
nodes = (
"359.341 41.578 LINE",
"533.51 519.687 LINE",
"445.401 579.109 LINE",
"254.157 55.238 LINE",
"267.135 127.638 LINE",
"371.636 57.287 LINE"
);
}
);
width = 625;
},
{
layerId = "8F9EA7C7-FA6E-4084-B685-AEA30DABFFDA";
width = 600;
}
);
unicode = 0023;
},
{
glyphname = backslash;
layers = (
{
layerId = "C1068CC4-E81B-47E6-9D26-F0E70787A68A";
paths = (
{
closed = 1;
nodes = (
"420 39 LINE",
"439 -67 LINE",
"159 700 LINE",
"30 613 LINE",
"285 -87 LINE",
"267 -64 LINE"
);
},
{
closed = 1;
nodes = (
"146 632 LINE",
"110 645 LINE",
"347 -4 LINE",
"385 75 LINE",
"298 17 LINE",
"328 -11 LINE",
"93 634 LINE",
"69 580 LINE"
);
}
);
width = 434;
},
{
layerId = "8F9EA7C7-FA6E-4084-B685-AEA30DABFFDA";
width = 600;
}
);
unicode = 005C;
},
{
glyphname = braceleft;
layers = (
{
layerId = "C1068CC4-E81B-47E6-9D26-F0E70787A68A";
paths = (
{
closed = 1;
nodes = (
"153 385 LINE",
"105 343 LINE",
"229 270 LINE",
"229 62 LINE",
"209 54 LINE",
"209 259 LINE",
"87 331 LINE",
"97 290 LINE"
);
},
{
closed = 1;
nodes = (
"143 222 LINE",
"143 -24 LINE",
"294 37 LINE",
"294 308 LINE",
"222 350 LINE",
"294 392 LINE",
"294 663 LINE",
"143 724 LINE",
"143 478 LINE",
"30 412 LINE",
"65 350 LINE",
"-2 232 LINE",
"-22 319 LINE"
);
},
{
closed = 1;
nodes = (
"87 369 LINE",
"209 441 LINE",
"209 646 LINE",
"229 638 LINE",
"229 430 LINE",
"105 357 LINE",
"153 315 LINE",
"97 410 LINE"
);
}
);
width = 324;
},
{
layerId = "8F9EA7C7-FA6E-4084-B685-AEA30DABFFDA";
width = 600;
}
);
unicode = 007B;
},
{
glyphname = bracketright;
layers = (
{
layerId = "C1068CC4-E81B-47E6-9D26-F0E70787A68A";
paths = (
{
closed = 1;
nodes = (
"-2 131 LINE",
"104 -56 LINE",
"294 55 LINE",
"294 643 LINE",
"104 754 LINE",
"30 623 LINE",
"143 557 LINE",
"143 141 LINE",
"-22 44 LINE"
);
},
{
closed = 1;
nodes = (
"209 594 LINE",
"87 666 LINE",
"97 625 LINE",
"153 720 LINE",
"105 678 LINE",
"229 605 LINE",
"229 93 LINE",
"105 20 LINE",
"153 -22 LINE",
"97 73 LINE",
"87 32 LINE",
"209 104 LINE"
);
}
);
width = 324;
},
{
layerId = "8F9EA7C7-FA6E-4084-B685-AEA30DABFFDA";
width = 600;
}
);
unicode = 005D;
},
{
glyphname = hyphen;
layers = (
{
layerId = "C1068CC4-E81B-47E6-9D26-F0E70787A68A";
paths = (
{
closed = 1;
nodes = (
"380 394 LINE",
"481 348 LINE",
"0 393 LINE",
"48 442 LINE",
"26 203 LINE",
"-2 262 LINE",
"468 217 LINE",
"358 154 LINE"
);
}
);
width = 408;
},
{
layerId = "8F9EA7C7-FA6E-4084-B685-AEA30DABFFDA";
width = 600;
}
);
unicode = 002D;
},
{
glyphname = underscore;
layers = (
{
layerId = "C1068CC4-E81B-47E6-9D26-F0E70787A68A";
paths = (
{
closed = 1;
nodes = (
"374 -48 LINE",
"475 -94 LINE",
"-6 -49 LINE",
"42 0 LINE",
"20 -239 LINE",
"-8 -124 LINE",
"462 -169 LINE",
"352 -288 LINE"
);
}
);
width = 401;
},
{
layerId = "8F9EA7C7-FA6E-4084-B685-AEA30DABFFDA";
width = 600;
}
);
unicode = 005F;
},
{
glyphname = quoteright;
layers = (
{
layerId = "C1068CC4-E81B-47E6-9D26-F0E70787A68A";
paths = (
{
closed = 1;
nodes = (
"205 664 LINE",
"79 700 LINE",
"30 473 LINE",
"155 437 LINE"
);
}
);
width = 235;
},
{
layerId = "8F9EA7C7-FA6E-4084-B685-AEA30DABFFDA";
width = 600;
}
);
unicode = 2019;
},
{
glyphname = guilsinglleft;
layers = (
{
layerId = "C1068CC4-E81B-47E6-9D26-F0E70787A68A";
paths = (
{
closed = 1;
nodes = (
"103 250 LINE",
"236 401 LINE",
"252 393 LINE",
"243 383 LINE",
"269 372 LINE",
"263 357 LINE",
"232 371 LINE",
"125 250 LINE",
"233 128 LINE",
"266 144 LINE",
"273 129 LINE",
"243 116 LINE",
"253 106 LINE",
"237 99 LINE"
);
},
{
closed = 1;
nodes = (
"215 42 LINE",
"335 98 LINE",
"281 212 LINE",
"247 196 LINE",
"198 251 LINE",
"245 304 LINE",
"278 288 LINE",
"333 403 LINE",
"213 458 LINE",
"30 251 LINE"
);
}
);
width = 365;
},
{
layerId = "8F9EA7C7-FA6E-4084-B685-AEA30DABFFDA";
width = 600;
}
);
unicode = 2039;
},
{
glyphname = quotesingle;
layers = (
{
layerId = "C1068CC4-E81B-47E6-9D26-F0E70787A68A";
paths = (
{
closed = 1;
nodes = (
"189 664 LINE",
"59 700 LINE",
"54 473 LINE",
"183 437 LINE"
);
}
);
width = 219;
},
{
layerId = "8F9EA7C7-FA6E-4084-B685-AEA30DABFFDA";
width = 600;
}
);
unicode = 0027;
},
{
glyphname = "fullstop-ar";
layers = (
{
layerId = "C1068CC4-E81B-47E6-9D26-F0E70787A68A";
paths = (
{
closed = 1;
nodes = (
"171 109 LINE",
"41 145 LINE",
"12 36 LINE",
"141 0 LINE"
);
}
);
width = 173;
},
{
associatedMasterId = "C1068CC4-E81B-47E6-9D26-F0E70787A68A";
layerId = "01CFD64E-9C07-4AD2-B0E2-7D855BC3DE76";
name = "Aug 13 19, 13:25";
paths = (
{
closed = 1;
nodes = (
"30 0 LINE",
"143 0 LINE",
"143 113 LINE",
"30 113 LINE"
);
}
);
width = 173;
},
{
layerId = "8F9EA7C7-FA6E-4084-B685-AEA30DABFFDA";
width = 600;
}
);
unicode = 06D4;
},
{
glyphname = cent;
layers = (
{
components = (
{
name = c;
}
);
layerId = "C1068CC4-E81B-47E6-9D26-F0E70787A68A";
paths = (
{
closed = 1;
nodes = (
"242 295 LINE",
"294 606 LINE",
"381 554 LINE",
"213 585 LINE",
"167 317 LINE",
"147 439 LINE",
"347 405 LINE"
);
},
{
closed = 1;
nodes = (
"166 -178 LINE",
"218 133 LINE",
"305 31 LINE",
"93 70 LINE",
"145 156 LINE",
"91 -156 LINE",
"71 -44 LINE",
"271 -78 LINE"
);
}
);
width = 394;
},
{
layerId = "8F9EA7C7-FA6E-4084-B685-AEA30DABFFDA";
width = 600;
}
);
unicode = 00A2;
},
{
glyphname = dollar;
layers = (
{
layerId = "C1068CC4-E81B-47E6-9D26-F0E70787A68A";
paths = (
{
closed = 1;
nodes = (
"124 440 LINE",
"82 431 LINE",
"221 264 LINE",
"234 307 LINE",
"165 248 LINE",
"206 256 LINE",
"68 423 LINE",
"55 382 LINE"
);
},
{
closed = 1;
nodes = (
"297 324 LINE",
"255 313 LINE",
"395 147 LINE",
"395 168 LINE",
"339 119 LINE",
"380 139 LINE",
"240 304 LINE",
"228 264 LINE"
);
},
{
closed = 1;
nodes = (
"175 208 LINE",
"220 244 LINE",
"357 81 LINE",
"406 122 LINE",
"406 219 LINE",
"283 364 LINE",
"240 327 LINE",
"111 482 LINE",
"15 400 LINE"
);
},
{
closed = 1;
nodes = (
"340 389 LINE",
"401 504 LINE",
"323 525 LINE",
"338 612 LINE",
"214 635 LINE",
"201 557 LINE",
"85 459 LINE"
);
},
{
closed = 1;
nodes = (
"197 502 LINE",
"246 489 LINE",
"261 586 LINE",
"277 583 LINE",
"261 485 LINE",
"335 464 LINE",
"328 449 LINE",
"157 496 LINE",
"149 461 LINE"
);
},
{
closed = 1;
nodes = (
"197 502 LINE",
"217 520 LINE",
"174 509 LINE"
);
},
{
closed = 1;
nodes = (
"135 109 LINE",
"281 69 LINE",
"266 56 LINE",
"216 69 LINE",
"200 -34 LINE",
"184 -31 LINE",
"201 74 LINE",
"127 94 LINE"
);
},
{
closed = 1;
nodes = (
"289 49 LINE",
"266 56 LINE",
"245 38 LINE"
);
},
{
closed = 1;
nodes = (
"305 62 LINE",
"314 97 LINE",
"281 69 LINE"
);
},
{
closed = 1;
nodes = (
"139 33 LINE",
"123 -60 LINE",
"247 -81 LINE",
"261 0 LINE",
"378 99 LINE",
"122 169 LINE",
"61 54 LINE"
);
}
);
width = 421;
},
{
layerId = "8F9EA7C7-FA6E-4084-B685-AEA30DABFFDA";
width = 600;
}
);
unicode = 0024;
},
{
glyphname = euro;
layers = (
{
components = (
{
name = C;
transform = "{1, 0, 0, 1, 12, 0}";
}
);
layerId = "C1068CC4-E81B-47E6-9D26-F0E70787A68A";
paths = (
{
closed = 1;
nodes = (
"193 345 LINE",
"339 345 LINE",
"339 402 LINE",
"193 402 LINE"
);
},
{
closed = 1;
nodes = (
"193 241 LINE",
"339 241 LINE",
"339 298 LINE",
"193 298 LINE"
);
},
{
closed = 1;
nodes = (
"15 345 LINE",
"148 345 LINE",
"148 402 LINE",
"15 402 LINE"
);
},
{
closed = 1;
nodes = (
"15 241 LINE",
"148 241 LINE",
"148 298 LINE",
"15 298 LINE"
);
}
);
width = 503;
},
{
layerId = "8F9EA7C7-FA6E-4084-B685-AEA30DABFFDA";
width = 600;
}
);
unicode = 20AC;
},
{
glyphname = plus;
layers = (
{
layerId = "C1068CC4-E81B-47E6-9D26-F0E70787A68A";
paths = (
{
closed = 1;
nodes = (
"30 312 LINE",
"174 312 LINE",
"174 456 LINE",
"291 456 LINE",
"291 312 LINE",
"435 312 LINE",
"435 195 LINE",
"291 195 LINE",
"291 51 LINE",
"174 51 LINE",
"174 195 LINE",
"30 195 LINE"
);
},
{
closed = 1;
nodes = (
"223 244 LINE",
"223 101 LINE",
"243 101 LINE",
"243 244 LINE",
"385 244 LINE",
"385 264 LINE",
"243 264 LINE",
"243 407 LINE",
"223 407 LINE",
"223 264 LINE",
"80 264 LINE",
"80 244 LINE"
);
}
);
width = 465;
},
{
layerId = "8F9EA7C7-FA6E-4084-B685-AEA30DABFFDA";
width = 600;
}
);
unicode = 002B;
},
{
glyphname = minus;
layers = (
{
layerId = "C1068CC4-E81B-47E6-9D26-F0E70787A68A";
paths = (
{
closed = 1;
nodes = (
"30 195 LINE",
"345 195 LINE",
"345 312 LINE",
"30 312 LINE"
);
},
{
closed = 1;
nodes = (
"80 264 LINE",
"295 264 LINE",
"295 244 LINE",
"80 244 LINE"
);
}
);
width = 375;
},
{
layerId = "8F9EA7C7-FA6E-4084-B685-AEA30DABFFDA";
width = 600;
}
);
unicode = 2212;
},
{
glyphname = multiply;
layers = (
{
layerId = "C1068CC4-E81B-47E6-9D26-F0E70787A68A";
paths = (
{
closed = 1;
nodes = (
"195 250 LINE",
"75 385 LINE",
"62 344 LINE",
"123 399 LINE",
"87 403 LINE",
"208 265 LINE",
"330 403 LINE",
"289 401 LINE",
"348 349 LINE",
"348 394 LINE",
"221 250 LINE",
"342 113 LINE",
"336 140 LINE",
"284 91 LINE",
"328 100 LINE",
"208 235 LINE",
"86 97 LINE",
"122 102 LINE",
"69 152 LINE",
"71 109 LINE"
);
},
{
closed = 1;
nodes = (
"10 387 LINE",
"131 250 LINE",
"31 138 LINE",
"115 59 LINE",
"208 163 LINE",
"301 59 LINE",
"385 138 LINE",
"285 250 LINE",
"386 364 LINE",
"299 441 LINE",
"208 338 LINE",
"117 441 LINE",
"-4 335 LINE"
);
}
);
width = 416;
},
{
layerId = "8F9EA7C7-FA6E-4084-B685-AEA30DABFFDA";
width = 600;
}
);
unicode = 00D7;
},
{
glyphname = divide;
layers = (
{
layerId = "C1068CC4-E81B-47E6-9D26-F0E70787A68A";
paths = (
{
closed = 1;
nodes = (
"30 195 LINE",
"385 195 LINE",
"385 312 LINE",
"30 312 LINE"
);
},
{
closed = 1;
nodes = (
"165 394 LINE",
"251 394 LINE",
"251 480 LINE",
"165 480 LINE"
);
},
{
closed = 1;
nodes = (
"251 27 LINE",
"251 113 LINE",
"165 113 LINE",
"165 27 LINE"
);
},
{
closed = 1;
nodes = (
"335 244 LINE",
"80 244 LINE",
"80 264 LINE",
"335 264 LINE"
);
}
);
width = 415;
},
{
layerId = "8F9EA7C7-FA6E-4084-B685-AEA30DABFFDA";
width = 600;
}
);
unicode = 00F7;
},
{
glyphname = equal;
layers = (
{
layerId = "C1068CC4-E81B-47E6-9D26-F0E70787A68A";
paths = (
{
closed = 1;
nodes = (
"30 111 LINE",
"345 111 LINE",
"345 228 LINE",
"30 228 LINE"
);
},
{
closed = 1;
nodes = (
"80 180 LINE",
"295 180 LINE",
"295 160 LINE",
"80 160 LINE"
);
},
{
closed = 1;
nodes = (
"30 266 LINE",
"345 266 LINE",
"345 383 LINE",
"30 383 LINE"
);
},
{
closed = 1;
nodes = (
"80 335 LINE",
"295 335 LINE",
"295 315 LINE",
"80 315 LINE"
);
}
);
width = 375;
},
{
layerId = "8F9EA7C7-FA6E-4084-B685-AEA30DABFFDA";
width = 600;
}
);
unicode = 003D;
},
